<?xml version="1.0" encoding="UTF-8"?>
<!-- Generator: visioncortex VTracer 0.6.3 -->
<svg version="1.1" xmlns="http://www.w3.org/2000/svg" width="1280" height="1280">
<path d="M0 0 C1.14 -0 2.28 -0.01 3.46 -0.01 C4.72 -0.01 5.99 -0.01 7.29 -0 C8.65 -0.01 10 -0.01 11.36 -0.01 C15.11 -0.02 18.86 -0.01 22.61 -0.01 C26.68 -0.01 30.74 -0.02 34.81 -0.02 C42.9 -0.03 50.98 -0.03 59.06 -0.03 C68.74 -0.03 78.42 -0.04 88.09 -0.05 C111.49 -0.06 134.88 -0.07 158.27 -0.07 C169.33 -0.08 180.4 -0.08 191.46 -0.08 C229.3 -0.1 267.15 -0.11 304.99 -0.11 C307.37 -0.11 309.75 -0.11 312.12 -0.11 C314.51 -0.11 316.89 -0.11 319.27 -0.11 C324.05 -0.11 328.83 -0.11 333.61 -0.11 C334.8 -0.11 335.99 -0.11 337.21 -0.11 C375.65 -0.12 414.09 -0.13 452.53 -0.16 C493.15 -0.18 533.77 -0.19 574.39 -0.2 C578.84 -0.2 583.3 -0.2 587.76 -0.2 C588.85 -0.2 589.95 -0.2 591.08 -0.2 C608.76 -0.2 626.45 -0.21 644.13 -0.22 C661.89 -0.24 679.66 -0.24 697.42 -0.23 C707.98 -0.23 718.54 -0.23 729.1 -0.25 C736.15 -0.26 743.2 -0.26 750.25 -0.25 C754.27 -0.24 758.29 -0.24 762.31 -0.25 C765.97 -0.26 769.62 -0.26 773.28 -0.25 C775.22 -0.24 777.15 -0.26 779.09 -0.27 C788.72 -0.21 795.51 2.36 803.98 6.69 C804.59 6.99 805.2 7.3 805.82 7.61 C808.56 8.99 811.11 10.42 813.67 12.13 C813.67 12.79 813.67 13.45 813.67 14.13 C814.66 14.46 815.65 14.79 816.67 15.13 C816.67 15.79 816.67 16.45 816.67 17.13 C817.31 17.4 817.95 17.66 818.61 17.94 C820.67 19.13 820.67 19.13 821.67 22.13 C822.33 22.13 822.99 22.13 823.67 22.13 C828.08 27.46 831.23 33.68 833.67 40.13 C834.05 41.03 834.05 41.03 834.43 41.95 C837.02 48.7 837.21 55.14 837.17 62.32 C837.16 63.51 837.16 64.71 837.15 65.95 C836.89 79.26 833.08 89.07 825.67 100.13 C825.01 101.12 824.35 102.11 823.67 103.13 C823.01 103.13 822.35 103.13 821.67 103.13 C821.27 104.09 821.27 104.09 820.86 105.07 C819.67 107.13 819.67 107.13 816.67 108.13 C816.67 108.79 816.67 109.45 816.67 110.13 C810.1 116.54 800.04 122.49 791.04 124.25 C787.59 124.79 787.59 124.79 785.92 127.25 C785.51 128.2 785.09 129.15 784.67 130.13 C784.37 130.67 784.06 131.22 783.75 131.78 C780.92 136.91 779.32 142.27 777.68 147.88 C776.76 150.84 775.69 153.65 774.48 156.5 C772.87 160.39 772.15 163.93 771.67 168.13 C770.75 171.55 769.75 174.9 768.61 178.25 C767.49 182.89 767.19 187.39 766.92 192.14 C766.67 195.13 766.67 195.13 766.16 197.06 C765.66 199.17 765.54 200.99 765.52 203.15 C765.52 203.93 765.51 204.72 765.51 205.52 C765.5 206.36 765.5 207.21 765.5 208.07 C765.5 208.96 765.5 209.84 765.49 210.75 C765.49 212.63 765.48 214.51 765.48 216.38 C765.48 219.19 765.46 222 765.45 224.81 C765.42 233.61 765.6 242.31 766.56 251.06 C766.63 251.77 766.71 252.49 766.79 253.23 C767.34 257.68 768.37 261.83 769.67 266.13 C770.18 268.71 770.66 271.29 771.11 273.88 C772.65 282.42 774.6 290.67 777.79 298.76 C779.47 303.27 780.9 307.87 782.39 312.44 C783.28 315.01 784.21 317.38 785.33 319.84 C786.67 323.13 786.67 323.13 786.67 327.13 C787.75 327.32 787.75 327.32 788.85 327.53 C801.57 330.24 813.46 336.9 821.67 347.13 C821.67 347.79 821.67 348.45 821.67 349.13 C822.33 349.13 822.99 349.13 823.67 349.13 C828.27 355.18 832.07 361.98 834.67 369.13 C835.03 370.1 835.38 371.06 835.75 372.06 C837.32 377.72 837.04 383.62 837.04 389.44 C837.07 390.61 837.09 391.78 837.12 392.99 C837.14 400.64 835.99 406.28 832.67 413.13 C832.19 414.35 831.7 415.56 831.2 416.82 C829.49 420.52 827.45 423.74 825.11 427.07 C824.51 427.95 824.51 427.95 823.9 428.85 C822.88 430.32 821.78 431.73 820.67 433.13 C820.01 433.13 819.35 433.13 818.67 433.13 C818.67 433.79 818.67 434.45 818.67 435.13 C798.95 453.78 775.9 453.91 750.44 453.93 C746.51 453.94 742.59 453.98 738.66 454.02 C730.99 454.08 723.33 454.11 715.67 454.13 C716.21 454.53 716.76 454.94 717.32 455.36 C718.04 455.9 718.75 456.43 719.49 456.99 C720.2 457.52 720.91 458.05 721.64 458.59 C724.13 460.47 726.56 462.42 728.98 464.38 C731.5 466.42 733.97 468.33 736.67 470.13 C736.67 470.79 736.67 471.45 736.67 472.13 C737.33 472.13 737.99 472.13 738.67 472.13 C738.67 472.79 738.67 473.45 738.67 474.13 C739.66 474.46 740.65 474.79 741.67 475.13 C741.67 475.79 741.67 476.45 741.67 477.13 C742.63 477.53 742.63 477.53 743.61 477.94 C745.67 479.13 745.67 479.13 746.67 482.13 C747.33 482.46 747.99 482.79 748.67 483.13 C749.33 483.46 749.99 483.79 750.67 484.13 C751 485.12 751.33 486.11 751.67 487.13 C752.33 487.13 752.99 487.13 753.67 487.13 C766.47 500.67 778.04 517.25 786.13 533.96 C787.2 536.17 788.3 538.36 789.42 540.54 C795.8 552.97 800.45 565.84 804.67 579.13 C805 580.18 805.34 581.23 805.69 582.31 C807.05 587.59 807.88 592.93 808.73 598.32 C809.08 600.45 809.42 602.59 809.77 604.73 C809.92 605.67 810.07 606.61 810.22 607.58 C810.61 610.03 810.61 610.03 811.19 611.97 C811.74 614.42 811.8 616.64 811.81 619.15 C811.82 620.65 811.82 620.65 811.83 622.18 C811.84 623.25 811.84 624.33 811.84 625.44 C811.84 626.55 811.84 627.67 811.85 628.82 C811.85 631.19 811.86 633.56 811.85 635.93 C811.86 639.52 811.88 643.11 811.89 646.7 C811.9 649.01 811.9 651.31 811.9 653.62 C811.91 655.21 811.91 655.21 811.92 656.83 C811.89 666.91 810.51 676.46 807.67 686.13 C807.48 687.46 807.31 688.79 807.17 690.13 C806.74 693.95 805.81 697.44 804.67 701.13 C804.34 702.27 804.34 702.27 804.01 703.44 C802.52 708.65 800.75 713.65 798.69 718.66 C798.05 720.2 797.43 721.75 796.84 723.31 C791.94 736.17 785.87 748.55 778.73 760.32 C778.02 761.49 778.02 761.49 777.3 762.69 C776.15 764.54 774.92 766.34 773.67 768.13 C773.01 768.13 772.35 768.13 771.67 768.13 C771.21 769.3 771.21 769.3 770.73 770.5 C769.67 773.13 769.67 773.13 768.67 775.13 C768.01 775.13 767.35 775.13 766.67 775.13 C766.42 775.85 766.17 776.57 765.92 777.31 C764.55 780.41 762.88 782.64 760.73 785.25 C760.04 786.1 759.35 786.95 758.64 787.82 C755.37 791.64 755.37 791.64 753.67 793.13 C753.01 793.13 752.35 793.13 751.67 793.13 C751.46 793.66 751.26 794.2 751.04 794.75 C749.14 798.05 746.62 800.72 743.67 803.13 C743.01 803.13 742.35 803.13 741.67 803.13 C741.27 804.09 741.27 804.09 740.86 805.07 C739.67 807.13 739.67 807.13 736.67 808.13 C736.67 808.79 736.67 809.45 736.67 810.13 C734.55 812.07 734.55 812.07 731.79 814.25 C730.89 814.98 729.98 815.7 729.05 816.45 C726.67 818.13 726.67 818.13 724.67 818.13 C724.67 818.79 724.67 819.45 724.67 820.13 C722.7 821.64 722.7 821.64 720.17 823.25 C719.33 823.79 718.5 824.33 717.64 824.89 C716.66 825.5 716.66 825.5 715.67 826.13 C716.74 826.13 717.8 826.13 718.9 826.13 C744.87 826.19 770.83 826.27 796.8 826.36 C809.36 826.41 821.91 826.45 834.47 826.47 C845.42 826.5 856.37 826.53 867.31 826.58 C873.11 826.6 878.9 826.62 884.69 826.63 C890.15 826.63 895.61 826.65 901.07 826.68 C903.07 826.69 905.07 826.69 907.07 826.69 C920.67 826.68 932.56 827.61 944.92 833.82 C945.58 834.14 946.24 834.46 946.92 834.79 C948.51 835.56 950.09 836.34 951.67 837.13 C951.67 837.79 951.67 838.45 951.67 839.13 C952.75 839.48 952.75 839.48 953.86 839.84 C961.32 843.26 968.37 851.6 971.67 859.13 C971.67 860.12 971.67 861.11 971.67 862.13 C972.33 862.13 972.99 862.13 973.67 862.13 C977.62 871.11 979.02 878.56 978.99 888.39 C978.98 890.49 979.01 892.59 979.03 894.7 C979.07 901.83 978.83 907.67 975.67 914.13 C975.37 914.76 975.07 915.39 974.77 916.04 C973.87 917.92 972.93 919.77 971.98 921.63 C971.66 922.26 971.34 922.89 971.01 923.54 C970.23 925.07 969.45 926.6 968.67 928.13 C968.01 928.13 967.35 928.13 966.67 928.13 C966.4 928.89 966.13 929.65 965.86 930.44 C964.72 933.02 963.86 934.4 961.67 936.13 C961.01 936.13 960.35 936.13 959.67 936.13 C959.67 936.79 959.67 937.45 959.67 938.13 C952.08 944.66 943.5 949.9 933.79 952.44 C931.23 953.24 929.99 953.71 928.33 955.84 C927.28 957.9 926.46 959.96 925.67 962.13 C925.17 963.18 924.68 964.23 924.17 965.32 C920.38 974.4 918.08 984.12 915.6 993.62 C914.97 995.98 914.31 998.34 913.62 1000.69 C912.73 1003.9 912.1 1007.02 911.61 1010.32 C911.45 1011.32 911.3 1012.32 911.13 1013.36 C909.81 1024.09 909.51 1034.7 909.54 1045.5 C909.54 1047.99 909.54 1050.48 909.53 1052.98 C909.01 1068.78 909.01 1068.78 911.67 1084.13 C911.8 1085.71 911.9 1087.29 911.98 1088.88 C912.49 1095.01 914.04 1100.74 915.7 1106.64 C916.44 1109.3 917.1 1111.93 917.67 1114.63 C919.86 1124.78 922.58 1134.57 926.67 1144.13 C929.67 1151.58 929.67 1151.58 929.67 1155.13 C930.25 1155.27 930.83 1155.42 931.44 1155.57 C949.04 1160.39 961.71 1170.09 971.67 1185.13 C973.62 1188.71 975.26 1192.31 976.67 1196.13 C977.01 1197.02 977.36 1197.92 977.71 1198.84 C979.3 1204.27 979 1209.78 978.99 1215.39 C978.98 1217.49 979.01 1219.59 979.03 1221.7 C979.07 1228.82 978.81 1234.67 975.67 1241.13 C975.23 1242.14 974.8 1243.14 974.35 1244.18 C966.55 1260.32 954.6 1271.87 937.67 1278.13 C936.76 1278.47 935.86 1278.82 934.93 1279.17 C931.45 1280.19 928.65 1280.38 925.03 1280.38 C924.39 1280.38 923.74 1280.38 923.08 1280.39 C920.91 1280.39 918.75 1280.38 916.58 1280.38 C915.01 1280.38 913.44 1280.38 911.86 1280.38 C907.52 1280.39 903.18 1280.39 898.84 1280.38 C894.12 1280.37 889.41 1280.38 884.69 1280.38 C876.42 1280.39 868.15 1280.39 859.87 1280.38 C847.57 1280.37 835.27 1280.37 822.97 1280.38 C802.28 1280.38 781.59 1280.38 760.9 1280.37 C740.41 1280.36 719.92 1280.36 699.42 1280.36 C698.15 1280.36 696.88 1280.36 695.56 1280.36 C690.4 1280.36 685.23 1280.36 680.06 1280.36 C643.98 1280.36 607.89 1280.35 571.81 1280.34 C571.13 1280.34 570.45 1280.34 569.75 1280.34 C558.7 1280.34 547.66 1280.34 536.61 1280.33 C492.78 1280.32 448.96 1280.31 405.13 1280.31 C403.74 1280.31 402.36 1280.31 400.97 1280.31 C398.21 1280.31 395.44 1280.31 392.67 1280.31 C386.46 1280.31 380.26 1280.31 374.05 1280.31 C372.68 1280.31 371.3 1280.31 369.93 1280.31 C333.24 1280.31 296.55 1280.31 259.86 1280.3 C258.58 1280.3 257.29 1280.3 255.98 1280.3 C250.83 1280.3 245.68 1280.3 240.53 1280.3 C222.59 1280.3 204.66 1280.3 186.72 1280.29 C163.61 1280.29 140.5 1280.29 117.39 1280.28 C105.16 1280.28 92.92 1280.27 80.69 1280.27 C72.53 1280.27 64.38 1280.27 56.22 1280.27 C51.57 1280.26 46.91 1280.26 42.25 1280.26 C38.02 1280.27 33.8 1280.26 29.57 1280.26 C28.04 1280.26 26.51 1280.26 24.98 1280.26 C22.92 1280.26 20.86 1280.26 18.8 1280.25 C17.66 1280.25 16.51 1280.25 15.33 1280.25 C12.67 1280.13 12.67 1280.13 10.67 1279.13 C9.07 1278.97 7.46 1278.85 5.86 1278.75 C-2.99 1278.01 -11.52 1275.9 -19.89 1272.94 C-23.02 1271.9 -26.2 1271.06 -29.39 1270.19 C-34.04 1268.88 -38.2 1267.43 -42.43 1265.12 C-44.56 1264.01 -46.71 1263.17 -48.96 1262.32 C-60.47 1257.78 -70.91 1251.73 -81.33 1245.13 C-82.18 1244.62 -83.04 1244.11 -83.92 1243.58 C-85.76 1242.48 -87.55 1241.31 -89.33 1240.13 C-89.33 1239.47 -89.33 1238.81 -89.33 1238.13 C-90.32 1238.13 -91.31 1238.13 -92.33 1238.13 C-92.33 1237.47 -92.33 1236.81 -92.33 1236.13 C-92.87 1235.88 -93.4 1235.63 -93.96 1235.38 C-96.91 1233.82 -99.63 1232.09 -102.33 1230.13 C-102.33 1229.47 -102.33 1228.81 -102.33 1228.13 C-102.87 1227.9 -103.42 1227.68 -103.97 1227.44 C-107.05 1225.73 -109.47 1223.46 -112.02 1221.07 C-112.54 1220.58 -113.07 1220.09 -113.61 1219.58 C-127.26 1206.84 -127.26 1206.84 -132.33 1200.13 C-132.33 1199.47 -132.33 1198.81 -132.33 1198.13 C-132.99 1198.13 -133.65 1198.13 -134.33 1198.13 C-135.78 1196.39 -137.14 1194.59 -138.46 1192.75 C-139.18 1191.75 -139.9 1190.76 -140.65 1189.73 C-142.33 1187.13 -142.33 1187.13 -142.33 1185.13 C-142.99 1185.13 -143.65 1185.13 -144.33 1185.13 C-146.01 1182.74 -147.56 1180.37 -149.08 1177.88 C-149.53 1177.15 -149.98 1176.42 -150.44 1175.66 C-153.53 1170.59 -156.35 1165.45 -158.91 1160.1 C-159.9 1158.02 -160.94 1155.96 -162 1153.91 C-170.53 1137.45 -177.72 1119.35 -180.83 1101 C-181.2 1098.86 -181.62 1096.74 -182.06 1094.62 C-184.54 1082.15 -184.76 1069.9 -184.67 1057.21 C-184.64 1053.74 -184.65 1050.26 -184.65 1046.79 C-184.65 1044.54 -184.64 1042.29 -184.63 1040.04 C-184.63 1039.02 -184.63 1038 -184.63 1036.95 C-184.56 1029.85 -183.66 1023.1 -182.33 1016.13 C-182.07 1014.65 -181.81 1013.18 -181.55 1011.7 C-181.31 1010.42 -181.07 1009.14 -180.83 1007.82 C-180.59 1006.52 -180.36 1005.22 -180.11 1003.89 C-179.02 998.66 -177.72 993.9 -175.33 989.13 C-174.86 987.55 -174.39 985.97 -173.96 984.38 C-171.75 976.43 -169.6 969.2 -165.33 962.13 C-164.68 960.53 -164.06 958.93 -163.46 957.32 C-161.35 951.85 -158.42 947.08 -155.33 942.13 C-154.37 940.43 -154.37 940.43 -153.39 938.69 C-149.02 931.01 -144.1 923.67 -139.02 916.44 C-138.59 915.82 -138.15 915.19 -137.71 914.55 C-136.63 913.04 -135.49 911.58 -134.33 910.13 C-133.67 910.13 -133.01 910.13 -132.33 910.13 C-132 909.14 -131.67 908.15 -131.33 907.13 C-130.67 907.13 -130.01 907.13 -129.33 907.13 C-128.93 906.26 -128.93 906.26 -128.52 905.38 C-127.3 903.07 -126.03 901.11 -124.33 899.13 C-123.67 899.13 -123.01 899.13 -122.33 899.13 C-121.93 898.17 -121.93 898.17 -121.52 897.19 C-120.33 895.13 -120.33 895.13 -117.33 894.13 C-117 893.47 -116.67 892.81 -116.33 892.13 C-115.33 890.13 -115.33 890.13 -112.33 889.13 C-112.33 888.47 -112.33 887.81 -112.33 887.13 C-106.85 882.13 -106.85 882.13 -104.33 882.13 C-104.33 881.47 -104.33 880.81 -104.33 880.13 C-102.65 878.62 -102.65 878.62 -100.46 877 C-99.74 876.46 -99.02 875.92 -98.28 875.37 C-96.33 874.13 -96.33 874.13 -94.33 874.13 C-94.33 873.47 -94.33 872.81 -94.33 872.13 C-92.7 870.75 -91.04 869.41 -89.33 868.13 C-90.12 868.12 -90.91 868.12 -91.72 868.12 C-110.92 868.04 -130.13 867.94 -149.34 867.84 C-158.63 867.79 -167.91 867.74 -177.2 867.71 C-185.3 867.67 -193.4 867.63 -201.5 867.58 C-205.79 867.56 -210.07 867.54 -214.36 867.52 C-218.4 867.51 -222.44 867.49 -226.48 867.46 C-227.96 867.45 -229.43 867.45 -230.91 867.44 C-252.42 867.41 -267.36 862.87 -283.74 848.8 C-285.43 847.03 -286.36 845.36 -287.33 843.13 C-287.99 843.13 -288.65 843.13 -289.33 843.13 C-291.63 840.57 -292.33 839.65 -292.33 836.13 C-292.99 836.13 -293.65 836.13 -294.33 836.13 C-295.13 834.42 -295.92 832.71 -296.71 831 C-297.15 830.05 -297.59 829.1 -298.04 828.12 C-301.29 820.58 -301.67 813.96 -301.65 805.87 C-301.64 803.77 -301.67 801.66 -301.69 799.56 C-301.73 792.44 -301.48 786.59 -298.33 780.13 C-297.87 779.1 -297.41 778.07 -296.94 777 C-290.94 764.85 -290.94 764.85 -286.33 760.13 C-285.67 760.13 -285.01 760.13 -284.33 760.13 C-284 759.14 -283.67 758.15 -283.33 757.13 C-275.97 750.85 -267.67 744.9 -258.08 743.13 C-254.52 742.17 -253.59 741.57 -251.69 738.33 C-250.4 734.97 -249.34 731.59 -248.33 728.13 C-247.82 726.85 -247.31 725.58 -246.77 724.32 C-244.95 719.52 -243.86 714.48 -242.69 709.5 C-241.43 704.23 -241.43 704.23 -240.33 703.13 C-239.66 700.13 -239.04 697.14 -238.46 694.13 C-238.28 693.23 -238.1 692.33 -237.92 691.4 C-237.38 688.64 -236.86 685.89 -236.33 683.13 C-236.18 682.34 -236.02 681.54 -235.87 680.73 C-235.45 678.55 -235.04 676.37 -234.64 674.19 C-234.41 672.94 -234.18 671.7 -233.94 670.41 C-232.22 659.36 -232.17 648.21 -232.2 637.05 C-232.21 634.63 -232.2 632.21 -232.19 629.79 C-232.19 615.24 -233.31 601.36 -236.33 587.13 C-236.48 586.4 -236.64 585.67 -236.8 584.92 C-238.46 577.17 -240.22 569.62 -243.4 562.32 C-244.34 560.1 -245.1 557.87 -245.83 555.57 C-247.1 551.63 -248.7 547.92 -250.46 544.17 C-251.31 542.17 -251.86 540.25 -252.33 538.13 C-253.16 538.2 -253.98 538.28 -254.83 538.36 C-259.32 538.06 -262.34 536.51 -266.27 534.44 C-266.95 534.1 -267.62 533.76 -268.32 533.41 C-272.97 531.02 -277.21 528.36 -281.33 525.13 C-281.33 524.47 -281.33 523.81 -281.33 523.13 C-282.32 522.8 -283.31 522.47 -284.33 522.13 C-284.33 521.47 -284.33 520.81 -284.33 520.13 C-284.99 520.13 -285.65 520.13 -286.33 520.13 C-297.14 507.58 -301.7 495.19 -301.65 478.79 C-301.64 476.7 -301.67 474.6 -301.69 472.51 C-301.73 465.41 -301.45 459.58 -298.33 453.13 C-297.94 452.22 -297.56 451.31 -297.16 450.38 C-296.66 449.26 -296.66 449.26 -296.14 448.13 C-295.8 447.36 -295.45 446.6 -295.1 445.82 C-294.72 444.98 -294.72 444.98 -294.33 444.13 C-293.67 444.13 -293.01 444.13 -292.33 444.13 C-292.21 443.53 -292.08 442.93 -291.96 442.32 C-291.33 440.13 -291.33 440.13 -289.33 437.13 C-288.67 437.13 -288.01 437.13 -287.33 437.13 C-287.1 436.56 -286.87 436 -286.64 435.42 C-284.97 432.51 -282.91 430.71 -280.39 428.5 C-279.52 427.73 -278.64 426.95 -277.74 426.15 C-272.95 422.13 -272.95 422.13 -269.33 422.13 C-269.33 421.47 -269.33 420.81 -269.33 420.13 C-257.1 413.37 -244.39 412.99 -230.73 412.92 C-229.38 412.91 -228.03 412.9 -226.68 412.89 C-223.04 412.87 -219.4 412.84 -215.75 412.82 C-211.94 412.8 -208.12 412.78 -204.31 412.75 C-197.09 412.7 -189.88 412.65 -182.66 412.61 C-174.45 412.56 -166.23 412.51 -158.01 412.45 C-141.12 412.34 -124.22 412.23 -107.33 412.13 C-110.42 409.01 -113.47 406.11 -116.96 403.44 C-117.71 402.86 -118.47 402.28 -119.24 401.68 C-120.9 400.44 -122.61 399.27 -124.33 398.13 C-124.33 397.47 -124.33 396.81 -124.33 396.13 C-125.32 395.8 -126.31 395.47 -127.33 395.13 C-127.33 394.47 -127.33 393.81 -127.33 393.13 C-127.92 392.86 -128.52 392.59 -129.13 392.31 C-131.34 391.12 -132.8 389.92 -134.56 388.16 C-135.43 387.3 -135.43 387.3 -136.3 386.43 C-136.89 385.83 -137.48 385.24 -138.08 384.63 C-138.68 384.03 -139.28 383.44 -139.9 382.83 C-140.76 381.97 -140.76 381.97 -141.63 381.1 C-142.15 380.57 -142.67 380.05 -143.2 379.52 C-144.33 378.13 -144.33 378.13 -144.33 376.13 C-144.99 376.13 -145.65 376.13 -146.33 376.13 C-162.33 358.81 -162.33 358.81 -162.33 353.13 C-162.99 353.13 -163.65 353.13 -164.33 353.13 C-164.87 352.18 -165.4 351.23 -165.96 350.25 C-167.24 347.99 -168.56 345.76 -169.93 343.54 C-170.48 342.66 -171.02 341.78 -171.58 340.88 C-172.1 340.05 -172.62 339.22 -173.16 338.36 C-174.33 336.13 -174.33 336.13 -174.33 333.13 C-174.99 333.13 -175.65 333.13 -176.33 333.13 C-182.56 320.09 -188.62 307.36 -192.43 293.37 C-193.16 290.72 -193.98 288.15 -194.89 285.57 C-197.72 277.24 -199.48 268.77 -200.06 260 C-200.32 257.25 -200.79 254.64 -201.34 251.93 C-202.75 243.6 -202.68 235.3 -202.64 226.88 C-202.64 226.04 -202.64 225.21 -202.64 224.35 C-202.58 205.38 -201.15 187.27 -195.33 169.13 C-194.79 167.05 -194.27 164.97 -193.77 162.88 C-191.89 155.28 -190.02 148.08 -186.34 141.15 C-185.3 139.07 -184.51 136.99 -183.71 134.82 C-178.37 121.27 -170.81 108.66 -162.47 96.77 C-161.37 95.18 -160.29 93.58 -159.22 91.98 C-158.59 91.06 -157.97 90.14 -157.33 89.19 C-156.79 88.4 -156.26 87.6 -155.71 86.79 C-155.25 86.24 -154.8 85.69 -154.33 85.13 C-153.67 85.13 -153.01 85.13 -152.33 85.13 C-152.02 84.51 -151.71 83.89 -151.39 83.25 C-150.71 81.88 -150.02 80.5 -149.33 79.13 C-148.67 79.13 -148.01 79.13 -147.33 79.13 C-147.08 78.57 -146.84 78.01 -146.58 77.44 C-145.1 74.7 -143.4 72.45 -141.33 70.13 C-140.67 70.13 -140.01 70.13 -139.33 70.13 C-138.96 69.26 -138.96 69.26 -138.58 68.38 C-137.15 65.8 -135.55 64.07 -133.33 62.13 C-132.67 62.13 -132.01 62.13 -131.33 62.13 C-131.33 61.47 -131.33 60.81 -131.33 60.13 C-129.87 58.62 -129.87 58.62 -127.96 57 C-127.33 56.46 -126.7 55.92 -126.06 55.37 C-124.33 54.13 -124.33 54.13 -122.33 54.13 C-122.33 53.47 -122.33 52.81 -122.33 52.13 C-118.87 49.13 -118.87 49.13 -116.33 49.13 C-116.33 48.47 -116.33 47.81 -116.33 47.13 C-114.76 45.82 -114.76 45.82 -112.56 44.33 C-111.76 43.79 -110.96 43.25 -110.14 42.69 C-109.27 42.11 -108.41 41.53 -107.52 40.94 C-106.64 40.35 -105.76 39.76 -104.86 39.15 C-103.12 37.99 -101.38 36.82 -99.63 35.66 C-97.84 34.47 -96.06 33.25 -94.29 32.03 C-86.53 26.81 -78.05 23.05 -69.57 19.16 C-67.6 18.25 -65.65 17.32 -63.71 16.36 C-56.1 12.67 -48.5 10.28 -40.33 8.13 C-37.89 7.42 -35.45 6.72 -33.02 6 C-25.11 3.76 -17.6 2 -9.4 1.37 C-6.02 0.97 -3.58 0 0 0 Z M-25.33 45.13 C-26.47 45.45 -27.6 45.77 -28.77 46.1 C-36.19 48.27 -43.26 51.01 -50.33 54.13 C-51.2 54.5 -52.07 54.86 -52.96 55.24 C-66.51 61.13 -78.56 68.67 -90.2 77.72 C-93.33 80.13 -93.33 80.13 -95.33 81.13 C-95.33 81.79 -95.33 82.45 -95.33 83.13 C-95.89 83.35 -96.44 83.58 -97.02 83.82 C-99.99 85.5 -101.98 87.66 -104.33 90.13 C-114.33 100.13 -114.33 100.13 -116.64 102.32 C-118.56 103.96 -118.56 103.96 -118.33 106.13 C-118.99 106.13 -119.65 106.13 -120.33 106.13 C-121.65 107.59 -121.65 107.59 -122.94 109.53 C-123.44 110.25 -123.95 110.97 -124.47 111.72 C-125.27 112.88 -125.27 112.88 -126.08 114.07 C-126.62 114.85 -127.17 115.63 -127.73 116.43 C-129.27 118.66 -130.8 120.89 -132.33 123.13 C-132.97 124.06 -133.62 124.99 -134.28 125.94 C-139.16 133.1 -143.2 140.37 -146.3 148.47 C-147.41 151.33 -148.62 154.13 -149.83 156.94 C-152.05 162.24 -153.81 167.61 -155.44 173.12 C-156.02 175.08 -156.66 177.03 -157.35 178.95 C-158.58 182.95 -159.22 186.93 -159.83 191.07 C-159.96 191.91 -160.08 192.75 -160.21 193.61 C-160.47 195.32 -160.72 197.03 -160.97 198.73 C-161.29 200.84 -161.63 202.94 -161.97 205.04 C-165.38 227.28 -163.18 250.46 -157.33 272.13 C-157.02 273.38 -156.71 274.63 -156.39 275.92 C-154.83 282.19 -153.13 288.2 -150.32 294.04 C-149.26 296.28 -148.39 298.56 -147.52 300.88 C-142.74 312.85 -135.68 323.57 -128.57 334.25 C-127.76 335.48 -126.96 336.72 -126.18 337.96 C-125.28 339.38 -124.31 340.76 -123.33 342.13 C-122.67 342.13 -122.01 342.13 -121.33 342.13 C-120.98 342.95 -120.98 342.95 -120.63 343.79 C-118.96 346.79 -116.85 349.04 -114.52 351.57 C-113.67 352.49 -112.81 353.42 -111.94 354.37 C-102.96 363.86 -93.41 373.13 -82.33 380.13 C-81.67 380.13 -81.01 380.13 -80.33 380.13 C-80.33 380.79 -80.33 381.45 -80.33 382.13 C-79.38 382.66 -78.43 383.2 -77.46 383.75 C-74.44 385.47 -71.48 387.26 -68.52 389.07 C-60.97 393.59 -53.4 397.28 -45.07 400.14 C-43.03 400.88 -41.02 401.71 -39.03 402.59 C-24.76 408.78 -8.26 412.04 7.2 412.7 C8.14 412.74 9.09 412.78 10.07 412.82 C22.95 413.32 35.84 413.27 48.73 413.26 C52.61 413.25 56.49 413.26 60.37 413.26 C67.14 413.26 73.92 413.26 80.69 413.26 C90.77 413.26 100.85 413.26 110.92 413.26 C128.92 413.27 146.92 413.27 164.91 413.26 C180.65 413.26 196.39 413.26 212.13 413.26 C213.18 413.26 214.23 413.26 215.3 413.26 C219.55 413.26 223.79 413.26 228.04 413.26 C267.81 413.27 307.58 413.26 347.35 413.26 C382.68 413.25 418.02 413.25 453.35 413.26 C493.07 413.26 532.8 413.27 572.52 413.26 C576.75 413.26 580.98 413.26 585.21 413.26 C586.78 413.26 586.78 413.26 588.37 413.26 C604.11 413.26 619.85 413.26 635.59 413.26 C653.48 413.27 671.36 413.27 689.25 413.26 C699.26 413.26 709.27 413.26 719.29 413.26 C725.97 413.26 732.65 413.26 739.33 413.26 C743.14 413.26 746.95 413.25 750.76 413.26 C754.86 413.26 758.96 413.26 763.06 413.25 C764.85 413.26 764.85 413.26 766.66 413.26 C775.91 413.24 783.25 413.19 790.67 407.13 C795.96 401.39 798.13 395.2 797.92 387.43 C797.12 380.05 793.66 374.73 788.18 369.78 C781.56 364.86 774.46 365.44 766.54 365.51 C764.99 365.5 763.45 365.5 761.9 365.49 C757.66 365.47 753.42 365.49 749.18 365.51 C744.61 365.52 740.03 365.51 735.46 365.5 C727.53 365.49 719.61 365.49 711.68 365.51 C700.21 365.53 688.74 365.52 677.27 365.51 C658.65 365.48 640.02 365.48 621.4 365.49 C619.73 365.49 619.73 365.49 618.02 365.49 C615.77 365.49 613.51 365.49 611.26 365.49 C610.14 365.49 609.02 365.49 607.87 365.5 C606.75 365.5 605.63 365.5 604.48 365.5 C592.05 365.5 579.63 365.51 567.2 365.51 C566.09 365.51 564.98 365.51 563.83 365.51 C545.28 365.51 526.73 365.49 508.17 365.48 C496.73 365.46 485.29 365.47 473.85 365.48 C466.01 365.49 458.17 365.49 450.33 365.48 C445.81 365.48 441.29 365.48 436.77 365.5 C432.63 365.51 428.48 365.51 424.34 365.5 C422.85 365.49 421.35 365.5 419.86 365.51 C400.6 365.61 400.6 365.61 394.74 360.41 C389.7 354.88 388.2 350.34 388.36 342.88 C388.98 337.35 391.54 334.28 395.42 330.32 C403.02 325.2 411.54 325.84 420.39 325.85 C421.78 325.84 423.17 325.84 424.57 325.83 C428.38 325.82 432.19 325.81 436 325.81 C440.12 325.81 444.24 325.79 448.36 325.78 C455.48 325.76 462.61 325.74 469.74 325.73 C480.05 325.72 490.35 325.69 500.66 325.66 C517.38 325.62 534.11 325.58 550.83 325.55 C567.07 325.52 583.31 325.48 599.55 325.45 C601.06 325.44 601.06 325.44 602.59 325.44 C607.61 325.43 612.64 325.41 617.66 325.4 C659.33 325.3 701 325.21 742.67 325.13 C743.97 322.54 743.45 321.77 742.6 319.05 C742.34 318.23 742.09 317.4 741.83 316.55 C741.55 315.67 741.27 314.79 740.98 313.88 C740.42 312.03 739.85 310.19 739.29 308.34 C738.38 305.42 737.47 302.49 736.55 299.57 C730.38 279.15 726.55 257.5 725.98 236.19 C725.96 235.51 725.94 234.83 725.92 234.13 C725.63 223.7 725.66 213.3 725.98 202.88 C726.02 201.67 726.05 200.47 726.09 199.23 C726.37 191.72 727.27 184.51 728.67 177.13 C728.92 175.7 729.17 174.27 729.42 172.84 C731.2 163.1 733.22 153.61 736.85 144.37 C738.34 140.3 739.55 136.13 740.8 131.98 C741.4 130.02 742.02 128.07 742.67 126.13 C673.07 126.09 603.46 126.06 533.86 126.04 C532.83 126.04 531.8 126.04 530.74 126.04 C508.35 126.04 485.96 126.03 463.58 126.03 C452.6 126.02 441.62 126.02 430.64 126.02 C429 126.02 429 126.02 427.33 126.02 C391.92 126.01 356.5 125.99 321.09 125.98 C284.7 125.96 248.31 125.94 211.92 125.94 C206.78 125.94 201.64 125.94 196.5 125.94 C195.49 125.94 194.48 125.94 193.43 125.94 C177.15 125.94 160.87 125.93 144.58 125.91 C128.21 125.9 111.84 125.9 95.47 125.9 C85.74 125.9 76.02 125.9 66.29 125.89 C59.79 125.88 53.29 125.88 46.79 125.88 C43.09 125.89 39.39 125.89 35.68 125.88 C31.69 125.87 27.7 125.87 23.7 125.88 C22.56 125.88 21.42 125.87 20.25 125.87 C-1.24 125.96 -19.47 132.46 -37.33 144.13 C-38.45 144.83 -39.56 145.53 -40.71 146.25 C-41.58 146.87 -42.44 147.49 -43.33 148.13 C-43.33 148.79 -43.33 149.45 -43.33 150.13 C-44.82 150.62 -44.82 150.62 -46.33 151.13 C-46.33 151.79 -46.33 152.45 -46.33 153.13 C-47.23 153.53 -47.23 153.53 -48.14 153.94 C-50.33 155.13 -51.74 156.22 -53.33 158.13 C-53.33 158.79 -53.33 159.45 -53.33 160.13 C-53.99 160.13 -54.65 160.13 -55.33 160.13 C-57.73 162.76 -57.73 162.76 -58.33 166.13 C-58.99 166.13 -59.65 166.13 -60.33 166.13 C-65.68 173.55 -69.84 181.69 -73.33 190.13 C-73.86 191.37 -73.86 191.37 -74.4 192.65 C-75.3 195.04 -75.89 197.32 -76.39 199.82 C-76.87 202.15 -77.26 203.99 -78.33 206.13 C-80.54 226.92 -79.88 246.84 -71.33 266.13 C-70.92 267.05 -70.51 267.98 -70.09 268.93 C-67.25 274.96 -63.92 280.45 -60.08 285.88 C-59.43 286.81 -59.43 286.81 -58.76 287.76 C-57.67 289.26 -56.51 290.7 -55.33 292.13 C-54.67 292.13 -54.01 292.13 -53.33 292.13 C-53.33 292.79 -53.33 293.45 -53.33 294.13 C-52 295.79 -52 295.79 -50.33 297.13 C-49.67 297.13 -49.01 297.13 -48.33 297.13 C-48.33 297.79 -48.33 298.45 -48.33 299.13 C-38.13 308.75 -26.2 314.99 -13.33 320.13 C-12 320.67 -12 320.67 -10.65 321.23 C-0.28 325.24 10.58 325.28 21.54 325.27 C22.81 325.27 24.09 325.27 25.4 325.27 C28.92 325.28 32.44 325.28 35.96 325.28 C39.76 325.29 43.57 325.29 47.37 325.3 C53.96 325.31 60.54 325.32 67.13 325.33 C77.54 325.34 87.95 325.36 98.36 325.38 C101.93 325.39 105.5 325.39 109.06 325.4 C110.4 325.41 110.4 325.41 111.76 325.41 C121.89 325.43 132.02 325.45 142.16 325.47 C143.08 325.47 144.01 325.47 144.96 325.47 C159.97 325.5 174.98 325.52 189.99 325.53 C205.41 325.55 220.83 325.58 236.25 325.62 C245.76 325.64 255.26 325.65 264.77 325.66 C271.28 325.66 277.8 325.67 284.31 325.69 C288.06 325.7 291.82 325.71 295.58 325.71 C299.65 325.7 303.73 325.72 307.8 325.74 C308.98 325.73 310.17 325.72 311.38 325.72 C319.29 325.78 326.58 326.52 333.04 331.44 C337.36 335.86 338.85 339.38 339.17 345.5 C339 351.95 336.5 355.89 332.36 360.63 C326.08 366.21 315.94 365.55 308.1 365.5 C306.25 365.5 306.25 365.5 304.36 365.51 C300.97 365.51 297.58 365.5 294.18 365.49 C290.51 365.48 286.84 365.49 283.17 365.49 C275.99 365.5 268.81 365.49 261.63 365.47 C253.26 365.45 244.88 365.45 236.51 365.45 C221.56 365.45 206.61 365.43 191.66 365.41 C177.17 365.39 162.69 365.37 148.2 365.37 C146.87 365.37 146.87 365.37 145.5 365.37 C143.71 365.37 141.91 365.37 140.11 365.37 C138.79 365.37 138.79 365.37 137.43 365.37 C136.1 365.36 136.1 365.36 134.75 365.36 C120.92 365.36 107.09 365.35 93.25 365.34 C88.25 365.33 83.25 365.33 78.25 365.33 C70.31 365.32 62.38 365.31 54.44 365.3 C50.82 365.29 47.19 365.29 43.57 365.29 C39.63 365.29 35.69 365.28 31.75 365.27 C30.62 365.27 29.5 365.27 28.33 365.27 C7.88 365.2 7.88 365.2 1.67 363.13 C-0.08 362.95 -1.83 362.81 -3.58 362.69 C-8.07 362.31 -12.03 361.54 -16.33 360.13 C-17.5 359.8 -17.5 359.8 -18.7 359.47 C-23.54 358.12 -27.87 356.5 -32.3 354.14 C-34.44 353.08 -36.58 352.3 -38.83 351.5 C-47.51 348.13 -55.96 342.66 -63.19 336.82 C-65.14 334.92 -65.14 334.92 -67.33 335.13 C-67.33 334.47 -67.33 333.81 -67.33 333.13 C-68.93 331.76 -70.59 330.46 -72.27 329.19 C-77.56 324.99 -81.46 320.62 -85.55 315.22 C-86.43 314.18 -86.43 314.18 -87.33 313.13 C-87.99 313.13 -88.65 313.13 -89.33 313.13 C-89.59 312.4 -89.85 311.68 -90.12 310.93 C-91.36 308.06 -92.81 305.83 -94.64 303.32 C-99.42 296.61 -103.43 290.37 -106.36 282.65 C-107.31 280.18 -108.36 277.78 -109.46 275.38 C-112.26 269.11 -113.96 262.84 -115.33 256.13 C-115.59 255 -115.85 253.88 -116.12 252.72 C-120.17 234.15 -120.18 213.56 -115.33 195.13 C-115 194.8 -114.67 194.47 -114.33 194.13 C-114.06 192.87 -113.79 191.61 -113.52 190.32 C-109.37 171.34 -99.91 153.84 -87.62 138.9 C-86.14 137.22 -86.14 137.22 -86.33 135.13 C-85.67 135.13 -85.01 135.13 -84.33 135.13 C-82.87 133.64 -82.87 133.64 -81.33 131.69 C-76.2 125.66 -70.41 119.96 -63.71 115.69 C-62.92 115.17 -62.14 114.66 -61.33 114.13 C-61.33 113.47 -61.33 112.81 -61.33 112.13 C-60.61 111.87 -59.89 111.6 -59.15 111.33 C-56.23 110.09 -53.83 108.58 -51.21 106.82 C-45.78 103.31 -40.29 100.59 -34.33 98.13 C-33.29 97.69 -32.24 97.26 -31.17 96.82 C-24.01 93.95 -16.87 91.75 -9.33 90.13 C-8.66 89.96 -7.99 89.8 -7.3 89.63 C-0.17 88.01 6.7 87.85 13.99 87.87 C15.31 87.87 16.63 87.87 17.99 87.86 C21.64 87.86 25.3 87.86 28.95 87.87 C32.93 87.87 36.9 87.86 40.88 87.86 C47.85 87.85 54.82 87.85 61.78 87.85 C72.15 87.86 82.51 87.85 92.87 87.84 C110.3 87.83 127.73 87.82 145.16 87.82 C168.97 87.82 192.77 87.81 216.58 87.79 C227.67 87.78 238.76 87.77 249.85 87.76 C250.96 87.76 252.07 87.76 253.21 87.76 C279.63 87.74 306.05 87.73 332.47 87.71 C333.63 87.71 334.78 87.71 335.98 87.71 C362.95 87.7 389.93 87.69 416.91 87.68 C426.27 87.68 435.63 87.67 445 87.67 C446.15 87.67 447.31 87.67 448.5 87.67 C474.88 87.66 501.25 87.65 527.63 87.63 C528.74 87.63 529.85 87.63 530.99 87.63 C542.05 87.62 553.12 87.61 564.18 87.6 C569.63 87.6 575.07 87.59 580.51 87.59 C581.58 87.59 582.65 87.58 583.76 87.58 C601.01 87.57 618.27 87.57 635.52 87.57 C652.85 87.57 670.18 87.56 687.51 87.54 C697.81 87.53 708.11 87.53 718.41 87.54 C725.29 87.54 732.17 87.54 739.04 87.52 C742.96 87.52 746.89 87.51 750.81 87.52 C755.03 87.53 759.25 87.52 763.47 87.51 C765.3 87.52 765.3 87.52 767.16 87.53 C773.99 87.48 779.33 86.68 785.67 84.13 C785.67 83.47 785.67 82.81 785.67 82.13 C786.39 81.94 787.11 81.76 787.86 81.57 C792.62 79.13 794.81 75.02 796.98 70.25 C798.72 62.35 797.87 56.11 793.67 49.13 C791 46.01 789.55 44.42 785.67 43.13 C785.67 42.47 785.67 41.81 785.67 41.13 C778.19 38.13 771.74 37.7 763.73 37.75 C762.44 37.75 761.15 37.74 759.82 37.74 C756.25 37.73 752.67 37.73 749.09 37.74 C745.2 37.75 741.31 37.74 737.42 37.73 C730.6 37.72 723.78 37.72 716.96 37.73 C706.82 37.74 696.68 37.74 686.53 37.73 C668.42 37.71 650.3 37.71 632.18 37.72 C616.32 37.73 600.45 37.73 584.59 37.73 C583.01 37.73 583.01 37.73 581.4 37.73 C577.13 37.72 572.86 37.72 568.58 37.72 C528.49 37.71 488.4 37.72 448.31 37.74 C412.72 37.75 377.14 37.75 341.55 37.74 C301.55 37.72 261.56 37.71 221.56 37.72 C217.3 37.72 213.03 37.73 208.76 37.73 C207.18 37.73 207.18 37.73 205.57 37.73 C189.73 37.73 173.89 37.73 158.05 37.72 C140.02 37.71 121.99 37.71 103.96 37.73 C93.88 37.74 83.8 37.74 73.72 37.73 C66.97 37.72 60.22 37.72 53.47 37.74 C49.64 37.74 45.8 37.75 41.97 37.74 C19.09 37.68 -3.25 38.69 -25.33 45.13 Z M-258.27 461.94 C-261.95 467.63 -264.18 473.28 -262.9 480.09 C-260.96 487.02 -258.17 492.75 -252.33 497.13 C-245.96 500.08 -240.64 500.56 -233.67 500.51 C-232.62 500.51 -231.57 500.52 -230.49 500.52 C-226.98 500.53 -223.48 500.52 -219.97 500.51 C-217.45 500.52 -214.94 500.52 -212.42 500.53 C-207 500.54 -201.58 500.54 -196.16 500.54 C-188.32 500.53 -180.48 500.54 -172.64 500.56 C-159.9 500.59 -147.16 500.61 -134.42 500.62 C-133.28 500.62 -133.28 500.62 -132.11 500.62 C-126.7 500.62 -121.3 500.62 -115.89 500.63 C-109.72 500.63 -103.55 500.63 -97.37 500.64 C-96.61 500.64 -95.85 500.64 -95.07 500.64 C-82.38 500.65 -69.68 500.67 -56.99 500.7 C-49.17 500.72 -41.35 500.72 -33.53 500.72 C-27.54 500.71 -21.54 500.72 -15.55 500.74 C-13.09 500.74 -10.64 500.74 -8.18 500.73 C-4.83 500.72 -1.47 500.73 1.88 500.75 C2.85 500.74 3.82 500.74 4.82 500.73 C10.97 500.78 15.96 501.88 21.67 504.13 C22.66 504.46 23.65 504.79 24.67 505.13 C24.67 505.79 24.67 506.45 24.67 507.13 C25.33 507.13 25.99 507.13 26.67 507.13 C31.73 521.16 31.73 521.16 29.04 527.75 C26.7 532.48 24.01 535.93 19.23 538.38 C13.36 540.1 7.7 540.28 1.63 540.29 C0.73 540.29 -0.16 540.3 -1.09 540.3 C-4.1 540.32 -7.11 540.32 -10.12 540.33 C-12.27 540.34 -14.43 540.35 -16.59 540.36 C-22.45 540.39 -28.3 540.41 -34.16 540.43 C-40.28 540.45 -46.41 540.48 -52.53 540.51 C-64.12 540.56 -75.71 540.6 -87.3 540.65 C-100.5 540.69 -113.7 540.75 -126.89 540.8 C-154.04 540.92 -181.18 541.03 -208.33 541.13 C-208.06 541.87 -207.78 542.61 -207.5 543.37 C-207.14 544.35 -206.78 545.33 -206.41 546.34 C-206.05 547.31 -205.69 548.28 -205.33 549.28 C-204.01 553.05 -203.04 556.86 -202.14 560.75 C-201.43 565.3 -201.43 565.3 -199.33 569.13 C-197.64 575.78 -196.76 582.65 -195.8 589.44 C-195.47 592.09 -195.47 592.09 -194.33 594.13 C-194.12 596.57 -193.96 598.99 -193.83 601.44 C-193.61 606.42 -193.61 606.42 -192.82 611.33 C-192.16 615.09 -192.17 618.82 -192.16 622.63 C-192.16 623.45 -192.15 624.28 -192.15 625.13 C-192.14 627.79 -192.14 630.46 -192.14 633.13 C-192.14 634.03 -192.14 634.94 -192.14 635.87 C-192.17 653.9 -193.16 671.35 -196.89 689.02 C-197.39 691.4 -197.86 693.78 -198.34 696.16 C-198.69 697.88 -199.04 699.6 -199.39 701.32 C-199.56 702.12 -199.72 702.92 -199.88 703.75 C-200.72 707.75 -201.76 711.34 -203.33 715.13 C-203.84 717.2 -204.32 719.29 -204.77 721.38 C-205.84 726.18 -207.1 730.79 -208.78 735.42 C-209.43 737.15 -209.43 737.15 -209.33 739.13 C-17.27 739.13 174.79 739.13 372.67 739.13 C372.67 713.06 372.67 686.99 372.67 660.13 C361.3 660.1 349.92 660.08 338.2 660.05 C331 660.02 323.79 660 316.59 659.97 C305.15 659.92 293.72 659.87 282.28 659.86 C273.95 659.84 265.62 659.82 257.29 659.77 C252.88 659.75 248.48 659.73 244.07 659.74 C239.91 659.74 235.76 659.72 231.61 659.69 C230.09 659.68 228.57 659.68 227.05 659.68 C209.86 659.74 209.86 659.74 203.04 653.68 C198.91 649 198.12 643.66 198.32 637.62 C199.07 632.32 201.29 628.51 205.04 624.75 C210.17 621.58 214.79 620.88 220.76 620.87 C221.8 620.87 221.8 620.87 222.86 620.86 C225.18 620.85 227.5 620.86 229.83 620.86 C231.51 620.86 233.19 620.85 234.87 620.85 C239.5 620.83 244.12 620.83 248.74 620.84 C253.73 620.84 258.71 620.83 263.7 620.82 C273.47 620.8 283.23 620.79 293 620.79 C300.94 620.79 308.88 620.79 316.82 620.78 C339.32 620.76 361.82 620.76 384.32 620.76 C385.54 620.76 386.75 620.76 388 620.76 C389.82 620.76 389.82 620.76 391.68 620.76 C411.37 620.76 431.06 620.74 450.75 620.71 C470.97 620.68 491.18 620.67 511.4 620.67 C522.75 620.67 534.1 620.67 545.45 620.64 C555.11 620.63 564.77 620.62 574.44 620.63 C579.37 620.64 584.3 620.64 589.23 620.62 C593.74 620.61 598.26 620.61 602.77 620.63 C604.4 620.63 606.03 620.63 607.67 620.62 C617.26 620.56 624.42 620.71 632.04 627.13 C635.87 631.84 635.97 635.99 635.99 641.94 C636 642.82 636.01 643.71 636.02 644.63 C636.05 647.56 636.07 650.49 636.08 653.42 C636.1 655.46 636.12 657.49 636.14 659.53 C636.19 664.88 636.23 670.23 636.27 675.59 C636.31 681.05 636.36 686.51 636.41 691.98 C636.51 702.69 636.59 713.41 636.67 724.13 C637.99 724.13 639.31 724.13 640.67 724.13 C640.67 723.47 640.67 722.81 640.67 722.13 C641.37 721.91 642.07 721.69 642.79 721.47 C646.38 719.8 648.96 717.4 651.79 714.69 C652.32 714.2 652.84 713.71 653.38 713.2 C654.82 711.86 656.25 710.49 657.67 709.13 C658.29 708.56 658.9 707.99 659.54 707.4 C660.89 706.16 660.89 706.16 660.67 704.13 C661.33 704.13 661.99 704.13 662.67 704.13 C664.4 701.76 666.02 699.4 667.61 696.94 C668.05 696.27 668.49 695.59 668.95 694.9 C673.59 687.81 676.89 681.14 679.67 673.13 C680.07 672.08 680.07 672.08 680.49 671.01 C685.98 656.24 686.68 640.87 684.36 625.44 C684.24 624.66 684.12 623.87 684 623.06 C681.25 606.37 673.48 589.17 662.67 576.13 C662.01 576.13 661.35 576.13 660.67 576.13 C660.3 575.27 660.3 575.27 659.93 574.4 C656.18 567.63 649.13 562.21 642.67 558.13 C642.01 558.13 641.35 558.13 640.67 558.13 C640.67 557.47 640.67 556.81 640.67 556.13 C632.79 552.09 624.96 548.26 616.67 545.13 C615.96 544.8 615.25 544.48 614.52 544.15 C603.75 540.29 592.69 540.84 581.42 540.86 C579.34 540.86 577.26 540.85 575.18 540.85 C569.48 540.84 563.79 540.84 558.09 540.84 C551.94 540.84 545.79 540.83 539.63 540.82 C528.98 540.8 518.33 540.8 507.67 540.79 C492.26 540.79 476.85 540.77 461.44 540.75 C454.26 540.74 447.07 540.73 439.89 540.72 C439.17 540.72 438.45 540.71 437.71 540.71 C420.6 540.69 403.5 540.67 386.39 540.66 C385.65 540.66 384.9 540.66 384.13 540.66 C371.99 540.65 359.84 540.64 347.7 540.63 C336.32 540.62 324.94 540.61 313.55 540.6 C312.8 540.6 312.06 540.59 311.29 540.59 C294.2 540.58 277.12 540.56 260.04 540.54 C258.96 540.54 258.96 540.54 257.87 540.54 C250.7 540.53 243.53 540.52 236.37 540.51 C220.97 540.48 205.58 540.47 190.18 540.46 C178.96 540.46 167.74 540.45 156.53 540.43 C150.45 540.42 144.37 540.41 138.29 540.42 C132.73 540.42 127.17 540.41 121.6 540.4 C119.59 540.39 117.57 540.39 115.56 540.4 C112.83 540.4 110.09 540.39 107.36 540.38 C106.57 540.39 105.79 540.39 104.98 540.4 C97.24 540.34 91.16 538.37 84.67 534.13 C80.39 529.56 79.19 524.6 79.36 518.47 C80.09 512.96 82.64 509.21 86.42 505.25 C92.6 501.21 99.07 500.83 106.24 500.88 C107.07 500.87 107.9 500.87 108.76 500.87 C111.53 500.86 114.3 500.87 117.08 500.87 C119.09 500.87 121.1 500.87 123.11 500.86 C128.64 500.86 134.16 500.86 139.69 500.87 C145.65 500.87 151.61 500.86 157.57 500.86 C168.57 500.85 179.57 500.85 190.58 500.86 C200.75 500.86 210.93 500.86 221.1 500.86 C222.12 500.86 222.12 500.86 223.15 500.86 C225.89 500.86 228.63 500.86 231.38 500.86 C257.1 500.85 282.83 500.86 308.56 500.87 C331.38 500.88 354.2 500.88 377.02 500.87 C402.68 500.86 428.34 500.85 454 500.86 C456.75 500.86 459.49 500.86 462.23 500.86 C463.24 500.86 463.24 500.86 464.28 500.86 C474.43 500.86 484.58 500.86 494.74 500.86 C506.3 500.85 517.87 500.85 529.44 500.86 C535.33 500.87 541.23 500.87 547.12 500.86 C552.53 500.86 557.95 500.86 563.36 500.87 C565.3 500.87 567.24 500.87 569.18 500.87 C579.51 500.84 589.73 501.16 600.03 502.03 C600.98 502.1 601.93 502.18 602.91 502.26 C610.55 502.97 617.39 504.66 624.67 507.13 C625.72 507.41 626.76 507.7 627.84 507.99 C643.68 512.36 658.31 520.87 671.11 531.06 C672.63 532.32 672.63 532.32 674.67 532.13 C674.67 532.79 674.67 533.45 674.67 534.13 C676.22 535.66 676.22 535.66 678.23 537.25 C681.99 540.42 685.12 543.82 688.22 547.62 C688.7 548.12 689.18 548.62 689.67 549.13 C690.33 549.13 690.99 549.13 691.67 549.13 C691.91 549.68 692.16 550.23 692.41 550.79 C693.94 553.62 695.81 555.98 697.79 558.5 C704.61 567.41 710.25 576.85 713.8 587.53 C714.69 590.2 715.72 592.78 716.79 595.38 C719.91 603.15 721.38 610.88 722.67 619.13 C722.93 620.49 722.93 620.49 723.19 621.89 C723.98 627.21 723.86 632.53 723.85 637.9 C723.86 639.92 723.88 641.94 723.89 643.97 C723.9 651.05 723.49 657.29 721.67 664.13 C721.38 666.35 721.18 668.55 721.01 670.79 C719.11 683.73 712.84 696.4 706.57 707.72 C704.43 711.21 704.43 711.21 703.67 715.13 C703.01 715.13 702.35 715.13 701.67 715.13 C701.67 716.12 701.67 717.11 701.67 718.13 C701.01 718.13 700.35 718.13 699.67 718.13 C699.09 719.2 698.51 720.27 697.92 721.38 C696.18 724.45 694.21 726.67 691.67 729.13 C691.67 729.79 691.67 730.45 691.67 731.13 C691.01 731.13 690.35 731.13 689.67 731.13 C688.14 732.68 688.14 732.68 686.54 734.69 C683.38 738.45 679.98 741.58 676.17 744.68 C675.68 745.16 675.18 745.64 674.67 746.13 C674.67 746.79 674.67 747.45 674.67 748.13 C673.89 748.48 673.89 748.48 673.1 748.83 C669.81 750.58 666.8 752.71 663.73 754.82 C655.45 760.42 646.99 765.41 637.67 769.13 C636.45 770.13 636.45 770.13 636.55 772.11 C636.55 772.98 636.55 773.84 636.56 774.74 C636.56 775.72 636.56 776.7 636.56 777.71 C636.56 778.78 636.57 779.85 636.57 780.94 C636.57 782.03 636.57 783.12 636.58 784.24 C636.58 787.72 636.59 791.21 636.61 794.69 C636.61 797.05 636.62 799.4 636.62 801.76 C636.63 807.55 636.65 813.34 636.67 819.13 C654.22 816.7 670.41 807.79 685.67 799.13 C685.67 798.47 685.67 797.81 685.67 797.13 C686.66 797.13 687.65 797.13 688.67 797.13 C688.67 796.47 688.67 795.81 688.67 795.13 C689.41 794.86 690.15 794.59 690.91 794.32 C693.61 793.15 695.51 791.9 697.79 790.07 C698.56 789.45 699.32 788.84 700.11 788.21 C700.96 787.52 701.8 786.83 702.67 786.13 C703.67 785.34 704.67 784.55 705.7 783.74 C706.7 782.94 707.7 782.14 708.73 781.32 C709.67 780.57 710.61 779.82 711.58 779.05 C712.27 778.41 712.96 777.78 713.67 777.13 C713.67 776.47 713.67 775.81 713.67 775.13 C714.26 774.86 714.86 774.6 715.47 774.33 C717.75 773.08 719.14 771.84 720.9 769.94 C721.76 769.02 721.76 769.02 722.64 768.07 C723.23 767.43 723.82 766.79 724.42 766.13 C725.02 765.49 725.62 764.84 726.24 764.18 C729.51 761.12 729.51 761.12 730.67 757.13 C731.33 757.13 731.99 757.13 732.67 757.13 C734.99 753.91 734.99 753.91 735.67 750.13 C736.33 750.13 736.99 750.13 737.67 750.13 C739.29 747.99 739.29 747.99 740.92 745.25 C741.54 744.24 742.17 743.23 742.81 742.19 C743.42 741.18 744.04 740.17 744.67 739.13 C745.44 737.91 745.44 737.91 746.22 736.66 C753.03 725.65 759.26 713.77 762.67 701.25 C763.76 697.31 764.87 693.42 766.23 689.57 C776.39 659.44 775.68 623.42 766.67 593.13 C766.33 591.76 765.99 590.38 765.67 589 C764.8 585.52 763.81 582.07 762.79 578.63 C762.49 577.59 762.18 576.54 761.86 575.47 C760.44 571.5 758.61 567.87 756.67 564.13 C756.02 562.82 755.38 561.51 754.74 560.2 C751.02 552.63 747.16 545.27 742.67 538.13 C742.2 537.34 741.74 536.55 741.26 535.74 C740.82 535 740.38 534.26 739.92 533.5 C739.53 532.85 739.15 532.2 738.75 531.53 C738.39 531.06 738.04 530.6 737.67 530.13 C737.01 530.13 736.35 530.13 735.67 530.13 C735.25 529.24 735.25 529.24 734.82 528.34 C731.45 521.85 726.31 516.49 721.42 511.13 C720.89 510.54 720.36 509.95 719.81 509.34 C718.47 507.9 717.07 506.51 715.67 505.13 C715.01 505.13 714.35 505.13 713.67 505.13 C713.67 504.47 713.67 503.81 713.67 503.13 C712.1 501.69 710.46 500.33 708.79 499 C707.3 497.8 707.3 497.8 705.77 496.58 C704.75 495.77 703.72 494.96 702.67 494.13 C700.86 492.67 699.04 491.21 697.23 489.75 C695.72 488.54 694.2 487.33 692.67 486.13 C691.98 485.56 691.29 484.99 690.57 484.4 C688.64 482.85 688.64 482.85 685.67 483.13 C685.67 482.47 685.67 481.81 685.67 481.13 C669.17 471.93 652.96 464.05 634.67 459.13 C633.74 458.85 632.82 458.57 631.86 458.28 C625.26 456.33 618.68 455.35 611.86 454.56 C608.67 454.13 608.67 454.13 605.67 453.13 C603.73 453.03 601.79 453 599.85 453 C598.63 452.99 597.4 452.99 596.14 452.99 C594.77 452.99 593.41 452.99 592.04 452.99 C590.59 452.99 589.13 452.98 587.68 452.98 C583.67 452.97 579.65 452.97 575.63 452.97 C571.27 452.97 566.91 452.96 562.55 452.95 C553.89 452.94 545.23 452.93 536.57 452.93 C526.2 452.92 515.84 452.91 505.47 452.89 C479.22 452.86 452.96 452.84 426.71 452.82 C419.6 452.82 412.49 452.81 405.39 452.81 C361.28 452.78 317.18 452.75 273.07 452.73 C262.85 452.73 252.63 452.73 242.41 452.72 C241.14 452.72 239.87 452.72 238.56 452.72 C197.37 452.7 156.19 452.67 115 452.62 C72.68 452.56 30.36 452.53 -11.97 452.52 C-17.94 452.52 -23.92 452.52 -29.89 452.52 C-31.07 452.52 -32.24 452.52 -33.45 452.52 C-52.4 452.51 -71.34 452.49 -90.28 452.46 C-109.32 452.42 -128.35 452.41 -147.38 452.43 C-158.7 452.43 -170.01 452.42 -181.32 452.39 C-188.88 452.37 -196.43 452.37 -203.99 452.39 C-208.29 452.4 -212.6 452.4 -216.9 452.37 C-220.82 452.35 -224.74 452.35 -228.66 452.38 C-230.07 452.38 -231.48 452.38 -232.88 452.36 C-243.25 452.25 -250.99 454.22 -258.27 461.94 Z M411.67 661.13 C411.57 662.76 411.54 664.39 411.53 666.02 C411.53 667.08 411.52 668.15 411.52 669.25 C411.52 670.43 411.52 671.62 411.52 672.84 C411.51 674.09 411.51 675.33 411.5 676.62 C411.49 680.1 411.48 683.58 411.48 687.06 C411.47 690.8 411.46 694.55 411.45 698.29 C411.43 707.35 411.41 716.4 411.4 725.46 C411.4 728.01 411.39 730.57 411.39 733.12 C411.36 748.98 411.34 764.84 411.33 780.69 C411.33 784.37 411.32 788.05 411.32 791.72 C411.32 792.63 411.32 793.55 411.32 794.49 C411.3 809.29 411.27 824.1 411.23 838.91 C411.19 854.09 411.16 869.28 411.16 884.47 C411.16 893 411.14 901.53 411.11 910.07 C411.08 917.33 411.07 924.6 411.08 931.86 C411.09 935.57 411.08 939.28 411.06 942.99 C411.03 947 411.05 951.02 411.06 955.04 C411.05 956.21 411.03 957.39 411.02 958.61 C410.94 964.79 410.94 964.79 414.04 969.9 C416.6 971.38 416.6 971.38 419.4 970.8 C423.97 968.46 427.91 965.49 431.98 962.38 C433.6 961.15 435.22 959.93 436.85 958.71 C437.64 958.11 438.43 957.51 439.24 956.9 C442.42 954.58 445.71 952.47 449.04 950.38 C449.58 949.97 450.12 949.55 450.67 949.13 C450.67 948.47 450.67 947.81 450.67 947.13 C451.37 946.89 452.08 946.65 452.8 946.41 C456.18 944.9 458.66 942.95 461.54 940.63 C477.72 927.89 491.47 918.73 512.67 920.13 C524.47 921.89 534.42 929.61 543.48 936.93 C546.23 939.37 546.23 939.37 549.67 940.13 C549.67 940.79 549.67 941.45 549.67 942.13 C552.89 944.44 552.89 944.44 556.67 945.13 C556.67 945.79 556.67 946.45 556.67 947.13 C558.1 948.41 558.1 948.41 560 949.67 C560.71 950.16 561.42 950.66 562.16 951.17 C562.92 951.69 563.69 952.21 564.48 952.75 C566.04 953.83 567.6 954.91 569.16 955.99 C569.93 956.53 570.7 957.06 571.49 957.6 C575.28 960.25 578.97 963.02 582.67 965.8 C584.55 967.31 584.55 967.31 586.67 967.13 C586.67 967.79 586.67 968.45 586.67 969.13 C589.96 970.41 589.96 970.41 593.67 971.13 C595.97 970.1 595.97 970.1 597.67 968.13 C598.26 965.72 598.26 965.72 598.16 962.95 C598.17 961.33 598.17 961.33 598.19 959.68 C598.17 958.49 598.16 957.3 598.15 956.07 C598.16 954.18 598.16 954.18 598.16 952.25 C598.17 948.75 598.15 945.25 598.13 941.74 C598.12 937.96 598.12 934.19 598.13 930.41 C598.13 923.86 598.12 917.32 598.09 910.77 C598.06 901.31 598.05 891.84 598.04 882.38 C598.04 867.02 598.01 851.66 597.97 836.31 C597.93 821.39 597.91 806.47 597.89 791.55 C597.89 790.64 597.89 789.72 597.89 788.77 C597.88 784.16 597.88 779.55 597.87 774.94 C597.83 736.67 597.76 698.4 597.67 660.13 C573.57 660.1 549.46 660.09 525.36 660.08 C514.17 660.07 502.98 660.06 491.79 660.05 C482.04 660.04 472.29 660.04 462.53 660.03 C457.37 660.03 452.2 660.03 447.04 660.02 C442.18 660.02 437.32 660.01 432.47 660.01 C430.68 660.01 428.89 660.01 427.1 660.01 C424.67 660 422.24 660 419.81 660.01 C419.1 660 418.38 660 417.64 660 C414.37 659.73 414.37 659.73 411.67 661.13 Z M-258.63 789.66 C-261.95 794.47 -263.71 799.25 -263.27 805.13 C-261.88 812.45 -259.13 818.12 -253.31 822.84 C-246.98 826.96 -242.33 827.56 -234.94 827.5 C-233.89 827.5 -232.84 827.5 -231.76 827.51 C-228.22 827.52 -224.68 827.5 -221.15 827.49 C-218.59 827.49 -216.04 827.49 -213.48 827.5 C-207.92 827.5 -202.36 827.5 -196.8 827.49 C-188.53 827.47 -180.26 827.47 -171.98 827.47 C-158.07 827.47 -144.16 827.46 -130.24 827.44 C-116.47 827.43 -102.69 827.42 -88.91 827.41 C-87.63 827.41 -87.63 827.41 -86.32 827.41 C-81.97 827.41 -77.62 827.41 -73.27 827.41 C-42.46 827.4 -11.65 827.38 19.16 827.35 C49.09 827.33 79.03 827.31 108.96 827.29 C109.88 827.29 110.81 827.29 111.76 827.29 C121.02 827.29 130.29 827.28 139.55 827.28 C158.42 827.27 177.3 827.26 196.17 827.25 C197.47 827.25 197.47 827.25 198.8 827.25 C256.76 827.23 314.71 827.18 372.67 827.13 C372.67 811.62 372.67 796.11 372.67 780.13 C313.96 780.08 255.25 780.03 196.54 780 C195.67 780 194.8 780 193.91 780 C175.03 779.99 156.15 779.98 137.27 779.97 C128.01 779.97 118.76 779.97 109.5 779.96 C108.58 779.96 107.66 779.96 106.71 779.96 C76.84 779.95 46.97 779.93 17.1 779.9 C-13.59 779.87 -44.28 779.85 -74.98 779.85 C-79.31 779.85 -83.64 779.84 -87.98 779.84 C-88.83 779.84 -89.68 779.84 -90.56 779.84 C-104.3 779.84 -118.03 779.82 -131.77 779.81 C-145.58 779.79 -159.38 779.78 -173.19 779.79 C-181.39 779.79 -189.6 779.78 -197.81 779.77 C-203.93 779.75 -210.05 779.76 -216.17 779.76 C-218.65 779.77 -221.13 779.76 -223.62 779.75 C-226.98 779.74 -230.34 779.75 -233.71 779.76 C-235.16 779.75 -235.16 779.75 -236.65 779.73 C-246.2 779.81 -252.44 782.15 -258.63 789.66 Z M636.67 868.13 C636.58 869.57 636.55 871.02 636.56 872.46 C636.56 873.38 636.56 874.31 636.56 875.25 C636.56 876.26 636.57 877.26 636.57 878.29 C636.57 879.31 636.57 880.33 636.58 881.38 C636.58 884.65 636.59 887.92 636.61 891.19 C636.61 893.4 636.62 895.61 636.62 897.82 C636.63 903.26 636.65 908.69 636.67 914.13 C673.13 914.2 709.59 914.25 746.05 914.28 C750.35 914.28 754.66 914.29 758.96 914.29 C759.82 914.29 760.67 914.29 761.56 914.29 C775.43 914.31 789.31 914.33 803.18 914.36 C817.42 914.39 831.66 914.4 845.89 914.41 C854.68 914.41 863.46 914.43 872.25 914.45 C878.27 914.47 884.3 914.47 890.32 914.47 C893.8 914.47 897.27 914.47 900.75 914.49 C904.52 914.5 908.28 914.5 912.05 914.49 C913.15 914.5 914.25 914.51 915.38 914.51 C922.42 914.47 926.82 913.57 932.29 908.88 C937.19 903.21 940.8 896.97 940.54 889.32 C939.59 883.42 937.37 877.03 932.67 873.13 C932.01 873.13 931.35 873.13 930.67 873.13 C930.67 872.47 930.67 871.81 930.67 871.13 C923.89 865.83 914.25 866.98 906.08 867 C904.93 867 903.79 867 902.6 867 C898.76 866.99 894.92 867 891.07 867 C888.32 867 885.56 867 882.8 866.99 C876.09 866.99 869.39 866.99 862.68 866.99 C857.23 866.99 851.79 866.99 846.34 866.99 C845.56 866.99 844.79 866.99 843.99 866.99 C842.41 866.99 840.84 866.99 839.26 866.99 C824.5 866.99 809.73 866.99 794.97 867 C782.29 867 769.61 867 756.93 867 C742.21 866.99 727.49 866.99 712.77 866.99 C711.2 866.99 709.63 866.99 708.06 866.99 C707.29 866.99 706.52 866.99 705.73 866.99 C700.28 867 694.83 866.99 689.39 866.99 C682.76 866.99 676.13 866.99 669.5 866.99 C666.12 867 662.73 867 659.35 866.99 C655.69 866.99 652.03 867 648.37 867 C647.28 867 646.2 867 645.09 866.99 C643.63 867 643.63 867 642.14 867 C640.87 867 640.87 867 639.58 867 C637.66 866.92 637.66 866.92 636.67 868.13 Z M24.14 867.51 C23.29 867.54 22.44 867.58 21.57 867.61 C13.62 867.99 6.28 869.91 -1.33 872.13 C-2.85 872.46 -4.37 872.77 -5.89 873.07 C-21.94 876.54 -36.81 883.71 -51.33 891.13 C-51.33 891.79 -51.33 892.45 -51.33 893.13 C-52.16 893.27 -52.16 893.27 -53 893.42 C-57.91 894.91 -62.09 898.3 -66.33 901.13 C-67.08 901.62 -67.83 902.12 -68.6 902.63 C-70.22 903.74 -71.78 904.92 -73.33 906.13 C-73.33 906.79 -73.33 907.45 -73.33 908.13 C-74.01 908.33 -74.69 908.54 -75.39 908.75 C-79.25 910.56 -82.41 913.03 -85.33 916.13 C-85.33 916.79 -85.33 917.45 -85.33 918.13 C-86.32 918.46 -87.31 918.79 -88.33 919.13 C-88.33 919.79 -88.33 920.45 -88.33 921.13 C-88.99 921.13 -89.65 921.13 -90.33 921.13 C-90.33 921.79 -90.33 922.45 -90.33 923.13 C-91.32 923.46 -92.31 923.79 -93.33 924.13 C-93.33 924.79 -93.33 925.45 -93.33 926.13 C-93.99 926.13 -94.65 926.13 -95.33 926.13 C-96.79 927.72 -98.17 929.38 -99.52 931.07 C-100.31 932.06 -101.11 933.06 -101.93 934.09 C-102.72 935.09 -103.51 936.09 -104.33 937.13 C-105.04 938.01 -105.75 938.89 -106.48 939.79 C-109.95 943.54 -109.95 943.54 -111.33 948.13 C-111.99 948.13 -112.65 948.13 -113.33 948.13 C-113.87 949.08 -114.4 950.03 -114.96 951 C-116.16 953.13 -117.39 955.22 -118.69 957.29 C-122.57 963.52 -125.69 969.95 -128.72 976.61 C-129.74 978.83 -130.8 981.04 -131.92 983.21 C-136.18 992 -138.11 1001.94 -140.4 1011.4 C-141 1013.82 -141.66 1016.23 -142.38 1018.62 C-150.4 1048.11 -147.09 1086.71 -135.26 1114.85 C-134.34 1117.1 -133.57 1119.37 -132.83 1121.69 C-130.98 1127.37 -128.72 1132.82 -125.64 1137.94 C-124.38 1140.04 -123.77 1141.73 -123.33 1144.13 C-122.67 1144.13 -122.01 1144.13 -121.33 1144.13 C-121.08 1144.79 -120.84 1145.45 -120.58 1146.13 C-119.01 1149.89 -117.19 1153.5 -115.33 1157.13 C-114.67 1157.13 -114.01 1157.13 -113.33 1157.13 C-113.06 1157.85 -112.79 1158.57 -112.52 1159.32 C-111.33 1162.13 -110.06 1164.61 -108.33 1167.13 C-107.67 1167.13 -107.01 1167.13 -106.33 1167.13 C-106.08 1167.66 -105.84 1168.2 -105.58 1168.75 C-104.02 1171.71 -102.3 1174.42 -100.33 1177.13 C-99.67 1177.13 -99.01 1177.13 -98.33 1177.13 C-98.33 1177.79 -98.33 1178.45 -98.33 1179.13 C-97.67 1179.13 -97.01 1179.13 -96.33 1179.13 C-95.84 1180.61 -95.84 1180.61 -95.33 1182.13 C-94.67 1182.13 -94.01 1182.13 -93.33 1182.13 C-93.12 1182.66 -92.92 1183.2 -92.71 1183.75 C-90.8 1187.05 -88.28 1189.72 -85.33 1192.13 C-84.67 1192.13 -84.01 1192.13 -83.33 1192.13 C-83.33 1192.79 -83.33 1193.45 -83.33 1194.13 C-81.16 1196.17 -81.16 1196.17 -78.46 1198.25 C-77.55 1198.98 -76.65 1199.7 -75.71 1200.45 C-73.54 1202.32 -73.54 1202.32 -71.33 1202.13 C-71.33 1202.79 -71.33 1203.45 -71.33 1204.13 C-69.38 1205.72 -69.38 1205.72 -66.96 1207.25 C-65.74 1208.06 -65.74 1208.06 -64.49 1208.89 C-62.46 1210.29 -62.46 1210.29 -60.33 1210.13 C-60.33 1210.79 -60.33 1211.45 -60.33 1212.13 C-58.9 1212.97 -57.46 1213.8 -56.02 1214.63 C-54.82 1215.32 -54.82 1215.32 -53.59 1216.03 C-51.3 1217.35 -51.3 1217.35 -48.33 1217.13 C-48.33 1217.79 -48.33 1218.45 -48.33 1219.13 C-27.85 1229.01 -7.76 1236.76 14.87 1239.75 C16.88 1240.02 18.89 1240.31 20.89 1240.62 C30.07 1241.97 39.04 1242.41 48.32 1242.38 C49.85 1242.39 51.38 1242.39 52.9 1242.4 C57.07 1242.4 61.23 1242.4 65.4 1242.4 C69.94 1242.39 74.48 1242.4 79.02 1242.41 C86.97 1242.42 94.93 1242.42 102.88 1242.42 C114.7 1242.42 126.53 1242.43 138.35 1242.44 C160.69 1242.45 183.04 1242.46 205.38 1242.46 C222.64 1242.46 239.89 1242.47 257.14 1242.47 C262.1 1242.47 267.07 1242.48 272.04 1242.48 C273.89 1242.48 273.89 1242.48 275.78 1242.48 C310.5 1242.49 345.22 1242.5 379.94 1242.5 C381.25 1242.5 382.56 1242.5 383.91 1242.5 C390.54 1242.5 397.17 1242.5 403.81 1242.5 C405.12 1242.5 406.44 1242.5 407.8 1242.5 C410.46 1242.5 413.12 1242.5 415.79 1242.5 C457.26 1242.5 498.73 1242.51 540.2 1242.54 C586.79 1242.57 633.38 1242.59 679.98 1242.59 C684.94 1242.59 689.91 1242.59 694.87 1242.59 C696.09 1242.59 697.32 1242.58 698.58 1242.58 C718.27 1242.58 737.96 1242.6 757.65 1242.61 C777.42 1242.63 797.2 1242.63 816.97 1242.62 C828.73 1242.61 840.48 1242.62 852.23 1242.64 C860.08 1242.65 867.93 1242.65 875.77 1242.63 C880.25 1242.62 884.72 1242.62 889.19 1242.64 C893.26 1242.65 897.33 1242.65 901.41 1242.63 C902.87 1242.63 904.33 1242.63 905.79 1242.64 C916.58 1242.72 926.04 1241.53 934.2 1233.89 C938.39 1228.86 941.17 1221.73 940.67 1215.13 C939 1208.55 935.96 1202.49 930.67 1198.13 C924.21 1194.5 918.36 1192.98 910.98 1193.01 C909.79 1193 909.79 1193 908.57 1193 C905.89 1193 903.2 1193.01 900.52 1193.01 C898.58 1193.01 896.65 1193.01 894.71 1193.01 C890.49 1193.01 886.27 1193.01 882.05 1193.01 C875.19 1193.02 868.32 1193.02 861.46 1193.02 C852.78 1193.02 844.11 1193.02 835.44 1193.02 C818.39 1193.02 801.35 1193.02 784.3 1193 C782.29 1193 780.29 1193 778.28 1193 C773.54 1192.99 768.8 1192.99 764.07 1192.99 C748.74 1192.97 733.41 1192.96 718.08 1192.95 C717.38 1192.95 716.68 1192.95 715.95 1192.95 C693.23 1192.94 670.51 1192.94 647.79 1192.95 C623.78 1192.97 599.76 1192.95 575.75 1192.92 C561.36 1192.9 546.98 1192.9 532.59 1192.92 C522.73 1192.94 512.88 1192.93 503.02 1192.9 C497.33 1192.89 491.64 1192.88 485.95 1192.91 C480.74 1192.93 475.53 1192.92 470.33 1192.89 C468.44 1192.88 466.56 1192.89 464.67 1192.9 C447.65 1193.03 447.65 1193.03 442 1187.79 C437.97 1182.76 435.92 1177.96 436.2 1171.44 C437.05 1167.22 439.13 1163.58 441.67 1160.13 C442.33 1159.8 442.99 1159.47 443.67 1159.13 C443.67 1158.47 443.67 1157.81 443.67 1157.13 C444.27 1156.98 444.87 1156.84 445.48 1156.69 C447.23 1156.24 448.96 1155.7 450.67 1155.13 C453.08 1155.03 455.46 1154.99 457.86 1154.99 C458.6 1154.99 459.35 1154.98 460.11 1154.98 C462.61 1154.97 465.12 1154.97 467.62 1154.97 C469.43 1154.96 471.23 1154.96 473.04 1154.95 C478.01 1154.94 482.99 1154.93 487.96 1154.93 C493.32 1154.92 498.68 1154.91 504.04 1154.89 C513.33 1154.87 522.63 1154.85 531.92 1154.84 C545.35 1154.81 558.79 1154.79 572.22 1154.76 C594.01 1154.71 615.81 1154.67 637.6 1154.62 C658.78 1154.59 679.95 1154.54 701.13 1154.5 C702.43 1154.5 703.74 1154.49 705.08 1154.49 C711.63 1154.48 718.17 1154.46 724.71 1154.45 C779.03 1154.34 833.35 1154.23 887.67 1154.13 C887.47 1153.53 887.26 1152.93 887.05 1152.31 C886.78 1151.51 886.51 1150.71 886.24 1149.89 C885.84 1148.71 885.84 1148.71 885.43 1147.51 C884.31 1144.01 883.45 1140.46 882.61 1136.88 C881.4 1131.67 881.4 1131.67 879.64 1126.64 C878.33 1123.26 877.77 1119.81 877.17 1116.25 C876.28 1111.09 875.11 1106.17 873.67 1101.13 C873.44 1099.53 873.24 1097.92 873.11 1096.32 C872.84 1093.1 872.84 1093.1 871.67 1090.13 C871.46 1087.54 871.3 1084.97 871.17 1082.38 C871.1 1080.97 871.03 1079.55 870.95 1078.14 C870.92 1077.52 870.89 1076.89 870.86 1076.25 C870.7 1074.02 870.7 1074.02 870.16 1071.45 C869.54 1067.26 869.53 1063.19 869.54 1058.97 C869.54 1058.1 869.53 1057.23 869.53 1056.34 C869.53 1054.51 869.54 1052.69 869.54 1050.86 C869.54 1048.07 869.54 1045.28 869.53 1042.49 C869.53 1040.71 869.53 1038.93 869.54 1037.15 C869.53 1036.32 869.53 1035.49 869.53 1034.64 C869.55 1030.65 869.75 1027.03 870.67 1023.13 C870.92 1019.88 871.11 1016.64 871.28 1013.39 C871.57 1008.33 871.57 1008.33 872.67 1006.13 C873.01 1004.13 873.32 1002.13 873.61 1000.13 C876.55 980.36 876.55 980.36 880.67 972.13 C881.35 969.8 882.02 967.47 882.67 965.13 C883.64 962.12 884.65 959.12 885.67 956.13 C883.7 954.16 880.67 955 878.05 955 C877.09 955 876.13 955 875.13 955.01 C874.12 955.01 873.11 955.01 872.06 955 C868.64 955 865.21 955.01 861.79 955.01 C859.35 955.01 856.9 955.01 854.46 955.01 C849.19 955.01 843.91 955.02 838.64 955.02 C831.01 955.03 823.38 955.03 815.76 955.03 C803.38 955.04 791.01 955.04 778.64 955.05 C766.62 955.06 754.59 955.07 742.57 955.07 C741.83 955.07 741.09 955.07 740.33 955.07 C736.61 955.07 732.9 955.08 729.18 955.08 C698.35 955.09 667.51 955.11 636.67 955.13 C636.64 956.07 636.64 956.07 636.61 957.04 C636.52 959.92 636.41 962.81 636.31 965.69 C636.28 966.69 636.25 967.68 636.22 968.7 C635.77 980.11 632.51 987.74 624.67 996.13 C624.67 996.79 624.67 997.45 624.67 998.13 C624.15 998.35 623.64 998.58 623.11 998.82 C620.47 1000.15 620.47 1000.15 617.61 1002.5 C608.66 1009.05 597.5 1011.01 586.67 1010.13 C577.46 1008.31 570.24 1004.54 562.67 999.13 C562.01 998.66 561.36 998.2 560.68 997.72 C555.31 993.9 549.98 990.02 544.67 986.13 C543.6 985.34 543.6 985.34 542.51 984.54 C539.9 982.64 537.3 980.73 534.7 978.82 C533.59 978 532.47 977.18 531.36 976.36 C530.15 975.48 528.96 974.6 527.76 973.71 C524.55 971.05 524.55 971.05 520.67 970.13 C520.67 969.47 520.67 968.81 520.67 968.13 C519.25 966.9 519.25 966.9 517.39 965.74 C516.71 965.3 516.03 964.86 515.34 964.4 C514.62 963.94 513.91 963.48 513.17 963 C512.1 962.3 512.1 962.3 511 961.58 C509.23 960.43 507.45 959.28 505.67 958.13 C502.13 959.87 498.66 961.63 495.29 963.69 C494.26 964.31 494.26 964.31 493.21 964.94 C492.7 965.33 492.19 965.73 491.67 966.13 C491.67 966.79 491.67 967.45 491.67 968.13 C491.1 968.4 490.53 968.67 489.94 968.95 C487.62 970.16 485.52 971.51 483.37 972.99 C482.56 973.55 481.74 974.11 480.91 974.68 C480.06 975.26 479.22 975.84 478.36 976.44 C477.53 977.01 476.7 977.58 475.84 978.16 C474.21 979.28 472.59 980.41 470.96 981.54 C469.48 982.56 468 983.58 466.5 984.59 C464.86 985.72 463.26 986.92 461.67 988.13 C461.67 988.79 461.67 989.45 461.67 990.13 C459.34 991.33 457.17 992.29 454.67 993.13 C454.67 993.79 454.67 994.45 454.67 995.13 C454.12 995.38 453.58 995.63 453.02 995.89 C450.2 997.37 447.71 999.17 445.11 1001 C434.86 1007.91 424.03 1011.22 411.67 1010.13 C399.98 1007.77 389.91 1002.71 382.67 993.13 C382.01 993.13 381.35 993.13 380.67 993.13 C380.57 992.57 380.46 992.01 380.36 991.44 C379.77 989.06 379.77 989.06 378.29 987 C374.18 979.72 373.43 972.49 373.08 964.26 C373.04 963.38 373 962.5 372.96 961.59 C372.86 959.44 372.76 957.28 372.67 955.13 C329.13 955.1 285.58 955.09 242.04 955.08 C236.9 955.08 231.76 955.07 226.62 955.07 C225.6 955.07 224.57 955.07 223.52 955.07 C206.95 955.07 190.38 955.06 173.8 955.05 C156.8 955.04 139.8 955.04 122.79 955.03 C112.3 955.03 101.81 955.03 91.32 955.02 C84.12 955.01 76.93 955.01 69.73 955.01 C65.58 955.01 61.43 955.01 57.28 955.01 C53.48 955 49.68 955 45.87 955.01 C43.85 955.01 41.83 955 39.81 955 C29.15 954.23 29.15 954.23 19.67 957.13 C18.41 957.38 17.15 957.62 15.86 957.88 C1.76 960.92 -12.44 968.78 -23.33 978.13 C-23.33 978.79 -23.33 979.45 -23.33 980.13 C-23.91 980.38 -24.49 980.62 -25.08 980.88 C-27.66 982.31 -29.39 983.91 -31.33 986.13 C-31.33 986.79 -31.33 987.45 -31.33 988.13 C-31.99 988.13 -32.65 988.13 -33.33 988.13 C-49.58 1006.01 -59.52 1032.01 -58.62 1056.34 C-58.19 1060.47 -57.63 1064.58 -57.02 1068.69 C-56.84 1069.88 -56.84 1069.88 -56.66 1071.09 C-53 1093.6 -40.65 1115.33 -23.33 1130.13 C-22.67 1130.13 -22.01 1130.13 -21.33 1130.13 C-21.33 1130.79 -21.33 1131.45 -21.33 1132.13 C-19.07 1133.83 -16.82 1135.4 -14.46 1136.94 C-13.77 1137.39 -13.08 1137.84 -12.37 1138.31 C-3.6 1143.97 4.75 1147.68 14.86 1150.33 C17.67 1151.13 17.67 1151.13 18.67 1152.13 C28.2 1154.02 37.56 1154.41 47.25 1154.38 C48.67 1154.38 50.08 1154.38 51.49 1154.39 C55.34 1154.4 59.18 1154.39 63.02 1154.39 C67.18 1154.38 71.34 1154.39 75.5 1154.39 C82.7 1154.4 89.89 1154.4 97.09 1154.4 C107.5 1154.4 117.91 1154.41 128.32 1154.43 C145.22 1154.45 162.13 1154.47 179.03 1154.49 C180.55 1154.49 180.55 1154.49 182.09 1154.49 C196.45 1154.5 210.8 1154.51 225.15 1154.51 C226.67 1154.51 226.67 1154.51 228.22 1154.51 C229.23 1154.51 230.24 1154.51 231.28 1154.51 C248.14 1154.51 264.99 1154.53 281.84 1154.56 C292.23 1154.58 302.61 1154.59 313 1154.58 C320.11 1154.57 327.22 1154.58 334.33 1154.6 C338.43 1154.61 342.54 1154.61 346.64 1154.6 C350.39 1154.59 354.15 1154.59 357.91 1154.62 C359.91 1154.62 361.91 1154.61 363.91 1154.59 C370.78 1154.65 375.05 1155.1 380.67 1159.13 C381.66 1159.46 382.65 1159.79 383.67 1160.13 C386.25 1165.27 388.51 1172.51 387.2 1178.16 C385 1184.57 381.81 1189.03 375.67 1192.13 C372.8 1192.5 372.8 1192.5 369.58 1192.51 C368.35 1192.51 367.12 1192.52 365.85 1192.53 C364.49 1192.52 363.12 1192.52 361.76 1192.51 C360.31 1192.51 358.86 1192.52 357.41 1192.52 C353.42 1192.54 349.44 1192.53 345.45 1192.52 C341.15 1192.51 336.85 1192.52 332.55 1192.53 C324.13 1192.55 315.7 1192.54 307.28 1192.53 C300.42 1192.53 293.57 1192.53 286.72 1192.53 C285.75 1192.53 284.77 1192.53 283.77 1192.53 C281.78 1192.53 279.8 1192.53 277.82 1192.53 C259.24 1192.54 240.65 1192.53 222.06 1192.52 C206.13 1192.5 190.2 1192.5 174.27 1192.52 C155.76 1192.53 137.26 1192.54 118.75 1192.53 C116.78 1192.53 114.8 1192.53 112.82 1192.53 C111.85 1192.53 110.88 1192.53 109.88 1192.53 C103.04 1192.53 96.21 1192.53 89.37 1192.54 C81.03 1192.54 72.69 1192.54 64.34 1192.53 C60.09 1192.52 55.84 1192.52 51.58 1192.53 C47.68 1192.53 43.78 1192.53 39.88 1192.51 C38.48 1192.51 37.07 1192.51 35.67 1192.52 C26.28 1192.56 17.78 1191.36 8.67 1189.13 C7.07 1188.81 5.46 1188.49 3.86 1188.19 C-0.02 1187.32 -3.44 1185.88 -7.03 1184.18 C-9.35 1183.12 -11.69 1182.25 -14.08 1181.38 C-19.57 1179.22 -24.39 1176.16 -29.34 1173.02 C-31.64 1171.56 -33.94 1170.19 -36.33 1168.88 C-39.24 1167.18 -41.71 1165.23 -44.33 1163.13 C-44.99 1163.13 -45.65 1163.13 -46.33 1163.13 C-46.33 1162.47 -46.33 1161.81 -46.33 1161.13 C-48.01 1159.35 -48.01 1159.35 -50.14 1157.57 C-50.85 1156.95 -51.56 1156.33 -52.29 1155.69 C-54.34 1153.94 -54.34 1153.94 -57.33 1153.13 C-58.02 1151.8 -58.68 1150.47 -59.33 1149.13 C-60.89 1146.99 -62.54 1145.1 -64.33 1143.13 C-64.99 1143.13 -65.65 1143.13 -66.33 1143.13 C-66.56 1142.62 -66.79 1142.1 -67.03 1141.58 C-68.83 1138.2 -70.99 1135.1 -73.14 1131.94 C-78.58 1123.84 -83.16 1116.16 -86.36 1106.9 C-87.31 1104.18 -88.36 1101.54 -89.46 1098.88 C-92.58 1091.1 -94.04 1083.37 -95.33 1075.13 C-95.5 1074.21 -95.67 1073.3 -95.85 1072.35 C-98.26 1056.24 -97.26 1037.9 -93.33 1022.13 C-93.09 1021.1 -92.85 1020.08 -92.6 1019.02 C-90.18 1009.39 -86.23 1000.61 -81.62 991.86 C-80.17 989.06 -79.33 987.33 -79.33 984.13 C-78.67 984.13 -78.01 984.13 -77.33 984.13 C-76.51 982.69 -75.7 981.25 -74.89 979.82 C-74.44 979.01 -73.99 978.21 -73.52 977.39 C-72.22 975.07 -72.22 975.07 -71.33 972.13 C-70.67 972.13 -70.01 972.13 -69.33 972.13 C-68.17 970.61 -67.08 969.03 -66.02 967.44 C-51.09 946.62 -26.89 929.54 -2.06 922.88 C0.62 922.14 3.1 921.19 5.67 920.13 C10.9 918.35 15.84 917.74 21.31 917.37 C23.69 917.27 23.69 917.27 25.67 916.13 C35.44 915.1 45.26 914.98 55.08 914.97 C56.46 914.96 57.84 914.96 59.22 914.95 C62.98 914.94 66.73 914.93 70.48 914.93 C74.54 914.92 78.61 914.91 82.67 914.89 C89.69 914.87 96.72 914.85 103.74 914.84 C113.9 914.81 124.05 914.79 134.21 914.76 C150.69 914.71 167.17 914.67 183.65 914.62 C199.65 914.59 215.65 914.54 231.65 914.5 C233.13 914.5 233.13 914.5 234.64 914.49 C239.6 914.48 244.55 914.46 249.51 914.45 C290.56 914.34 331.62 914.23 372.67 914.13 C372.67 898.62 372.67 883.11 372.67 867.13 C330.24 867.11 287.81 867.09 245.38 867.08 C240.36 867.08 235.34 867.07 230.32 867.07 C229.32 867.07 228.33 867.07 227.3 867.07 C211.16 867.07 195.02 867.06 178.88 867.05 C162.3 867.04 145.72 867.04 129.13 867.03 C118.92 867.03 108.7 867.03 98.48 867.02 C91.46 867.01 84.44 867.01 77.41 867.01 C73.37 867.01 69.33 867.01 65.29 867.01 C44.71 866.98 44.71 866.98 24.14 867.51 Z " fill="#000000" transform="translate(301.3303428888321,-0.12765049934387207)"/>
<path d="M0 0 C3.31 1.48 5.5 3.4 8 6 C16.79 14.02 23.82 17.15 36 17 C44.94 16 51.81 12.59 58.3 6.43 C60 5 60 5 62 5 C62 4.34 62 3.68 62 3 C66.04 -0.17 69.39 -0.43 74.44 -0.44 C75.71 -0.46 76.99 -0.48 78.31 -0.5 C83.7 0.23 87.45 2.84 90.81 7.06 C94.92 12.58 94.59 18.35 94 25 C89.81 35.74 78.78 43.61 69 49 C68.01 49 67.02 49 66 49 C66 49.66 66 50.32 66 51 C45.43 59.08 25.58 60.47 4.6 52.62 C-7.28 47.28 -21.41 38.52 -26.88 26.25 C-28.5 21.41 -28.2 16.91 -27 12 C-25.38 8.75 -25.38 8.75 -23 6 C-22.58 5.44 -22.17 4.88 -21.74 4.3 C-16.14 -2 -7.69 -1.18 0 0 Z " fill="#000000" transform="translate(627,212)"/>
<path d="M0 0 C2.01 1.2 3.81 2.33 5.52 3.94 C5.52 4.6 5.52 5.26 5.52 5.94 C6.51 6.27 7.5 6.6 8.52 6.94 C11.99 12.15 11.67 17.84 11.68 23.94 C11.69 25.07 11.69 25.07 11.69 26.22 C11.7 27.8 11.7 29.38 11.7 30.96 C11.7 33.37 11.72 35.77 11.74 38.18 C11.74 39.72 11.75 41.27 11.75 42.81 C11.75 43.52 11.76 44.23 11.77 44.97 C11.73 52.27 10.19 58.26 5.52 63.94 C0.07 67.82 -4.86 69.43 -11.56 68.72 C-16.7 67.7 -19.79 65.63 -23.48 61.94 C-23.48 61.28 -23.48 60.62 -23.48 59.94 C-24.14 59.94 -24.8 59.94 -25.48 59.94 C-27.9 54.25 -28.93 49.72 -28.88 43.57 C-28.89 42.8 -28.89 42.03 -28.89 41.24 C-28.89 39.62 -28.89 38.01 -28.88 36.4 C-28.86 33.95 -28.88 31.5 -28.89 29.05 C-28.89 27.47 -28.89 25.89 -28.88 24.32 C-28.89 23.6 -28.89 22.87 -28.9 22.13 C-28.81 15.71 -27.38 10.26 -23.23 5.19 C-16.17 -0.59 -9.04 -3.85 0 0 Z " fill="#000000" transform="translate(512.484375,183.05859375)"/>
<path d="M0 0 C0.76 0.5 1.53 0.99 2.31 1.5 C2.31 2.16 2.31 2.82 2.31 3.5 C2.89 3.69 3.47 3.87 4.06 4.06 C7.34 6.15 8.89 8.98 10.31 12.5 C10.87 15.71 10.9 18.84 10.88 22.09 C10.89 23.44 10.89 23.44 10.9 24.83 C10.9 26.73 10.9 28.63 10.89 30.53 C10.88 33.43 10.91 36.32 10.95 39.21 C10.95 41.07 10.95 42.92 10.94 44.78 C10.95 45.63 10.97 46.49 10.98 47.37 C10.89 53.56 9.26 57.71 5.31 62.5 C1.44 66.17 -2.07 68.19 -7.57 68.58 C-12.79 68.39 -17.33 67.4 -21.69 64.5 C-21.69 63.84 -21.69 63.18 -21.69 62.5 C-22.68 62.17 -23.67 61.84 -24.69 61.5 C-28.75 55.92 -29.3 51.48 -29.29 44.69 C-29.3 43.77 -29.31 42.84 -29.32 41.89 C-29.33 39.94 -29.33 37.99 -29.32 36.04 C-29.31 33.07 -29.36 30.11 -29.41 27.15 C-29.41 25.24 -29.42 23.34 -29.41 21.44 C-29.43 20.56 -29.45 19.69 -29.47 18.78 C-29.37 12.17 -27.33 8.19 -22.69 3.5 C-15.67 -2.06 -8.52 -3.47 0 0 Z " fill="#000000" transform="translate(825.6875,183.5)"/>
</svg>
