<?xml version="1.0" encoding="UTF-8"?>
<!-- Generator: visioncortex VTracer 0.6.3 -->
<svg version="1.1" xmlns="http://www.w3.org/2000/svg" width="1280" height="1280">
<path d="M0 0 C88.29 -0.03 176.58 -0.07 264.87 -0.08 C266.17 -0.08 267.48 -0.09 268.83 -0.09 C296.53 -0.09 324.23 -0.1 351.93 -0.1 C365.84 -0.1 379.76 -0.11 393.67 -0.11 C395.77 -0.11 397.87 -0.11 399.97 -0.11 C432.29 -0.12 464.6 -0.12 496.92 -0.14 C497.96 -0.14 497.96 -0.14 499.03 -0.14 C510.23 -0.14 521.43 -0.15 532.63 -0.15 C564.9 -0.16 597.16 -0.18 629.43 -0.18 C630.09 -0.18 630.76 -0.18 631.44 -0.18 C645.36 -0.18 659.27 -0.19 673.19 -0.19 C679.71 -0.19 686.22 -0.19 692.74 -0.19 C694.02 -0.19 695.31 -0.19 696.63 -0.19 C717.29 -0.19 737.95 -0.2 758.6 -0.21 C779.37 -0.23 800.13 -0.23 820.89 -0.23 C833.23 -0.23 845.57 -0.23 857.91 -0.24 C866.15 -0.25 874.39 -0.25 882.63 -0.24 C887.33 -0.24 892.03 -0.24 896.72 -0.25 C901 -0.26 905.28 -0.26 909.55 -0.25 C911.09 -0.25 912.62 -0.25 914.15 -0.25 C923.28 -0.29 932 0.38 941 2 C942.18 2.14 943.35 2.29 944.56 2.44 C949.8 3.29 954.88 4.62 960 6 C961.12 6.3 962.23 6.6 963.38 6.91 C969.11 8.55 974.07 10.26 978.98 13.65 C981.4 15.27 983.92 16.58 986.5 17.94 C990.74 20.22 994.56 22.72 998.34 25.7 C1000.46 27.36 1002.6 28.8 1005 30 C1005.33 30.99 1005.66 31.98 1006 33 C1009 34.71 1009 34.71 1012 36 C1012 36.66 1012 37.32 1012 38 C1012.66 38 1013.32 38 1014 38 C1014 38.66 1014 39.32 1014 40 C1014.99 40.33 1015.98 40.66 1017 41 C1018.39 42.56 1018.39 42.56 1019.69 44.44 C1020.34 45.36 1020.34 45.36 1021.01 46.31 C1022 48 1022 48 1022 50 C1022.99 50 1023.98 50 1025 50 C1026.38 52 1026.38 52 1028 55 C1028.79 56.25 1029.58 57.5 1030.38 58.75 C1034.08 64.68 1037.42 70.79 1040.62 77 C1041.01 77.74 1041.39 78.49 1041.79 79.25 C1043.47 83.08 1044.7 87.03 1046 91 C1046.23 91.68 1046.46 92.36 1046.7 93.07 C1051.61 107.85 1051.71 122.19 1051.64 137.64 C1051.64 140.42 1051.65 143.19 1051.66 145.96 C1051.68 151.96 1051.68 157.95 1051.67 163.95 C1051.66 172.87 1051.67 181.79 1051.69 190.7 C1051.72 205.71 1051.72 220.71 1051.71 235.72 C1051.71 250.57 1051.71 265.41 1051.73 280.26 C1051.73 281.19 1051.73 282.11 1051.73 283.06 C1051.74 287.76 1051.74 292.46 1051.75 297.15 C1051.79 330.38 1051.8 363.61 1051.8 396.83 C1051.81 429.1 1051.82 461.37 1051.85 493.64 C1051.85 494.64 1051.85 495.63 1051.85 496.66 C1051.86 506.66 1051.87 516.66 1051.88 526.65 C1051.89 547.02 1051.91 567.38 1051.93 587.75 C1051.93 588.69 1051.93 589.62 1051.93 590.59 C1051.98 653.06 1051.99 715.53 1052 778 C1053.1 777.98 1054.21 777.96 1055.35 777.94 C1059.48 777.86 1063.61 777.82 1067.74 777.78 C1069.52 777.76 1071.3 777.73 1073.09 777.7 C1093.01 777.32 1093.01 777.32 1099 782 C1100.96 784.24 1102.42 786.46 1104 789 C1104.99 789.5 1104.99 789.5 1106 790 C1106.05 804.78 1106.08 819.55 1106.1 834.33 C1106.11 841.19 1106.13 848.06 1106.15 854.92 C1106.17 861.54 1106.18 868.16 1106.19 874.78 C1106.19 877.3 1106.2 879.83 1106.21 882.36 C1106.23 885.9 1106.23 889.43 1106.23 892.97 C1106.23 894.02 1106.24 895.06 1106.25 896.14 C1106.25 897.11 1106.24 898.08 1106.24 899.07 C1106.24 899.91 1106.24 900.74 1106.25 901.6 C1105.96 904.36 1105.1 906.47 1104 909 C1103.51 911.03 1103.05 913.08 1102.62 915.12 C1099.32 929.75 1092.91 947.68 1081.81 958.25 C1078.98 961.02 1077.55 963.39 1076 967 C1075.34 967 1074.68 967 1074 967 C1073.79 967.54 1073.59 968.07 1073.38 968.62 C1071.47 971.92 1068.95 974.59 1066 977 C1065.34 977 1064.68 977 1064 977 C1064 977.66 1064 978.32 1064 979 C1062.53 980.04 1062.53 980.04 1060.5 981.19 C1057.34 983.07 1054.69 985.07 1052 987.56 C1048.29 990.92 1044.54 992.97 1040 995 C1038.91 995.58 1037.81 996.15 1036.69 996.75 C1034 998 1034 998 1031 998 C1031 998.66 1031 999.32 1031 1000 C1025.64 1002.26 1021.8 1003.36 1016 1003 C1016 1003.66 1016 1004.32 1016 1005 C1014.72 1005.31 1013.44 1005.62 1012.12 1005.94 C1009.9 1006.48 1008.05 1006.97 1006 1008 C1003.52 1008.21 1001.05 1008.37 998.56 1008.5 C993.21 1008.76 993.21 1008.76 988 1010 C986.66 1010.14 985.32 1010.24 983.98 1010.31 C983.18 1010.35 982.39 1010.4 981.56 1010.44 C980.71 1010.48 979.85 1010.52 978.97 1010.56 C978.07 1010.6 977.18 1010.64 976.25 1010.68 C967.35 1011.07 958.46 1011.13 949.56 1011.11 C947.79 1011.11 946.02 1011.11 944.25 1011.11 C939.43 1011.11 934.61 1011.1 929.8 1011.09 C924.54 1011.09 919.28 1011.08 914.02 1011.08 C904.82 1011.08 895.62 1011.07 886.42 1011.06 C872.74 1011.04 859.06 1011.03 845.38 1011.02 C822.37 1011 799.35 1010.98 776.34 1010.95 C753.55 1010.93 730.77 1010.9 707.98 1010.88 C706.55 1010.88 705.12 1010.88 703.69 1010.88 C697.93 1010.87 692.18 1010.87 686.42 1010.86 C670.34 1010.85 654.25 1010.83 638.17 1010.82 C637.43 1010.82 636.7 1010.81 635.95 1010.81 C612.62 1010.79 589.3 1010.77 565.97 1010.74 C564.84 1010.74 564.84 1010.74 563.68 1010.74 C551.4 1010.73 539.12 1010.71 526.85 1010.7 C478.11 1010.65 429.37 1010.6 380.63 1010.56 C368.33 1010.55 356.04 1010.54 343.75 1010.53 C342.99 1010.52 342.24 1010.52 341.46 1010.52 C318.14 1010.5 294.82 1010.48 271.51 1010.46 C270.78 1010.46 270.05 1010.46 269.29 1010.46 C253.23 1010.44 237.18 1010.42 221.12 1010.41 C215.37 1010.4 209.63 1010.39 203.89 1010.39 C202.46 1010.39 201.03 1010.39 199.6 1010.38 C178.22 1010.36 156.85 1010.34 135.47 1010.32 C134.77 1010.32 134.07 1010.32 133.35 1010.32 C132.65 1010.32 131.95 1010.32 131.23 1010.32 C107.65 1010.3 84.08 1010.28 60.51 1010.25 C46.91 1010.23 33.31 1010.22 19.72 1010.21 C10.65 1010.2 1.58 1010.19 -7.49 1010.18 C-12.66 1010.17 -17.84 1010.16 -23.02 1010.16 C-27.72 1010.16 -32.42 1010.16 -37.12 1010.15 C-38.82 1010.14 -40.51 1010.14 -42.21 1010.14 C-44.5 1010.14 -46.79 1010.14 -49.08 1010.13 C-50.36 1010.13 -51.63 1010.13 -52.94 1010.13 C-56 1010 -56 1010 -59 1009 C-62.78 1008.73 -66.55 1008.55 -70.34 1008.38 C-73.69 1008.03 -75.97 1007.38 -79 1006 C-80.66 1005.63 -82.32 1005.29 -84 1005 C-84 1004.34 -84 1003.68 -84 1003 C-85.48 1003.09 -85.48 1003.09 -87 1003.19 C-91.47 1003.21 -94.91 1001.72 -99 1000 C-99 999.34 -99 998.68 -99 998 C-99.7 997.89 -100.4 997.79 -101.12 997.68 C-104.39 996.91 -107.01 995.66 -110 994.12 C-111.52 993.36 -111.52 993.36 -113.06 992.57 C-117.22 990.35 -121.04 988.14 -124.56 985 C-126.48 983.3 -128.35 981.75 -130.44 980.25 C-131.21 979.63 -131.21 979.63 -132 979 C-132 978.34 -132 977.68 -132 977 C-132.84 976.67 -132.84 976.67 -133.69 976.33 C-136.74 974.57 -138.66 972.32 -141 969.69 C-141.85 968.74 -142.69 967.8 -143.56 966.82 C-145.77 964.26 -147.91 961.66 -150 959 C-150.5 958.38 -151.01 957.75 -151.53 957.11 C-155.48 952.07 -158.27 946.78 -161 941 C-161.6 939.85 -162.2 938.69 -162.81 937.5 C-164 935 -164 935 -164 933 C-164.99 932.67 -165.98 932.34 -167 932 C-167 930.68 -167 929.36 -167 928 C-167.53 925.92 -167.53 925.92 -168.31 923.81 C-168.72 922.64 -168.72 922.64 -169.14 921.45 C-169.42 920.64 -169.71 919.83 -170 919 C-170.54 917.35 -171.09 915.71 -171.62 914.06 C-172.32 911.94 -173 910 -174 908 C-173.34 908 -172.68 908 -172 908 C-172.33 907.44 -172.65 906.88 -172.98 906.3 C-174.12 903.72 -174.25 902 -174.24 899.19 C-174.24 898.23 -174.25 897.26 -174.25 896.27 C-174.24 895.22 -174.23 894.16 -174.23 893.08 C-174.23 891.97 -174.23 890.86 -174.23 889.71 C-174.23 886.03 -174.21 882.35 -174.2 878.67 C-174.19 876.12 -174.19 873.57 -174.19 871.02 C-174.18 864.99 -174.16 858.97 -174.14 852.94 C-174.12 846.07 -174.11 839.21 -174.1 832.35 C-174.08 818.23 -174.04 804.12 -174 790 C-173.34 790 -172.68 790 -172 790 C-171.79 789.11 -171.59 788.23 -171.38 787.31 C-169.46 782.69 -166.52 780.26 -162 778 C-160.64 777.91 -159.28 777.88 -157.92 777.89 C-156.66 777.89 -156.66 777.89 -155.37 777.89 C-154.01 777.89 -154.01 777.89 -152.62 777.9 C-151.69 777.9 -150.76 777.91 -149.8 777.91 C-146.83 777.91 -143.85 777.92 -140.88 777.94 C-138.86 777.94 -136.85 777.95 -134.83 777.95 C-129.89 777.96 -124.94 777.98 -120 778 C-120 777.42 -120 776.84 -120 776.24 C-120.03 713.08 -120.07 649.91 -120.08 586.74 C-120.08 585.8 -120.09 584.86 -120.09 583.89 C-120.09 563.4 -120.1 542.91 -120.1 522.42 C-120.1 512.38 -120.11 502.33 -120.11 492.28 C-120.11 491.28 -120.11 490.28 -120.11 489.25 C-120.12 456.82 -120.13 424.39 -120.15 391.95 C-120.17 358.63 -120.18 325.32 -120.19 292 C-120.19 287.3 -120.19 282.6 -120.19 277.9 C-120.19 276.97 -120.19 276.05 -120.19 275.1 C-120.19 260.17 -120.2 245.25 -120.21 230.33 C-120.23 215.35 -120.23 200.36 -120.23 185.38 C-120.23 176.47 -120.23 167.55 -120.24 158.64 C-120.25 152.7 -120.25 146.75 -120.24 140.81 C-120.24 137.41 -120.24 134.02 -120.25 130.63 C-120.26 126.98 -120.25 123.34 -120.25 119.69 C-120.25 118.63 -120.26 117.56 -120.26 116.46 C-120.26 115.49 -120.25 114.53 -120.25 113.54 C-120.25 112.7 -120.25 111.87 -120.25 111.01 C-120 109 -120 109 -118 107 C-117.54 104.34 -117.54 104.34 -117.38 101.38 C-117.3 100.37 -117.23 99.37 -117.15 98.34 C-117.1 97.57 -117.05 96.79 -117 96 C-116.67 96 -116.34 96 -116 96 C-115.67 93.36 -115.34 90.72 -115 88 C-114.34 88 -113.68 88 -113 88 C-112.88 86.93 -112.75 85.86 -112.62 84.75 C-112.1 81.62 -111.71 79.61 -110 77 C-109.34 76.67 -108.68 76.34 -108 76 C-107.34 73.47 -107.34 73.47 -107 71 C-106.34 71 -105.68 71 -105 71 C-104.86 70.38 -104.71 69.76 -104.56 69.12 C-104 67 -104 67 -103 65 C-102 62.67 -100.99 60.34 -100 58 C-99.34 58 -98.68 58 -98 58 C-97.77 57.28 -97.55 56.56 -97.31 55.81 C-95.75 52.45 -93.67 50.54 -91 48 C-90.34 47.01 -89.68 46.02 -89 45 C-88.48 44.5 -87.97 44.01 -87.44 43.5 C-85.74 41.95 -85.74 41.95 -85 39 C-82.17 36.08 -79.02 33.59 -75.5 31.56 C-72.38 29.61 -70.19 27.15 -67.75 24.43 C-66 23 -66 23 -62 23 C-62 22.34 -62 21.68 -62 21 C-60.35 20.34 -58.7 19.68 -57 19 C-57 18.67 -57 18.34 -57 18 C-55.35 17.67 -53.7 17.34 -52 17 C-52 16.34 -52 15.68 -52 15 C-50.89 14.53 -49.77 14.05 -48.62 13.56 C-46.73 12.75 -44.84 11.92 -43 11 C-43 10.67 -43 10.34 -43 10 C-40.69 10 -38.38 10 -36 10 C-36 9.34 -36 8.68 -36 8 C-34.02 7.67 -32.04 7.34 -30 7 C-30 6.34 -30 5.68 -30 5 C-28.54 4.81 -27.08 4.62 -25.62 4.44 C-24.81 4.33 -24 4.23 -23.16 4.12 C-21 4 -21 4 -19 5 C-19 4.34 -19 3.68 -19 3 C-9.59 2.01 -9.59 2.01 0 1 C0 0.67 0 0.34 0 0 Z M-10 47 C-12.33 47.67 -14.67 48.34 -17 49 C-20.01 49.97 -23 50.98 -26 52 C-26.99 52.33 -27.98 52.66 -29 53 C-29 53.66 -29 54.32 -29 55 C-29.8 55.21 -30.61 55.41 -31.44 55.62 C-41.44 59.48 -49.52 66.98 -56.32 75.07 C-58 77 -58 77 -59.92 78.66 C-62.99 82.12 -64.65 86.07 -66.56 90.25 C-66.95 91.07 -67.33 91.89 -67.73 92.74 C-71.13 100.05 -74.04 106.93 -75 115 C-75.33 116.67 -75.67 118.34 -76.01 120.01 C-77.09 125.88 -77.28 131.54 -77.25 137.5 C-77.25 138.61 -77.25 139.72 -77.26 140.86 C-77.26 144.57 -77.26 148.28 -77.25 151.99 C-77.25 154.68 -77.25 157.36 -77.25 160.05 C-77.26 165.9 -77.26 171.74 -77.25 177.58 C-77.24 186.26 -77.24 194.95 -77.25 203.64 C-77.25 218.25 -77.25 232.87 -77.24 247.48 C-77.23 261.95 -77.23 276.42 -77.23 290.88 C-77.23 291.78 -77.23 292.68 -77.23 293.61 C-77.23 297.27 -77.23 300.92 -77.23 304.57 C-77.23 338.84 -77.22 373.1 -77.2 407.36 C-77.19 437.82 -77.18 468.28 -77.19 498.74 C-77.19 500.7 -77.19 502.66 -77.19 504.61 C-77.19 505.58 -77.19 506.55 -77.19 507.55 C-77.19 512.42 -77.19 517.29 -77.19 522.16 C-77.19 523.12 -77.19 524.08 -77.19 525.07 C-77.19 550.51 -77.18 575.95 -77.18 601.39 C-77.18 602.29 -77.17 603.2 -77.17 604.13 C-77.17 607.77 -77.17 611.4 -77.17 615.04 C-77.17 627.71 -77.17 640.38 -77.17 653.05 C-77.17 669.36 -77.16 685.68 -77.15 702 C-77.15 710.63 -77.15 719.27 -77.15 727.91 C-77.15 733.66 -77.14 739.42 -77.14 745.18 C-77.14 748.47 -77.13 751.75 -77.14 755.04 C-77.14 758.57 -77.13 762.1 -77.13 765.63 C-77.13 766.67 -77.13 767.7 -77.13 768.77 C-77.13 769.7 -77.13 770.63 -77.13 771.6 C-77.13 772.81 -77.13 772.81 -77.13 774.05 C-77.12 776.08 -77.12 776.08 -76 778 C-74.77 778 -74.77 778 -73.51 778 C-24.77 778.06 23.96 778.13 72.69 778.23 C78.54 778.24 84.39 778.25 90.24 778.26 C91.41 778.26 92.57 778.27 93.77 778.27 C112.63 778.3 131.5 778.33 150.36 778.35 C169.72 778.37 189.07 778.41 208.42 778.45 C220.36 778.48 232.31 778.49 244.25 778.5 C252.44 778.5 260.63 778.52 268.81 778.55 C273.54 778.56 278.26 778.57 282.99 778.57 C287.32 778.56 291.64 778.57 295.97 778.59 C297.53 778.6 299.1 778.6 300.66 778.59 C302.79 778.59 304.92 778.6 307.05 778.62 C308.23 778.62 309.41 778.62 310.63 778.62 C316.9 779.33 321.45 781.96 326.06 786.25 C327.33 787.43 327.33 787.43 328.63 788.64 C330.71 790.71 332.62 792.81 334.5 795.06 C335.74 796.52 335.74 796.52 337 798 C337.66 798 338.32 798 339 798 C339.25 798.58 339.5 799.15 339.75 799.75 C341.18 802.33 342.78 804.06 345 806 C345.66 806 346.32 806 347 806 C347.23 806.78 347.45 807.57 347.69 808.38 C348.78 811.22 348.78 811.22 351.62 812.31 C352.41 812.54 353.19 812.77 354 813 C354 813.66 354 814.32 354 815 C355.27 816.69 355.27 816.69 357 818 C357.99 818 358.98 818 360 818 C360.33 818.99 360.66 819.98 361 821 C361.99 821 362.98 821 364 821 C364 821.66 364 822.32 364 823 C367.13 824.86 369.37 825.2 373 825 C373.16 825.62 373.33 826.24 373.5 826.88 C375.51 829.72 377.62 829.9 380.93 830.57 C383 831 383 831 385.88 832 C394.72 834.83 403.19 835.28 412.44 835.23 C414.4 835.23 414.4 835.23 416.4 835.23 C419.96 835.23 423.52 835.22 427.07 835.2 C430.8 835.19 434.53 835.19 438.26 835.19 C445.31 835.18 452.35 835.16 459.4 835.14 C467.43 835.12 475.46 835.11 483.49 835.1 C499.99 835.08 516.5 835.04 533 835 C533 834.67 533 834.34 533 834 C533.7 833.95 534.4 833.9 535.12 833.85 C536.03 833.78 536.94 833.7 537.88 833.62 C538.78 833.56 539.68 833.49 540.62 833.41 C543.18 833.2 543.18 833.2 545 831 C546.92 830.48 548.86 830.03 550.81 829.62 C555.56 828.51 558.36 827.32 562 824 C562.99 823.69 563.98 823.38 565 823.06 C568.7 821.75 570.35 819.86 573 817 C574.66 815.66 576.33 814.33 578 813 C579.05 811.92 579.05 811.92 580.12 810.81 C582 809 582 809 585 808 C587.74 805.46 589.93 803.11 592 800 C592 799.34 592 798.68 592 798 C592.68 797.46 593.36 796.93 594.06 796.38 C596.6 794.33 598.42 792.41 600.5 789.94 C603.1 786.89 605.4 784.85 609 783 C611.26 781.53 611.26 781.53 613 780 C613 779.34 613 778.68 613 778 C743.35 778 873.7 778 1008 778 C1008.09 664.59 1008.09 664.59 1008.14 551.19 C1008.15 534.76 1008.16 518.33 1008.16 501.91 C1008.16 499.92 1008.17 497.94 1008.17 495.95 C1008.18 464.28 1008.2 432.62 1008.23 400.95 C1008.26 368.4 1008.28 335.85 1008.28 303.3 C1008.28 298.7 1008.28 294.11 1008.28 289.51 C1008.28 288.6 1008.29 287.7 1008.29 286.77 C1008.29 272.2 1008.3 257.64 1008.32 243.08 C1008.34 228.43 1008.34 213.79 1008.34 199.15 C1008.34 190.45 1008.34 181.75 1008.36 173.06 C1008.37 167.24 1008.37 161.42 1008.37 155.61 C1008.36 152.3 1008.36 148.99 1008.37 145.68 C1008.42 133.05 1008.45 121.23 1005 109 C1004.69 107.44 1004.4 105.88 1004.12 104.31 C1002.94 98.88 1000.43 93.97 998 89 C997.34 89 996.68 89 996 89 C995.81 87.89 995.81 87.89 995.62 86.75 C995.05 84.2 994.26 82.27 993 80 C992.34 80 991.68 80 991 80 C990.67 79.01 990.34 78.02 990 77 C989.38 76.55 988.76 76.09 988.12 75.62 C986 74 986 74 984.69 71.68 C980.03 64.28 970.95 58.48 963 55 C962.34 55 961.68 55 961 55 C961 54.34 961 53.68 961 53 C959.75 52.49 958.5 51.99 957.25 51.5 C956.55 51.22 955.86 50.94 955.14 50.66 C952.74 49.8 952.74 49.8 949 50 C949 49.34 949 48.68 949 48 C947.48 47.68 945.96 47.37 944.44 47.06 C943.17 46.8 943.17 46.8 941.87 46.54 C936.26 45.49 930.84 44.87 925.13 44.87 C924.14 44.87 924.14 44.87 923.13 44.87 C920.93 44.86 918.72 44.87 916.52 44.87 C914.91 44.87 913.31 44.87 911.71 44.87 C907.28 44.86 902.86 44.86 898.44 44.87 C893.63 44.87 888.82 44.86 884.02 44.86 C875.59 44.85 867.16 44.85 858.73 44.85 C846.2 44.86 833.67 44.85 821.13 44.85 C797.45 44.84 773.77 44.83 750.08 44.83 C731.8 44.83 713.52 44.83 695.24 44.83 C689.98 44.83 684.72 44.83 679.46 44.82 C678.15 44.82 676.85 44.82 675.5 44.82 C638.72 44.82 601.95 44.81 565.18 44.81 C563.77 44.81 562.37 44.81 560.97 44.81 C554.65 44.81 548.32 44.81 542 44.81 C539.18 44.81 536.36 44.81 533.53 44.81 C532.12 44.81 530.71 44.81 529.3 44.81 C484.64 44.82 439.98 44.81 395.32 44.79 C384.07 44.79 372.81 44.79 361.56 44.78 C360.86 44.78 360.17 44.78 359.46 44.78 C338.11 44.78 316.76 44.77 295.4 44.77 C294.4 44.77 294.4 44.77 293.37 44.77 C278.01 44.77 262.64 44.77 247.27 44.77 C242.01 44.77 236.75 44.77 231.5 44.77 C229.55 44.77 229.55 44.77 227.57 44.77 C206.7 44.77 185.83 44.76 164.96 44.76 C144 44.75 123.05 44.75 102.09 44.75 C89.63 44.76 77.16 44.76 64.7 44.75 C56.39 44.74 48.07 44.74 39.76 44.75 C35.01 44.75 30.27 44.75 25.53 44.74 C21.22 44.74 16.91 44.74 12.59 44.75 C11.04 44.75 9.49 44.75 7.93 44.74 C5.83 44.74 3.72 44.74 1.62 44.75 C0.45 44.75 -0.71 44.75 -1.92 44.75 C-5.04 45 -7.17 45.71 -10 47 Z M-132 821 C-132.05 829.6 -132.08 838.2 -132.1 846.79 C-132.11 850.79 -132.13 854.78 -132.15 858.77 C-132.17 862.63 -132.18 866.49 -132.19 870.34 C-132.19 871.81 -132.2 873.28 -132.21 874.75 C-132.26 882.12 -132.17 888.9 -130 896 C-130.01 897.02 -130.02 898.04 -130.02 899.09 C-129.99 902.69 -128.98 905.23 -127.62 908.56 C-127.18 909.66 -126.74 910.75 -126.29 911.88 C-125.86 912.91 -125.44 913.94 -125 915 C-124.49 916.34 -124.49 916.34 -123.96 917.71 C-122.69 920.75 -120.85 923.28 -119 926 C-118.31 927.32 -117.62 928.65 -117 930 C-116.34 930 -115.68 930 -115 930 C-114.9 930.58 -114.79 931.15 -114.69 931.75 C-113.89 934.36 -112.81 935.97 -111 938 C-110.34 938 -109.68 938 -109 938 C-108.75 939.05 -108.75 939.05 -108.5 940.12 C-106.61 943.74 -104.3 945.22 -101.01 947.52 C-99 949 -99 949 -96.56 951.62 C-93.08 954.86 -89.37 956.25 -85 958 C-83.55 958.64 -83.55 958.64 -82.07 959.29 C-81.05 959.73 -80.04 960.17 -79 960.62 C-78.07 961.03 -77.14 961.43 -76.19 961.85 C-66.29 965.42 -56.7 965.28 -46.33 965.25 C-44.51 965.26 -42.69 965.26 -40.88 965.26 C-35.87 965.27 -30.86 965.27 -25.85 965.26 C-20.4 965.26 -14.96 965.27 -9.51 965.27 C0.03 965.28 9.58 965.28 19.12 965.28 C33.32 965.27 47.52 965.28 61.71 965.29 C87.8 965.3 113.89 965.3 139.98 965.3 C143.67 965.3 147.37 965.3 151.06 965.3 C152.17 965.3 152.17 965.3 153.29 965.3 C169.56 965.3 185.83 965.3 202.1 965.31 C205.81 965.31 209.53 965.31 213.24 965.31 C214.73 965.31 216.22 965.31 217.71 965.31 C218.82 965.31 218.82 965.31 219.95 965.31 C221.45 965.31 222.94 965.31 224.44 965.31 C266.85 965.32 309.26 965.32 351.68 965.32 C352.85 965.32 352.85 965.32 354.06 965.32 C362.81 965.32 371.57 965.32 380.33 965.32 C381.52 965.32 381.52 965.32 382.73 965.32 C387.52 965.32 387.52 965.32 392.32 965.32 C442.91 965.31 493.49 965.32 544.08 965.34 C556.83 965.34 569.58 965.35 582.32 965.35 C583.5 965.35 583.5 965.35 584.7 965.35 C608.89 965.36 633.08 965.36 657.26 965.36 C658.4 965.36 658.4 965.36 659.57 965.36 C676.23 965.37 692.9 965.36 709.56 965.36 C715.53 965.36 721.49 965.36 727.45 965.36 C728.94 965.36 730.42 965.36 731.9 965.36 C755.55 965.36 779.2 965.37 802.85 965.38 C827.32 965.39 851.79 965.39 876.27 965.38 C890.38 965.37 904.5 965.37 918.61 965.39 C928.03 965.4 937.45 965.39 946.87 965.38 C952.25 965.38 957.62 965.37 962.99 965.39 C967.88 965.4 972.76 965.39 977.65 965.38 C979.41 965.38 981.16 965.38 982.92 965.39 C992.32 965.43 1000.46 965.35 1009.04 960.96 C1011 960 1011 960 1014.06 959.06 C1016.96 958.01 1017.95 957.15 1020 955 C1020.99 955 1021.98 955 1023 955 C1023 954.34 1023 953.68 1023 953 C1023.56 952.77 1024.11 952.55 1024.69 952.31 C1027.2 951.02 1027.2 951.02 1029.5 948.5 C1031.7 946.3 1033.18 945.17 1036 944 C1036.66 943.67 1037.32 943.34 1038 943 C1038 942.34 1038 941.68 1038 941 C1038.66 941 1039.32 941 1040 941 C1040.33 940.01 1040.66 939.02 1041 938 C1041.66 938 1042.32 938 1043 938 C1043.4 936.82 1043.4 936.82 1043.81 935.62 C1045 933 1045 933 1048 931 C1048.25 928.42 1048.25 928.42 1048 926 C1048.66 926 1049.32 926 1050 926 C1052.54 923.93 1053.56 922.02 1054.56 918.94 C1055.47 916.2 1055.91 915.09 1058 913 C1058.17 909.42 1058.17 909.42 1058 906 C1058.66 906 1059.32 906 1060 906 C1060.33 902.7 1060.66 899.4 1061 896 C1061.33 896 1061.66 896 1062 896 C1065.06 871.52 1063 846.67 1063 822 C920.44 821.67 777.88 821.34 631 821 C630.34 822.65 629.68 824.3 629 826 C628.34 826 627.68 826 627 826 C625.67 827.32 625.67 827.32 624.25 829.12 C620.59 833.43 616.68 837.44 612.69 841.44 C611.75 842.38 611.75 842.38 610.8 843.34 C610.21 843.93 609.62 844.51 609.01 845.12 C608.48 845.65 607.95 846.18 607.4 846.73 C606 848 606 848 604 849 C604 849.66 604 850.32 604 851 C603.46 851.06 602.93 851.12 602.38 851.19 C599.6 852.14 597.82 853.69 595.66 855.65 C593.57 857.35 591.33 858.64 589 860 C588.21 860.51 587.42 861.01 586.61 861.54 C581.42 864.81 577.03 866.88 571 868 C571 868.66 571 869.32 571 870 C568.26 870.68 565.52 871.37 562.78 872.04 C560.3 872.67 557.83 873.33 555.37 874.03 C545.85 876.65 537.06 877.57 527.14 877.49 C525.63 877.49 524.12 877.49 522.61 877.5 C518.57 877.51 514.52 877.49 510.48 877.47 C506.22 877.45 501.97 877.46 497.71 877.46 C490.59 877.46 483.46 877.44 476.33 877.41 C468.09 877.38 459.86 877.37 451.63 877.37 C442.83 877.37 434.04 877.36 425.24 877.34 C422.72 877.34 420.19 877.33 417.67 877.33 C413.7 877.33 409.74 877.32 405.77 877.3 C404.32 877.29 402.87 877.29 401.42 877.29 C399.43 877.29 397.45 877.28 395.46 877.27 C393.8 877.26 393.8 877.26 392.1 877.26 C388.79 876.98 386.11 876.12 383 875 C381.99 874.88 380.98 874.75 379.94 874.62 C375.04 873.85 370.5 872.36 365.79 870.84 C363.17 869.9 363.17 869.9 361 870 C361 869.34 361 868.68 361 868 C360.34 867.82 359.67 867.64 358.99 867.45 C354.22 866.09 350.17 864.74 346 862 C344.35 861.3 342.68 860.63 341 860 C341 859.34 341 858.68 341 858 C340.09 857.59 339.18 857.17 338.25 856.75 C335.18 855.1 333.42 853.42 331 851 C330.01 851 329.02 851 328 851 C328 850.34 328 849.68 328 849 C326.58 847.57 326.58 847.57 324.69 846.06 C321.06 842.98 317.62 839.74 314.25 836.38 C312.9 835.03 312.9 835.03 311.52 833.65 C309 831 309 831 306.8 828.16 C306.2 827.45 305.61 826.74 305 826 C304.34 826 303.68 826 303 826 C303 825.34 303 824.68 303 824 C302.34 824 301.68 824 301 824 C300.67 822.68 300.34 821.36 300 820 C245.25 819.98 190.51 819.96 135.76 819.95 C129.31 819.95 122.85 819.95 116.39 819.95 C115.11 819.94 113.82 819.94 112.5 819.94 C91.66 819.94 70.82 819.93 49.98 819.92 C28.61 819.91 7.24 819.91 -14.13 819.91 C-27.32 819.9 -40.52 819.9 -53.72 819.89 C-62.75 819.89 -71.79 819.89 -80.83 819.89 C-86.05 819.89 -91.27 819.89 -96.49 819.88 C-101.26 819.88 -106.04 819.88 -110.81 819.88 C-112.54 819.88 -114.28 819.88 -116.01 819.88 C-118.35 819.87 -120.7 819.87 -123.04 819.88 C-124.34 819.88 -125.65 819.88 -126.99 819.88 C-129.92 819.79 -129.92 819.79 -132 821 Z M632 820 C632 820.33 632 820.66 632 821 C773.57 821 915.14 821 1061 821 C1061 820.67 1061 820.34 1061 820 C919.43 820 777.86 820 632 820 Z M1049 927 C1050 929 1050 929 1050 929 Z " fill="#000000" transform="translate(174,134)"/>
<path d="M0 0 C87.41 -0.02 174.81 -0.03 262.22 -0.04 C263.51 -0.04 264.81 -0.04 266.14 -0.04 C293.55 -0.05 320.97 -0.05 348.38 -0.05 C362.15 -0.05 375.92 -0.05 389.7 -0.05 C391.77 -0.05 393.85 -0.06 395.93 -0.06 C427.92 -0.06 459.91 -0.06 491.9 -0.07 C492.93 -0.07 492.93 -0.07 493.99 -0.07 C505.08 -0.07 516.17 -0.07 527.26 -0.08 C573.64 -0.09 620.01 -0.09 666.39 -0.09 C672.84 -0.09 679.29 -0.09 685.74 -0.09 C687.01 -0.09 688.28 -0.1 689.58 -0.1 C710.04 -0.1 730.49 -0.1 750.95 -0.11 C771.5 -0.11 792.05 -0.11 812.6 -0.11 C824.81 -0.11 837.03 -0.11 849.25 -0.12 C857.4 -0.12 865.56 -0.12 873.71 -0.12 C878.36 -0.12 883.02 -0.12 887.67 -0.12 C891.9 -0.13 896.13 -0.13 900.35 -0.12 C901.88 -0.12 903.4 -0.12 904.92 -0.13 C924.76 -0.16 924.76 -0.16 932 4 C932 4.66 932 5.32 932 6 C932.62 6.1 933.24 6.21 933.88 6.31 C936 7 936 7 938 10 C938 10.99 938 11.98 938 13 C938.66 13 939.32 13 940 13 C941.74 16.47 941.15 20.5 941.15 24.32 C941.15 25.31 941.16 26.29 941.16 27.3 C941.17 30.64 941.18 33.97 941.18 37.31 C941.19 39.71 941.19 42.1 941.2 44.5 C941.22 50.43 941.23 56.36 941.24 62.29 C941.25 67.22 941.26 72.15 941.28 77.08 C941.28 78.14 941.28 78.14 941.28 79.23 C941.29 80.68 941.29 82.13 941.29 83.57 C941.35 103.17 941.38 122.77 941.41 142.38 C941.42 143.18 941.42 143.98 941.42 144.81 C941.47 176.56 941.51 208.32 941.55 240.08 C941.55 247.95 941.56 255.82 941.57 263.69 C941.57 264.56 941.57 265.43 941.57 266.32 C941.6 294.51 941.66 322.71 941.74 350.9 C941.82 379.88 941.87 408.85 941.89 437.83 C941.89 441.92 941.89 446.01 941.89 450.11 C941.89 450.91 941.89 451.72 941.89 452.55 C941.9 465.51 941.94 478.48 941.99 491.44 C942.04 504.48 942.06 517.51 942.04 530.54 C942.03 538.28 942.05 546.03 942.1 553.77 C942.14 559.55 942.13 565.33 942.1 571.12 C942.09 573.45 942.1 575.79 942.13 578.13 C942.35 597.8 942.35 597.8 936.62 604.33 C927.41 612.42 917.3 611.15 905.68 611.13 C904.1 611.13 902.52 611.13 900.95 611.13 C896.61 611.14 892.28 611.14 887.94 611.13 C883.22 611.13 878.51 611.14 873.79 611.14 C865.53 611.15 857.26 611.15 849 611.15 C836.7 611.14 824.41 611.15 812.12 611.15 C788.89 611.16 765.66 611.17 742.43 611.17 C724.49 611.17 706.56 611.17 688.62 611.17 C683.46 611.17 678.3 611.17 673.14 611.18 C671.86 611.18 670.58 611.18 669.26 611.18 C633.17 611.18 597.09 611.19 561 611.19 C559.63 611.19 558.25 611.19 556.88 611.19 C550.67 611.19 544.47 611.19 538.26 611.19 C535.49 611.19 532.72 611.19 529.96 611.19 C528.57 611.19 527.19 611.19 525.8 611.19 C481.99 611.18 438.19 611.19 394.38 611.21 C383.34 611.21 372.3 611.21 361.27 611.22 C360.25 611.22 360.25 611.22 359.21 611.22 C322.51 611.23 285.82 611.23 249.13 611.23 C243.97 611.23 238.81 611.23 233.64 611.23 C232.37 611.23 231.1 611.23 229.79 611.23 C209.33 611.23 188.86 611.24 168.39 611.24 C147.83 611.25 127.26 611.25 106.7 611.25 C94.48 611.24 82.26 611.24 70.04 611.25 C61.88 611.26 53.72 611.26 45.56 611.25 C40.91 611.25 36.25 611.25 31.6 611.26 C27.37 611.26 23.14 611.26 18.9 611.25 C17.38 611.25 15.86 611.25 14.34 611.26 C-5.36 611.32 -5.36 611.32 -11.94 607.12 C-18.48 600.38 -20.45 594.43 -20.38 585.2 C-20.38 584.22 -20.39 583.23 -20.39 582.21 C-20.41 578.89 -20.4 575.57 -20.39 572.26 C-20.39 569.86 -20.4 567.46 -20.4 565.06 C-20.42 559.84 -20.42 554.62 -20.41 549.4 C-20.4 541.63 -20.41 533.87 -20.42 526.1 C-20.44 512.24 -20.44 498.37 -20.44 484.51 C-20.43 472.37 -20.43 460.24 -20.44 448.11 C-20.44 446.48 -20.44 444.85 -20.44 443.23 C-20.44 440.78 -20.44 438.33 -20.45 435.88 C-20.46 413.09 -20.46 390.3 -20.45 367.51 C-20.45 366.65 -20.45 365.79 -20.45 364.9 C-20.45 357.92 -20.45 350.95 -20.45 343.97 C-20.43 316.74 -20.44 289.51 -20.47 262.28 C-20.49 231.7 -20.51 201.12 -20.5 170.53 C-20.5 167.28 -20.5 164.02 -20.5 160.76 C-20.5 159.96 -20.5 159.15 -20.5 158.33 C-20.49 146.2 -20.5 134.07 -20.51 121.94 C-20.53 108.16 -20.53 94.37 -20.51 80.59 C-20.5 72.87 -20.5 65.15 -20.52 57.43 C-20.53 51.67 -20.52 45.92 -20.51 40.16 C-20.5 37.83 -20.51 35.49 -20.52 33.16 C-20.53 29.99 -20.52 26.83 -20.5 23.67 C-20.51 22.75 -20.52 21.84 -20.53 20.89 C-20.47 15.59 -19.91 12.91 -16 9 C-15.69 8.28 -15.38 7.56 -15.06 6.81 C-13.56 4.26 -11.74 3.91 -9 3 C-8.67 2.67 -8.34 2.34 -8 2 C-5.35 1.55 -2.68 1.3 0 1 C0 0.67 0 0.34 0 0 Z M23 45 C22.98 94.66 22.97 144.31 22.96 193.97 C22.96 194.7 22.96 195.44 22.96 196.19 C22.95 212.15 22.95 228.11 22.95 244.07 C22.95 251.89 22.95 259.72 22.95 267.54 C22.94 268.32 22.94 269.1 22.94 269.9 C22.94 295.16 22.93 320.42 22.92 345.69 C22.91 371.64 22.91 397.59 22.91 423.54 C22.91 427.2 22.91 430.86 22.91 434.52 C22.91 435.24 22.9 435.96 22.9 436.7 C22.9 448.32 22.9 459.95 22.89 471.57 C22.89 483.24 22.89 494.91 22.89 506.58 C22.89 512.91 22.89 519.24 22.88 525.57 C22.88 531.35 22.88 537.14 22.88 542.92 C22.88 545.02 22.88 547.12 22.88 549.23 C22.87 552.06 22.87 554.9 22.88 557.74 C22.87 558.57 22.87 559.41 22.87 560.27 C22.53 563.93 22.53 563.93 24 567 C25.92 567.1 27.84 567.12 29.76 567.12 C31.02 567.13 32.28 567.13 33.58 567.13 C34.99 567.13 36.41 567.12 37.83 567.12 C39.32 567.12 40.81 567.12 42.29 567.12 C46.41 567.13 50.52 567.12 54.64 567.12 C59.06 567.11 63.49 567.11 67.92 567.11 C75.6 567.11 83.28 567.11 90.96 567.11 C102.07 567.1 113.17 567.1 124.27 567.09 C142.29 567.09 160.3 567.08 178.31 567.08 C195.81 567.07 213.32 567.06 230.82 567.05 C231.9 567.05 232.98 567.05 234.09 567.05 C239.49 567.05 244.9 567.05 250.31 567.05 C295.21 567.04 340.1 567.02 385 567 C385 566.42 385 565.84 385 565.24 C385.08 530.83 385.18 496.41 385.28 462 C385.29 457.87 385.31 453.75 385.32 449.62 C385.32 448.8 385.32 447.97 385.32 447.13 C385.36 433.8 385.4 420.48 385.43 407.16 C385.46 393.5 385.5 379.83 385.54 366.17 C385.57 357.74 385.59 349.3 385.61 340.86 C385.62 335.09 385.64 329.31 385.66 323.53 C385.67 320.19 385.68 316.85 385.68 313.52 C385.69 309.9 385.7 306.29 385.72 302.68 C385.72 301.62 385.72 300.55 385.72 299.46 C385.72 298.49 385.73 297.53 385.74 296.54 C385.74 295.71 385.74 294.87 385.75 294.01 C386 292 386 292 388 290 C388.34 288.33 388.67 286.67 389 285 C389.66 284.01 390.32 283.02 391 282 C391 281.34 391 280.68 391 280 C391.66 280 392.32 280 393 280 C395.13 278.16 395.13 278.16 395.81 275.69 C397 273 397 273 399.56 270.5 C402.14 267.86 402.69 266.6 403 263 C403.66 263 404.32 263 405 263 C406.97 261.42 407.89 260.49 408.44 258 C409 256 409 256 410.94 254.56 C413.49 252.63 414.02 251.01 415 248 C415.33 247.01 415.66 246.02 416 245 C416.66 245 417.32 245 418 245 C418.37 244.23 418.37 244.23 418.75 243.44 C419.81 241.37 420.94 239.38 422.12 237.38 C424.16 234.35 424.16 234.35 424 232 C424.99 231.67 425.98 231.34 427 231 C429.37 229 429.99 228.03 431 225 C431.66 225 432.32 225 433 225 C433.18 224.29 433.36 223.58 433.55 222.85 C433.8 221.93 434.05 221.01 434.31 220.06 C434.56 219.15 434.8 218.23 435.05 217.29 C435.52 216.15 435.52 216.15 436 215 C436.99 214.67 437.98 214.34 439 214 C440.71 212.27 440.71 212.27 442.38 210.19 C446.73 205.08 450.19 201.48 457.04 200.8 C464.04 200.64 469.85 202.04 475.81 205.75 C478.59 208.6 480.17 211.47 482 215 C482.66 215 483.32 215 484 215 C484.27 215.97 484.54 216.94 484.81 217.94 C485.2 218.95 485.6 219.96 486 221 C486.99 221.33 487.98 221.66 489 222 C489 222.99 489 223.98 489 225 C489.66 225 490.32 225 491 225 C491.46 226.18 491.46 226.18 491.94 227.38 C492.93 229.92 492.93 229.92 494 232 C494.66 232 495.32 232 496 232 C496.25 232.89 496.5 233.77 496.75 234.69 C498.06 238.15 499.54 240.21 501.94 243 C504.89 246.55 506.97 249.85 509 254 C510.42 255.79 511.93 257.5 513.45 259.21 C516.52 262.76 519.16 266.59 521.56 270.62 C523.17 273.29 525.04 275.58 527 278 C527.87 279.12 528.72 280.24 529.56 281.38 C529.96 281.9 530.35 282.42 530.75 282.96 C534.95 289.83 535.43 295.31 535.39 303.24 C535.4 304.92 535.4 304.92 535.41 306.64 C535.43 310.41 535.42 314.17 535.42 317.93 C535.42 320.63 535.43 323.33 535.44 326.03 C535.46 331.84 535.47 337.64 535.47 343.45 C535.47 351.85 535.49 360.25 535.52 368.65 C535.56 382.28 535.58 395.91 535.6 409.54 C535.62 422.77 535.64 436.01 535.66 449.24 C535.66 450.06 535.67 450.88 535.67 451.72 C535.69 460.62 535.7 469.52 535.73 478.42 C535.73 479.2 535.73 479.99 535.73 480.79 C535.74 483.91 535.75 487.04 535.75 490.16 C535.78 499.32 535.79 508.47 535.8 517.63 C535.81 523.36 535.82 529.1 535.83 534.83 C535.84 538.15 535.84 541.46 535.84 544.77 C535.85 548.36 535.85 551.94 535.86 555.52 C535.86 556.58 535.86 557.64 535.86 558.73 C535.86 559.68 535.87 560.64 535.87 561.62 C535.87 562.45 535.87 563.27 535.87 564.13 C535.79 566.01 535.79 566.01 537 567 C538.92 567.1 540.84 567.12 542.76 567.12 C544.65 567.13 544.65 567.13 546.58 567.13 C547.99 567.13 549.41 567.12 550.83 567.12 C552.31 567.12 553.8 567.12 555.28 567.12 C559.4 567.13 563.51 567.12 567.62 567.12 C572.11 567.11 576.6 567.11 581.1 567.11 C589.83 567.11 598.56 567.11 607.29 567.1 C617.38 567.1 627.48 567.1 637.57 567.09 C664.23 567.09 690.9 567.08 717.56 567.06 C777.11 567.04 836.65 567.02 898 567 C898 395.07 898 223.14 898 46 C895.29 44.65 893.19 44.88 890.15 44.88 C888.27 44.87 888.27 44.87 886.35 44.87 C884.94 44.87 883.53 44.87 882.12 44.88 C880.63 44.88 879.14 44.88 877.65 44.87 C873.52 44.87 869.38 44.87 865.25 44.88 C860.77 44.88 856.29 44.88 851.81 44.88 C843.94 44.88 836.08 44.88 828.21 44.88 C816.52 44.89 804.82 44.89 793.13 44.89 C773.45 44.88 753.78 44.89 734.11 44.89 C714.63 44.9 695.14 44.9 675.66 44.91 C674.45 44.91 673.24 44.91 671.99 44.91 C665.84 44.91 659.7 44.91 653.55 44.91 C609.99 44.91 566.43 44.92 522.86 44.92 C480.53 44.93 438.21 44.94 395.88 44.95 C393.92 44.95 393.92 44.95 391.92 44.95 C378.83 44.95 365.73 44.95 352.64 44.95 C325.96 44.95 299.28 44.95 272.6 44.96 C270.76 44.96 270.76 44.96 268.89 44.96 C186.92 44.97 104.96 44.98 23 45 Z M459 261 C456.84 263.91 456.84 263.91 455 267 C454.01 267.5 454.01 267.5 453 268 C452.67 269.98 452.34 271.96 452 274 C457.94 274 463.88 274 470 274 C468.95 267.71 468.42 266.97 464 263 C463.67 262.34 463.34 261.68 463 261 C461.68 261 460.36 261 459 261 Z M430 319 C429.78 321.6 429.69 324.1 429.68 326.71 C429.67 327.51 429.66 328.31 429.65 329.14 C429.62 331.84 429.6 334.54 429.59 337.24 C429.57 339.16 429.55 341.09 429.53 343.01 C429.47 348.21 429.44 353.42 429.4 358.63 C429.37 362.95 429.33 367.27 429.29 371.59 C428.91 414.06 428.89 456.53 429 499 C432.19 500.06 434.48 500.13 437.83 500.13 C439.03 500.13 440.23 500.14 441.46 500.14 C443.4 500.14 443.4 500.14 445.38 500.13 C446.72 500.13 448.06 500.13 449.4 500.14 C452.2 500.14 455 500.14 457.81 500.13 C461.41 500.12 465 500.13 468.6 500.13 C471.37 500.14 474.13 500.14 476.89 500.13 C478.87 500.13 480.84 500.14 482.82 500.14 C484.01 500.14 485.2 500.13 486.43 500.13 C487.48 500.13 488.54 500.13 489.62 500.13 C491.95 500.27 491.95 500.27 493 499 C493.1 496.9 493.13 494.8 493.13 492.7 C493.13 492.03 493.13 491.36 493.13 490.68 C493.14 488.42 493.14 486.16 493.13 483.9 C493.13 482.28 493.14 480.66 493.14 479.04 C493.14 474.6 493.14 470.16 493.13 465.73 C493.13 462.95 493.12 460.17 493.12 457.39 C493.09 427.7 492.94 398.02 492.68 368.34 C492.64 364.02 492.61 359.71 492.58 355.39 C492.54 350.29 492.5 345.19 492.44 340.09 C492.42 338.21 492.41 336.32 492.4 334.43 C492.38 331.86 492.35 329.28 492.32 326.71 C492.32 325.95 492.31 325.19 492.31 324.41 C492.38 320.25 492.38 320.25 490 317 C487.47 316.69 487.47 316.69 484.48 316.74 C483.33 316.73 482.17 316.73 480.98 316.72 C479.1 316.73 479.1 316.73 477.19 316.73 C475.27 316.73 475.27 316.73 473.31 316.73 C470.6 316.73 467.89 316.73 465.18 316.74 C461.7 316.75 458.22 316.74 454.75 316.73 C451.44 316.72 448.12 316.73 444.81 316.73 C443.56 316.73 442.31 316.73 441.02 316.72 C439.29 316.73 439.29 316.73 437.52 316.74 C436.5 316.74 435.48 316.74 434.43 316.75 C431.82 316.76 431.82 316.76 430 319 Z M429 544 C429 551.59 429 559.18 429 567 C450.12 567 471.24 567 493 567 C493 559.41 493 551.82 493 544 C489.59 541.73 488.38 541.75 484.38 541.74 C483.23 541.73 482.08 541.73 480.89 541.72 C479.65 541.73 478.41 541.73 477.12 541.73 C475.85 541.73 474.57 541.73 473.26 541.73 C470.56 541.73 467.86 541.73 465.16 541.74 C461.7 541.75 458.24 541.74 454.78 541.73 C451.48 541.72 448.18 541.73 444.88 541.73 C443.63 541.73 442.39 541.73 441.11 541.72 C439.95 541.73 438.8 541.73 437.62 541.74 C436.6 541.74 435.59 541.74 434.54 541.75 C431.76 541.82 431.76 541.82 429 544 Z " fill="#000000" transform="translate(179,247)"/>
<path d="M0 0 C0.63 0.13 1.26 0.27 1.91 0.4 C5.99 1.25 10.04 2.05 14.19 2.5 C20.89 3.38 26.51 5.54 32.44 8.62 C33.07 8.95 33.71 9.27 34.37 9.61 C35.91 10.4 37.46 11.2 39 12 C39 12.66 39 13.32 39 14 C40.08 14.1 40.08 14.1 41.18 14.2 C44.89 15.26 46.48 17.09 49.12 19.88 C50.4 21.2 50.4 21.2 51.7 22.55 C52.84 23.77 52.84 23.77 54 25 C54.53 25.49 55.07 25.98 55.62 26.49 C61.41 32.81 64.62 42.27 67.58 50.21 C67.98 51.28 67.98 51.28 68.39 52.37 C68.59 52.91 68.79 53.44 69 54 C86.7 54.05 104.4 54.08 122.09 54.1 C130.31 54.11 138.53 54.13 146.74 54.15 C153.9 54.17 161.06 54.18 168.22 54.19 C172.02 54.19 175.81 54.2 179.6 54.21 C183.17 54.22 186.74 54.23 190.3 54.23 C192.24 54.23 194.18 54.24 196.12 54.25 C197.27 54.25 198.41 54.24 199.6 54.24 C200.6 54.24 201.6 54.24 202.63 54.25 C205.19 54.23 205.19 54.23 207 52 C207.21 48.91 207.21 48.91 207.06 45.38 C206.99 40.12 206.99 35.17 208 30 C208.66 29.67 209.32 29.34 210 29 C210.3 28.39 210.6 27.77 210.91 27.14 C212.14 24.74 213.43 23.52 215.5 21.81 C216.11 21.3 216.72 20.79 217.34 20.27 C220.87 17.57 223.6 17.87 228 17.85 C228.72 17.85 229.44 17.85 230.18 17.84 C232.57 17.84 234.97 17.83 237.36 17.83 C239.02 17.83 240.68 17.83 242.34 17.82 C245.83 17.82 249.32 17.81 252.81 17.81 C257.27 17.81 261.73 17.8 266.19 17.78 C269.63 17.77 273.06 17.77 276.5 17.77 C278.14 17.77 279.79 17.77 281.43 17.76 C283.74 17.75 286.05 17.75 288.35 17.76 C289.66 17.76 290.97 17.75 292.32 17.75 C296.77 18.05 301.22 18.54 304.75 21.44 C305.16 21.95 305.58 22.47 306 23 C306.7 23.68 306.7 23.68 307.41 24.37 C315.2 32.36 314.75 41.74 314.7 52.19 C314.71 53.86 314.71 55.53 314.72 57.2 C314.73 60.68 314.73 64.17 314.71 67.66 C314.68 72.1 314.71 76.55 314.75 81 C314.78 84.44 314.77 87.89 314.76 91.33 C314.76 92.97 314.77 94.61 314.79 96.25 C314.88 106.76 313.96 113.76 306.45 121.62 C300.88 126.91 294.62 127.12 287.28 127.13 C285.3 127.13 285.3 127.13 283.28 127.14 C281.86 127.14 280.43 127.14 279 127.13 C277.53 127.13 276.05 127.13 274.57 127.14 C271.48 127.14 268.4 127.14 265.31 127.13 C261.36 127.12 257.42 127.13 253.47 127.13 C250.42 127.14 247.37 127.14 244.33 127.13 C242.87 127.13 241.42 127.13 239.96 127.14 C237.93 127.14 235.89 127.13 233.85 127.13 C232.11 127.13 232.11 127.13 230.34 127.13 C226.84 126.99 223.46 126.55 220 126 C219.67 125.01 219.34 124.02 219 123 C217.67 122.65 216.34 122.31 215 122 C209.69 117.96 208.39 111.15 207 105 C206.49 102.8 206.01 101.02 205 99 C187.18 99 169.36 99 151 99 C150.67 99.66 150.34 100.32 150 101 C150.66 101 151.32 101 152 101 C152 101.66 152 102.32 152 103 C152.58 103.29 153.15 103.58 153.75 103.88 C154.49 104.25 155.24 104.62 156 105 C156.7 105.29 157.4 105.58 158.12 105.88 C160 107 160 107 160.8 108.75 C162.42 111.78 164.64 113.75 167.12 116.12 C168.79 117.71 170.42 119.33 172 121 C172 121.66 172 122.32 172 123 C172.99 123.33 173.98 123.66 175 124 C176.57 125.74 176.57 125.74 178.12 127.88 C178.64 128.57 179.16 129.27 179.7 129.99 C181 132 181 132 182 135 C182.66 135 183.32 135 184 135 C186 138 186 138 186 141 C186.99 141.33 187.98 141.66 189 142 C190.65 144.19 190.65 144.19 192.38 147 C192.99 148 193.6 148.99 194.23 150.02 C196.17 153.29 198.06 156.59 199.88 159.94 C200.93 161.88 202.02 163.78 203.12 165.69 C204.86 168.75 206.45 171.84 208 175 C208.84 176.52 208.84 176.52 209.69 178.06 C211.01 181.02 211.28 182.81 211 186 C211.66 186 212.32 186 213 186 C216.45 193.83 218.78 201.74 221 210 C227.93 210 234.86 210 242 210 C242 210.33 242 210.66 242 211 C244.97 211.66 247.94 212.32 251 213 C251.33 212.34 251.66 211.68 252 211 C252 211.66 252 212.32 252 213 C252.6 213.07 253.21 213.15 253.83 213.23 C260.44 214.31 260.44 214.31 263.31 217.81 C264.15 219.39 264.15 219.39 265 221 C266.03 222.08 266.03 222.08 267.08 223.19 C269.58 226.84 269.54 229.89 269.47 234.16 C269.47 234.97 269.47 235.78 269.48 236.62 C269.48 239.29 269.45 241.95 269.43 244.62 C269.42 246.49 269.42 248.36 269.42 250.23 C269.41 254.14 269.39 258.06 269.36 261.98 C269.32 266.97 269.3 271.96 269.29 276.94 C269.28 281.73 269.26 286.52 269.24 291.31 C269.23 292.21 269.23 293.11 269.23 294.04 C269.09 323.31 269.09 323.31 264.81 328.56 C257.29 335.84 251.15 337.16 240.9 337.13 C240.11 337.13 239.32 337.13 238.51 337.13 C235.91 337.14 233.32 337.14 230.72 337.13 C228.91 337.13 227.1 337.13 225.28 337.14 C221.49 337.14 217.69 337.14 213.9 337.13 C209.04 337.12 204.19 337.13 199.34 337.13 C195.6 337.14 191.85 337.14 188.11 337.13 C186.32 337.13 184.53 337.13 182.74 337.14 C180.24 337.14 177.73 337.13 175.23 337.13 C174.49 337.13 173.76 337.13 173.01 337.14 C168.56 337.12 164.37 336.72 160 336 C159.67 335.01 159.34 334.02 159 333 C157.67 332.65 156.34 332.31 155 332 C148.93 327.14 147.2 319.33 146 312 C145.91 309.39 145.86 306.82 145.87 304.21 C145.87 303.06 145.87 303.06 145.87 301.88 C145.86 299.36 145.86 296.83 145.87 294.3 C145.87 292.54 145.87 290.78 145.86 289.02 C145.86 285.34 145.86 281.66 145.87 277.98 C145.88 273.26 145.87 268.53 145.87 263.81 C145.86 260.18 145.86 256.55 145.87 252.92 C145.87 251.17 145.87 249.43 145.86 247.69 C145.86 245.26 145.87 242.83 145.87 240.4 C145.87 239.68 145.87 238.95 145.86 238.21 C145.89 233.23 145.89 233.23 147 231 C147.38 229.63 147.73 228.26 148.06 226.88 C148.37 225.6 148.68 224.32 149 223 C149.66 223 150.32 223 151 223 C151.33 221.35 151.66 219.7 152 218 C153.32 218 154.64 218 156 218 C156 217.01 156 216.02 156 215 C156.99 215 157.98 215 159 215 C159 214.34 159 213.68 159 213 C160.67 212.78 160.67 212.78 162.38 212.56 C165.82 212.22 165.82 212.22 168 211 C170.34 211.28 172.68 211.61 175 212 C174.64 211.11 174.28 210.22 173.91 209.3 C173.44 208.13 172.98 206.96 172.5 205.75 C172.04 204.59 171.57 203.43 171.09 202.23 C170 199 170 199 170 195 C169.34 195 168.68 195 168 195 C167.57 193.91 167.13 192.81 166.69 191.69 C165.47 188.83 164.25 187.15 162 185 C161.57 183.9 161.57 183.9 161.13 182.77 C159.87 179.69 158.29 177.06 156.5 174.25 C155.89 173.29 155.28 172.32 154.66 171.33 C153.21 168.91 153.21 168.91 151 168 C150.18 166.61 149.42 165.19 148.69 163.75 C146.55 159.74 144.28 157.09 141 154 C141 153.34 141 152.68 141 152 C140.01 151.67 139.02 151.34 138 151 C138 150.34 138 149.68 138 149 C137.34 149 136.68 149 136 149 C134.38 147.32 134.38 147.32 132.56 145.12 C130.42 142.54 128.83 140.89 126 139 C126 138.34 126 137.68 126 137 C125.01 136.67 124.02 136.34 123 136 C123 135.34 123 134.68 123 134 C122.16 133.63 122.16 133.63 121.31 133.25 C118.57 131.77 116.41 129.98 114 128 C101.18 117.54 84.97 107.34 69.06 102.31 C68.23 102.04 67.39 101.77 66.54 101.49 C63.6 100.92 61.81 100.99 59 102 C57.77 103.82 57.77 103.82 57 106 C53.69 111.21 50.07 115.02 45.02 118.55 C42.99 120.01 41.17 121.58 39.31 123.25 C35.09 126.91 31.65 128.32 26 128 C25.67 128.99 25.34 129.98 25 131 C17.8 133.66 10.4 133.3 2.81 133.25 C1.56 133.26 0.3 133.27 -1 133.27 C-2.21 133.27 -3.42 133.27 -4.67 133.27 C-5.76 133.26 -6.86 133.26 -7.99 133.26 C-11.06 132.99 -13.22 132.29 -16 131 C-16.82 130.67 -17.64 130.35 -18.48 130.01 C-22.65 128.34 -26.83 126.67 -31 125 C-31 124.34 -31 123.68 -31 123 C-31.62 122.86 -32.24 122.71 -32.88 122.56 C-35 122 -35 122 -37 121 C-37 120.34 -37 119.68 -37 119 C-37.8 118.63 -37.8 118.63 -38.62 118.25 C-46.17 114.28 -51.26 109.22 -54 101 C-63.44 102.86 -72.09 105.35 -80 111 C-80.78 111.31 -81.57 111.62 -82.38 111.94 C-85.54 113.22 -88.23 114.94 -91.09 116.78 C-92.54 117.71 -94.01 118.58 -95.5 119.44 C-98.57 121.36 -101.38 123.55 -104.23 125.79 C-106 127 -106 127 -108 127 C-108 127.66 -108 128.32 -108 129 C-109.09 129.64 -110.17 130.28 -111.29 130.94 C-116.88 134.3 -121.29 138.84 -125.84 143.45 C-127.32 144.94 -128.81 146.42 -130.31 147.9 C-131.26 148.86 -132.22 149.82 -133.18 150.78 C-134.03 151.64 -134.89 152.49 -135.77 153.38 C-138.09 156.1 -139.54 158.74 -141 162 C-141.66 162 -142.32 162 -143 162 C-144.21 164.33 -145.17 166.5 -146 169 C-146.66 169 -147.32 169 -148 169 C-148.37 169.77 -148.37 169.77 -148.75 170.56 C-150.08 173.15 -151.53 175.66 -152.98 178.18 C-154.42 180.74 -155.71 183.36 -157 186 C-157.66 186 -158.32 186 -159 186 C-159.15 187.08 -159.15 187.08 -159.31 188.19 C-160 191 -160 191 -161.41 193.33 C-163.02 196.03 -164.08 198.6 -165.12 201.56 C-165.46 202.49 -165.79 203.42 -166.13 204.38 C-166.85 206.56 -167.44 208.78 -168 211 C-165.03 211.66 -162.06 212.32 -159 213 C-158.67 212.34 -158.34 211.68 -158 211 C-158 211.66 -158 212.32 -158 213 C-156.87 212.92 -155.73 212.84 -154.56 212.75 C-151.07 213.15 -150.01 213.99 -147.5 216.56 C-143.91 221.09 -140.78 225.16 -140 231 C-139.67 231.99 -139.34 232.98 -139 234 C-138.9 236.57 -138.85 239.11 -138.85 241.68 C-138.85 242.46 -138.85 243.24 -138.84 244.05 C-138.84 246.63 -138.83 249.22 -138.83 251.8 C-138.83 253.6 -138.83 255.4 -138.82 257.19 C-138.82 260.96 -138.81 264.73 -138.81 268.5 C-138.81 273.33 -138.8 278.15 -138.78 282.98 C-138.77 286.69 -138.77 290.41 -138.77 294.12 C-138.77 295.9 -138.77 297.68 -138.76 299.46 C-138.75 301.95 -138.75 304.44 -138.76 306.93 C-138.75 307.66 -138.75 308.39 -138.74 309.15 C-138.77 313.5 -139.51 316.93 -141 321 C-141 321.99 -141 322.98 -141 324 C-141.66 324 -142.32 324 -143 324 C-143.26 324.59 -143.51 325.17 -143.77 325.77 C-145.13 328.23 -146.55 329.75 -148.62 331.62 C-149.26 332.22 -149.89 332.81 -150.54 333.41 C-156.2 337.07 -162.76 337.3 -169.31 337.26 C-170.49 337.26 -170.49 337.26 -171.7 337.27 C-174.28 337.28 -176.86 337.27 -179.44 337.27 C-181.25 337.27 -183.05 337.27 -184.86 337.27 C-188.64 337.27 -192.42 337.27 -196.2 337.26 C-201.03 337.25 -205.85 337.26 -210.68 337.27 C-214.41 337.28 -218.14 337.27 -221.87 337.27 C-223.65 337.27 -225.43 337.27 -227.21 337.27 C-229.71 337.28 -232.2 337.27 -234.69 337.26 C-235.42 337.26 -236.14 337.27 -236.89 337.27 C-242.95 337.22 -248.24 335.92 -254 334 C-254 333.34 -254 332.68 -254 332 C-254.64 331.73 -255.28 331.46 -255.94 331.19 C-258 330 -258 330 -259 327 C-259.66 327 -260.32 327 -261 327 C-261 325.68 -261 324.36 -261 323 C-261.99 323 -262.98 323 -264 323 C-264.85 317.88 -265.14 312.91 -265.13 307.71 C-265.13 306.92 -265.13 306.12 -265.13 305.3 C-265.14 302.68 -265.14 300.06 -265.13 297.44 C-265.13 295.61 -265.13 293.78 -265.14 291.95 C-265.14 288.11 -265.14 284.28 -265.13 280.45 C-265.12 275.55 -265.13 270.66 -265.13 265.76 C-265.14 261.98 -265.14 258.2 -265.13 254.42 C-265.13 252.61 -265.13 250.81 -265.14 249 C-265.14 246.47 -265.13 243.95 -265.13 241.42 C-265.13 240.68 -265.13 239.94 -265.14 239.18 C-265.08 225.08 -265.08 225.08 -260 220 C-259.43 219.4 -258.86 218.8 -258.27 218.18 C-253.93 213.91 -250.81 212.21 -244.69 211.97 C-244.13 211.98 -243.57 211.99 -243 212 C-243 211.34 -243 210.68 -243 210 C-234.09 210 -225.18 210 -216 210 C-216 209.34 -216 208.68 -216 208 C-215.34 208 -214.68 208 -214 208 C-214.06 207.17 -214.12 206.35 -214.19 205.5 C-213.96 201.19 -212.61 197.95 -211 194 C-210.32 192 -209.65 190 -209 188 C-208.67 188 -208.34 188 -208 188 C-207.88 187.03 -207.75 186.06 -207.62 185.06 C-207.42 184.05 -207.21 183.04 -207 182 C-206.34 181.67 -205.68 181.34 -205 181 C-204.17 178.92 -204.17 178.92 -203.5 176.5 C-202.78 174.03 -202.78 174.03 -202 172 C-201.34 171.67 -200.68 171.34 -200 171 C-199.17 168.92 -199.17 168.92 -198.5 166.5 C-197.78 164.03 -197.78 164.03 -197 162 C-196.34 161.67 -195.68 161.34 -195 161 C-193.22 158.33 -192.12 155.97 -191 153 C-190.34 153 -189.68 153 -189 153 C-188.92 152.22 -188.83 151.43 -188.75 150.62 C-188.5 149.76 -188.25 148.89 -188 148 C-186.67 147.33 -185.33 146.67 -184 146 C-183.33 143.56 -183.33 143.56 -183 141 C-182.34 140.01 -181.68 139.02 -181 138 C-180.34 138 -179.68 138 -179 138 C-178.67 137.01 -178.34 136.02 -178 135 C-176.02 132.15 -173.79 129.54 -171.5 126.94 C-170.91 126.27 -170.32 125.59 -169.72 124.9 C-168 123 -168 123 -166.34 121.41 C-164.79 119.98 -164.79 119.98 -164.12 117.44 C-163 115 -163 115 -160.75 114.12 C-157.25 112.69 -155.82 110.64 -153.48 107.75 C-151.57 105.49 -149.36 103.77 -147 102 C-146.34 101.34 -145.68 100.68 -145 100 C-147.49 98.76 -149.22 98.84 -152 98.79 C-153.04 98.77 -154.08 98.75 -155.15 98.73 C-156.28 98.72 -157.41 98.7 -158.57 98.68 C-159.72 98.66 -160.87 98.64 -162.06 98.62 C-165.75 98.56 -169.44 98.5 -173.12 98.44 C-175.62 98.39 -178.12 98.35 -180.61 98.31 C-186.74 98.2 -192.87 98.1 -199 98 C-199.11 99.1 -199.22 100.2 -199.34 101.33 C-199.5 102.78 -199.66 104.24 -199.82 105.69 C-199.89 106.41 -199.96 107.13 -200.04 107.88 C-200.63 113.1 -201.94 116.63 -205.37 120.71 C-207 122 -207 122 -209.13 122.5 C-209.75 122.67 -210.37 122.83 -211 123 C-211.5 124.49 -211.5 124.49 -212 126 C-216.65 126.74 -221.12 127.13 -225.83 127.15 C-227.15 127.15 -228.47 127.16 -229.83 127.16 C-231.25 127.17 -232.67 127.17 -234.09 127.17 C-235.57 127.17 -237.04 127.17 -238.52 127.18 C-241.6 127.18 -244.69 127.19 -247.77 127.19 C-251.71 127.19 -255.64 127.2 -259.58 127.22 C-262.62 127.23 -265.67 127.23 -268.71 127.23 C-270.16 127.23 -271.61 127.23 -273.07 127.24 C-275.1 127.25 -277.13 127.25 -279.17 127.24 C-280.32 127.24 -281.47 127.25 -282.66 127.25 C-289.2 126.76 -293.69 124.74 -299 121 C-299.99 120.67 -300.98 120.34 -302 120 C-302.33 117.69 -302.66 115.38 -303 113 C-303.66 113 -304.32 113 -305 113 C-307.4 109.4 -307.27 106.84 -307.23 102.68 C-307.23 101.94 -307.23 101.2 -307.23 100.44 C-307.23 97.98 -307.21 95.53 -307.2 93.08 C-307.19 91.38 -307.19 89.68 -307.19 87.98 C-307.18 83.51 -307.16 79.04 -307.14 74.56 C-307.12 70 -307.11 65.43 -307.1 60.87 C-307.08 51.91 -307.04 42.96 -307 34 C-306.01 33.5 -306.01 33.5 -305 33 C-303.98 30.48 -303.14 27.93 -302.29 25.35 C-300.62 22.31 -299.22 22.07 -296 21 C-295.44 20.49 -294.89 19.99 -294.31 19.47 C-291.08 17.42 -288.09 17.6 -284.39 17.66 C-283.62 17.66 -282.86 17.66 -282.08 17.66 C-279.57 17.66 -277.06 17.68 -274.55 17.71 C-272.8 17.71 -271.06 17.72 -269.32 17.72 C-264.73 17.73 -260.15 17.76 -255.57 17.79 C-250.89 17.82 -246.21 17.84 -241.53 17.85 C-232.35 17.89 -223.18 17.94 -214 18 C-214 18.66 -214 19.32 -214 20 C-213.44 20.1 -212.89 20.21 -212.31 20.31 C-209.5 21.15 -207.38 22.28 -205 24 C-205 24.99 -205 25.98 -205 27 C-204.34 27 -203.68 27 -203 27 C-200.89 30.42 -200.91 33.04 -201 37 C-200.67 37.33 -200.34 37.66 -200 38 C-200 42.95 -200 47.9 -200 53 C-154.46 53 -108.92 53 -62 53 C-62 51.35 -62 49.7 -62 48 C-61.34 48 -60.68 48 -60 48 C-59.67 45.69 -59.34 43.38 -59 41 C-58.34 41 -57.68 41 -57 41 C-57 39.35 -57 37.7 -57 36 C-56.34 36 -55.68 36 -55 36 C-54.67 35.34 -54.34 34.68 -54 34 C-54.66 33.67 -55.32 33.34 -56 33 C-55.34 33 -54.68 33 -54 33 C-54 32.34 -54 31.68 -54 31 C-53.34 31 -52.68 31 -52 31 C-51.67 30.01 -51.34 29.02 -51 28 C-49.63 24.83 -47.97 22.72 -45.5 20.31 C-44.89 19.71 -44.28 19.11 -43.66 18.49 C-41.76 16.79 -40.52 16.08 -38 15.69 C-35.82 15.19 -35.82 15.19 -34.94 13.06 C-34.47 12.04 -34.47 12.04 -34 11 C-32.51 10.01 -32.51 10.01 -31 9 C-30.01 9.33 -29.02 9.66 -28 10 C-28 9.34 -28 8.68 -28 8 C-24.08 6.34 -20.11 5.13 -16 4 C-16 3.67 -16 3.34 -16 3 C-10.72 2.34 -5.44 1.68 0 1 C0 0.67 0 0.34 0 0 Z M-301 24 C-300.67 24.66 -300.34 25.32 -300 26 C-299.67 25.34 -299.34 24.68 -299 24 C-299.66 24 -300.32 24 -301 24 Z M-15 55 C-19.53 60.81 -19.7 65.16 -19.53 72.35 C-18.78 77.53 -16.75 80.47 -13 84 C-12.34 84.66 -11.68 85.32 -11 86 C-10.01 86 -9.02 86 -8 86 C-8 86.66 -8 87.32 -8 88 C-2.55 89.39 2.37 90.24 8 90 C8 89.34 8 88.68 8 88 C8.72 88.1 9.43 88.19 10.17 88.29 C14.13 87.88 15.49 86.18 18.25 83.38 C19.12 82.52 19.99 81.66 20.89 80.77 C23.23 77.7 23.56 75.77 24 72 C24.66 71.34 25.32 70.68 26 70 C25.67 65.21 24.01 61.32 22 57 C21.65 55.97 21.3 54.94 20.94 53.88 C17.45 48.69 12.1 46.78 6.18 45.29 C-3.33 43.88 -8.86 48.01 -15 55 Z M-198 54 C-198 54.33 -198 54.66 -198 55 C-153.12 55 -108.24 55 -62 55 C-62 54.67 -62 54.34 -62 54 C-106.88 54 -151.76 54 -198 54 Z M-262 60 C-262 60.33 -262 60.66 -262 61 C-256.72 61 -251.44 61 -246 61 C-246 60.67 -246 60.34 -246 60 C-251.28 60 -256.56 60 -262 60 Z M253 60 C253 60.33 253 60.66 253 61 C258.28 61 263.56 61 269 61 C269 60.67 269 60.34 269 60 C263.72 60 258.44 60 253 60 Z M-264 61 C-264.02 64.26 -264.04 67.52 -264.06 70.88 C-264.07 71.9 -264.08 72.93 -264.09 73.98 C-264.09 74.79 -264.1 75.6 -264.1 76.43 C-264.1 77.26 -264.11 78.08 -264.11 78.94 C-264.13 81.06 -264.13 81.06 -263 83 C-256.73 83 -250.46 83 -244 83 C-244 76.07 -244 69.14 -244 62 C-250.6 61.67 -257.2 61.34 -264 61 Z M251 61 C250.98 64.26 250.96 67.52 250.94 70.88 C250.93 71.9 250.92 72.93 250.91 73.98 C250.91 74.79 250.9 75.6 250.9 76.43 C250.9 77.26 250.89 78.08 250.89 78.94 C250.87 81.06 250.87 81.06 252 83 C258.27 83 264.54 83 271 83 C271 76.07 271 69.14 271 62 C264.4 61.67 257.8 61.34 251 61 Z M-203 176 C-202 178 -202 178 -202 178 Z M-222 257 C-222.12 259.56 -222.11 262.01 -222.01 264.56 C-221.99 265.31 -221.97 266.06 -221.94 266.83 C-221.89 268.41 -221.84 269.99 -221.78 271.57 C-221.69 273.99 -221.61 276.41 -221.54 278.84 C-221.49 280.37 -221.44 281.9 -221.39 283.44 C-221.36 284.16 -221.34 284.89 -221.32 285.64 C-221.22 289.45 -221.22 289.45 -220 293 C-208.12 293 -196.24 293 -184 293 C-183.96 287.1 -183.92 281.2 -183.88 275.12 C-183.86 273.26 -183.84 271.4 -183.82 269.48 C-183.81 268.01 -183.81 266.54 -183.8 265.07 C-183.79 263.92 -183.79 263.92 -183.77 262.75 C-183.77 260.83 -183.88 258.91 -184 257 C-186.49 254.51 -187.96 254.75 -191.36 254.72 C-192.09 254.73 -192.81 254.73 -193.56 254.73 C-194.31 254.73 -195.06 254.73 -195.83 254.73 C-197.41 254.73 -198.99 254.73 -200.57 254.74 C-202.99 254.75 -205.41 254.74 -207.84 254.73 C-209.37 254.73 -210.9 254.73 -212.44 254.73 C-213.16 254.73 -213.89 254.73 -214.64 254.72 C-218.77 254.63 -218.77 254.63 -222 257 Z M191 256 C190.98 260.95 190.96 265.9 190.95 270.84 C190.94 272.53 190.93 274.21 190.92 275.9 C190.91 278.31 190.91 280.73 190.9 283.15 C190.9 283.9 190.89 284.66 190.89 285.44 C190.81 289.35 190.81 289.35 192 293 C203.22 293 214.44 293 226 293 C226.05 287.91 226.09 282.82 226.11 277.73 C226.12 276 226.13 274.26 226.15 272.53 C226.18 270.04 226.19 267.56 226.2 265.07 C226.21 264.29 226.22 263.52 226.23 262.72 C226.23 260.81 226.12 258.9 226 257 C224.11 254.68 224.11 254.68 220.96 254.76 C219.68 254.76 218.41 254.77 217.09 254.77 C216.41 254.77 215.73 254.77 215.03 254.77 C213.59 254.77 212.15 254.78 210.71 254.79 C208.51 254.81 206.3 254.81 204.1 254.81 C197.34 254.43 197.34 254.43 191 256 Z " fill="#000000" transform="translate(636,309)"/>
<path d="M0 0 C141.9 0 283.8 0 430 0 C430 0.33 430 0.66 430 1 C288.1 1 146.2 1 0 1 C0 0.67 0 0.34 0 0 Z " fill="#FDFDFD" transform="translate(44,955)"/>
<path d="M0 0 C44.55 0 89.1 0 135 0 C135 0.33 135 0.66 135 1 C90.45 1 45.9 1 0 1 C0 0.67 0 0.34 0 0 Z " fill="#000000" transform="translate(705,362)"/>
<path d="M0 0 C19.14 0 38.28 0 58 0 C58 0.33 58 0.66 58 1 C38.86 1 19.72 1 0 1 C0 0.67 0 0.34 0 0 Z " fill="#FCFDFD" transform="translate(611,790)"/>
<path d="M0 0 C0.33 0 0.66 0 1 0 C1 7.92 1 15.84 1 24 C0.67 24 0.34 24 0 24 C0 16.08 0 8.16 0 0 Z " fill="#000000" transform="translate(669,568)"/>
<path d="M0 0 C5.28 0 10.56 0 16 0 C16 0.33 16 0.66 16 1 C10.72 1 5.44 1 0 1 C0 0.67 0 0.34 0 0 Z " fill="#000000" transform="translate(632,519)"/>
<path d="M0 0 C0.33 0 0.66 0 1 0 C1 4.62 1 9.24 1 14 C0.67 14 0.34 14 0 14 C0 9.38 0 4.76 0 0 Z " fill="#000000" transform="translate(669,609)"/>
<path d="M0 0 C0.33 0 0.66 0 1 0 C1 3.96 1 7.92 1 12 C0.67 12 0.34 12 0 12 C0 8.04 0 4.08 0 0 Z " fill="#000000" transform="translate(842,348)"/>
<path d="M0 0 C0.33 0 0.66 0 1 0 C1 3.63 1 7.26 1 11 C0.67 11 0.34 11 0 11 C0 7.37 0 3.74 0 0 Z " fill="#000000" transform="translate(669,641)"/>
<path d="M0 0 C0.33 0 0.66 0 1 0 C1 2.64 1 5.28 1 8 C0.67 8 0.34 8 0 8 C0 5.36 0 2.72 0 0 Z " fill="#FDFDFD" transform="translate(1120,833)"/>
<path d="M0 0 C0.33 0 0.66 0 1 0 C1 2.31 1 4.62 1 7 C0.67 7 0.34 7 0 7 C0 4.69 0 2.38 0 0 Z " fill="#000000" transform="translate(669,653)"/>
<path d="M0 0 C0.33 0 0.66 0 1 0 C1 2.31 1 4.62 1 7 C0.67 7 0.34 7 0 7 C0 4.69 0 2.38 0 0 Z " fill="#FDFDFD" transform="translate(905,620)"/>
<path d="M0 0 C0.33 0 0.66 0 1 0 C1 2.31 1 4.62 1 7 C0.67 7 0.34 7 0 7 C0 4.69 0 2.38 0 0 Z " fill="#000000" transform="translate(669,593)"/>
<path d="M0 0 C0.33 0 0.66 0 1 0 C1 2.31 1 4.62 1 7 C0.67 7 0.34 7 0 7 C0 4.69 0 2.38 0 0 Z " fill="#FDFDFD" transform="translate(415,566)"/>
<path d="M0 0 C0.66 0.33 1.32 0.66 2 1 C0.68 1.99 -0.64 2.98 -2 4 C-1.34 2.68 -0.68 1.36 0 0 Z " fill="#000000" transform="translate(479,418)"/>
<path d="M0 0 C0.33 0 0.66 0 1 0 C1 1.98 1 3.96 1 6 C0.67 6 0.34 6 0 6 C0 4.02 0 2.04 0 0 Z " fill="#000000" transform="translate(669,625)"/>
<path d="M0 0 C0.33 0 0.66 0 1 0 C1 1.98 1 3.96 1 6 C0.67 6 0.34 6 0 6 C0 4.02 0 2.04 0 0 Z " fill="#000000" transform="translate(669,602)"/>
<path d="M0 0 C1.98 0 3.96 0 6 0 C6 0.33 6 0.66 6 1 C4.02 1 2.04 1 0 1 C0 0.67 0 0.34 0 0 Z " fill="#000000" transform="translate(804,519)"/>
<path d="M0 0 C1 4 1 4 1 4 Z " fill="#FDFDFD" transform="translate(950,411)"/>
<path d="M0 0 C0.99 0.5 0.99 0.5 2 1 C1.01 1.5 1.01 1.5 0 2 C0 1.34 0 0.68 0 0 Z " fill="#000000" transform="translate(760,937)"/>
<path d="M0 0 C0.99 0.5 0.99 0.5 2 1 C1.01 1.5 1.01 1.5 0 2 C0 1.34 0 0.68 0 0 Z " fill="#000000" transform="translate(481,416)"/>
<path d="" fill="#000000" transform="translate(0,0)"/>
<path d="M0 0 C2 1 2 1 2 1 Z " fill="#000000" transform="translate(935,327)"/>
<path d="" fill="#FDFDFD" transform="translate(0,0)"/>
<path d="" fill="#FDFDFD" transform="translate(0,0)"/>
<path d="" fill="#000000" transform="translate(0,0)"/>
<path d="" fill="#000000" transform="translate(0,0)"/>
<path d="" fill="#000000" transform="translate(0,0)"/>
<path d="" fill="#000000" transform="translate(0,0)"/>
<path d="" fill="#000000" transform="translate(0,0)"/>
<path d="" fill="#000000" transform="translate(0,0)"/>
<path d="" fill="#000000" transform="translate(0,0)"/>
<path d="" fill="#000000" transform="translate(0,0)"/>
<path d="" fill="#000000" transform="translate(0,0)"/>
<path d="" fill="#000000" transform="translate(0,0)"/>
<path d="" fill="#000000" transform="translate(0,0)"/>
<path d="" fill="#FDFDFD" transform="translate(0,0)"/>
<path d="" fill="#FDFDFD" transform="translate(0,0)"/>
<path d="" fill="#000000" transform="translate(0,0)"/>
<path d="" fill="#000000" transform="translate(0,0)"/>
<path d="" fill="#000000" transform="translate(0,0)"/>
<path d="" fill="#000000" transform="translate(0,0)"/>
<path d="" fill="#000000" transform="translate(0,0)"/>
<path d="" fill="#000000" transform="translate(0,0)"/>
<path d="" fill="#000000" transform="translate(0,0)"/>
<path d="" fill="#000000" transform="translate(0,0)"/>
<path d="" fill="#000000" transform="translate(0,0)"/>
<path d="" fill="#000000" transform="translate(0,0)"/>
<path d="" fill="#FDFDFD" transform="translate(0,0)"/>
<path d="" fill="#FDFDFD" transform="translate(0,0)"/>
<path d="" fill="#FDFDFD" transform="translate(0,0)"/>
<path d="" fill="#000000" transform="translate(0,0)"/>
<path d="" fill="#FDFDFD" transform="translate(0,0)"/>
<path d="" fill="#000000" transform="translate(0,0)"/>
<path d="" fill="#000000" transform="translate(0,0)"/>
<path d="" fill="#000000" transform="translate(0,0)"/>
<path d="" fill="#000000" transform="translate(0,0)"/>
<path d="" fill="#000000" transform="translate(0,0)"/>
<path d="" fill="#000000" transform="translate(0,0)"/>
<path d="" fill="#000000" transform="translate(0,0)"/>
<path d="" fill="#000000" transform="translate(0,0)"/>
<path d="" fill="#000000" transform="translate(0,0)"/>
<path d="" fill="#000000" transform="translate(0,0)"/>
<path d="" fill="#000000" transform="translate(0,0)"/>
<path d="" fill="#FDFDFD" transform="translate(0,0)"/>
<path d="" fill="#FDFDFD" transform="translate(0,0)"/>
<path d="" fill="#FDFDFD" transform="translate(0,0)"/>
<path d="" fill="#FDFDFD" transform="translate(0,0)"/>
<path d="" fill="#000000" transform="translate(0,0)"/>
<path d="" fill="#000000" transform="translate(0,0)"/>
<path d="" fill="#FDFDFD" transform="translate(0,0)"/>
<path d="" fill="#000000" transform="translate(0,0)"/>
<path d="" fill="#FDFDFD" transform="translate(0,0)"/>
<path d="" fill="#FDFDFD" transform="translate(0,0)"/>
<path d="" fill="#000000" transform="translate(0,0)"/>
<path d="" fill="#000000" transform="translate(0,0)"/>
<path d="" fill="#000000" transform="translate(0,0)"/>
<path d="" fill="#000000" transform="translate(0,0)"/>
<path d="" fill="#000000" transform="translate(0,0)"/>
<path d="" fill="#FDFDFD" transform="translate(0,0)"/>
<path d="" fill="#000000" transform="translate(0,0)"/>
<path d="" fill="#000000" transform="translate(0,0)"/>
<path d="" fill="#000000" transform="translate(0,0)"/>
<path d="" fill="#FDFDFD" transform="translate(0,0)"/>
<path d="" fill="#FDFDFD" transform="translate(0,0)"/>
<path d="" fill="#FDFDFD" transform="translate(0,0)"/>
<path d="" fill="#FDFDFD" transform="translate(0,0)"/>
<path d="" fill="#000000" transform="translate(0,0)"/>
<path d="" fill="#000000" transform="translate(0,0)"/>
<path d="" fill="#000000" transform="translate(0,0)"/>
<path d="" fill="#000000" transform="translate(0,0)"/>
<path d="" fill="#000000" transform="translate(0,0)"/>
<path d="" fill="#000000" transform="translate(0,0)"/>
<path d="" fill="#000000" transform="translate(0,0)"/>
</svg>
