<?xml version="1.0" encoding="UTF-8"?>
<!-- Generator: visioncortex VTracer 0.6.3 -->
<svg version="1.1" xmlns="http://www.w3.org/2000/svg" width="1280" height="1280">
<path d="M0 0 C4.54 0.01 9.09 0 13.63 -0 C21.25 -0.01 28.86 -0 36.48 0.01 C45.17 0.02 53.86 0.02 62.54 0 C70.13 -0 77.72 -0.01 85.3 -0 C89.78 0 94.26 0 98.73 -0 C117.3 -0.03 135.81 0.25 154.36 1.22 C155.6 1.29 155.6 1.29 156.87 1.35 C159.2 1.48 161.53 1.61 163.86 1.74 C164.55 1.78 165.24 1.82 165.95 1.86 C168.87 2.04 171.27 2.34 174.07 3.27 C177.71 3.73 181.35 4.13 185 4.52 C190.87 5.17 190.87 5.17 193.07 6.27 C194.46 6.4 195.86 6.5 197.26 6.58 C203.1 7.11 208.53 8.64 214.17 10.22 C219.08 11.58 224.06 12.57 229.05 13.56 C231.89 14.23 234.37 15.17 237.07 16.27 C238.96 16.75 240.86 17.21 242.76 17.64 C249.71 19.34 256.05 21.92 262.57 24.83 C265.4 25.99 268.08 26.88 271.01 27.71 C274.82 28.82 278.14 30.19 281.63 32.05 C284.93 33.7 288.31 35.13 291.7 36.58 C299.31 39.86 306.7 43.48 314.07 47.27 C314.07 47.93 314.07 48.59 314.07 49.27 C316.55 49.76 316.55 49.76 319.07 50.27 C319.07 50.93 319.07 51.59 319.07 52.27 C320.39 52.27 321.71 52.27 323.07 52.27 C323.07 52.93 323.07 53.59 323.07 54.27 C323.94 54.45 323.94 54.45 324.82 54.64 C327.09 55.28 329 56.16 331.07 57.27 C331.07 57.93 331.07 58.59 331.07 59.27 C331.94 59.45 331.94 59.45 332.82 59.64 C335.09 60.28 337 61.16 339.07 62.27 C339.07 62.93 339.07 63.59 339.07 64.27 C339.65 64.38 340.23 64.49 340.83 64.61 C343.29 65.33 344.84 66.31 346.91 67.82 C347.63 68.35 348.36 68.88 349.11 69.42 C349.88 69.99 350.65 70.56 351.45 71.14 C352.24 71.72 353.03 72.3 353.85 72.9 C360.09 77.48 366.2 82.2 372.25 87.03 C373.95 88.38 375.68 89.7 377.45 90.95 C378.25 91.6 378.25 91.6 379.07 92.27 C379.07 92.93 379.07 93.59 379.07 94.27 C379.65 94.53 380.23 94.79 380.82 95.06 C383.22 96.35 384.99 97.82 387.01 99.64 C389.22 101.63 391.42 103.55 393.76 105.39 C396.39 107.53 398.77 109.77 401.07 112.27 C401.07 112.93 401.07 113.59 401.07 114.27 C402.06 114.6 403.05 114.93 404.07 115.27 C404.07 115.93 404.07 116.59 404.07 117.27 C404.73 117.27 405.39 117.27 406.07 117.27 C407.41 118.6 407.41 118.6 409.01 120.52 C411.28 123.2 413.58 125.84 415.98 128.4 C416.48 128.94 416.98 129.47 417.49 130.03 C418.5 131.1 419.5 132.17 420.51 133.23 C424.07 137.05 424.07 137.05 424.07 139.27 C424.73 139.27 425.39 139.27 426.07 139.27 C429.07 142.73 429.07 142.73 429.07 145.27 C429.73 145.27 430.39 145.27 431.07 145.27 C432.41 146.9 433.67 148.6 434.88 150.33 C435.59 151.33 436.3 152.33 437.03 153.36 C438.04 154.8 438.04 154.8 439.07 156.27 C440.07 157.62 441.07 158.98 442.07 160.33 C444.07 163.27 444.07 163.27 444.07 165.27 C444.73 165.27 445.39 165.27 446.07 165.27 C447.55 167.29 447.55 167.29 449.26 170.08 C450.19 171.59 450.19 171.59 451.14 173.13 C451.78 174.16 452.41 175.2 453.07 176.27 C454.25 178.12 455.44 179.98 456.63 181.83 C461.61 189.68 466.28 197.5 470.36 205.86 C472.02 209.16 473.74 212.41 475.5 215.66 C478.75 221.71 481.85 227.66 484.25 234.11 C485.06 236.24 485.98 238.27 486.95 240.33 C489.87 246.81 492.05 253.58 494.37 260.29 C495.28 262.86 496.24 265.41 497.2 267.96 C499.51 274.29 501.28 280.77 503.07 287.27 C503.35 288.25 503.63 289.24 503.92 290.25 C506.47 299.34 508.15 308.48 509.61 317.8 C509.95 320.26 509.95 320.26 511.07 322.27 C511.25 324.08 511.39 325.89 511.51 327.71 C511.8 331.61 512.22 335.37 513.01 339.21 C515.64 353.29 516.28 367.48 516.37 381.78 C516.38 383.29 516.39 384.79 516.41 386.3 C516.53 396.9 515.63 406.95 513.07 417.27 C512.74 417.6 512.41 417.93 512.07 418.27 C511.97 419.26 511.86 420.25 511.76 421.27 C511.15 426.02 509.11 429.98 507.07 434.27 C506.07 436.6 505.07 438.93 504.07 441.27 C503.51 442.58 502.95 443.89 502.38 445.21 C501.73 446.72 501.73 446.72 501.07 448.27 C500.41 448.27 499.75 448.27 499.07 448.27 C498.95 448.85 498.82 449.42 498.7 450.02 C498.06 452.29 497.18 454.19 496.07 456.27 C495.41 456.27 494.75 456.27 494.07 456.27 C493.76 457.05 493.45 457.84 493.13 458.64 C492.07 461.27 492.07 461.27 491.07 463.27 C490.41 463.27 489.75 463.27 489.07 463.27 C488.81 463.84 488.55 464.42 488.29 465.01 C484.22 472.57 477.12 478.1 470.49 483.32 C468.13 485.14 468.13 485.14 466.44 486.91 C464.59 488.75 462.42 489.86 460.14 491.1 C458.67 491.93 457.21 492.81 455.78 493.72 C449.76 497.52 443.8 500.01 437.07 502.27 C435.73 502.78 434.4 503.3 433.07 503.83 C431.74 504.32 430.41 504.8 429.07 505.27 C428.34 505.53 427.62 505.78 426.87 506.05 C408.91 511.69 388.83 510.56 370.25 510.53 C366.68 510.52 363.11 510.53 359.54 510.53 C353.31 510.54 347.07 510.54 340.84 510.53 C331.57 510.53 322.3 510.53 313.03 510.54 C296.47 510.55 279.91 510.55 263.35 510.54 C248.86 510.54 234.37 510.53 219.87 510.54 C218.43 510.54 218.43 510.54 216.95 510.54 C213.04 510.54 209.13 510.54 205.22 510.54 C168.58 510.54 131.93 510.54 95.29 510.53 C62.76 510.52 30.24 510.52 -2.28 510.53 C-38.86 510.54 -75.44 510.54 -112.02 510.54 C-115.93 510.54 -119.83 510.54 -123.73 510.54 C-124.69 510.54 -125.65 510.54 -126.64 510.54 C-141.12 510.53 -155.6 510.54 -170.08 510.54 C-186.56 510.55 -203.03 510.55 -219.5 510.53 C-228.71 510.53 -237.92 510.53 -247.12 510.54 C-253.29 510.54 -259.45 510.54 -265.61 510.53 C-269.12 510.52 -272.62 510.52 -276.12 510.53 C-288.34 510.55 -300.5 510.52 -312.67 509.4 C-313.48 509.32 -314.3 509.25 -315.14 509.17 C-330.46 507.54 -345.7 501.82 -358.7 493.66 C-360.56 492.5 -362.49 491.43 -364.43 490.39 C-369.35 487.6 -373.6 483.88 -377.93 480.27 C-378.73 479.61 -379.53 478.95 -380.35 478.26 C-384.51 474.74 -384.51 474.74 -385.93 473.27 C-385.93 472.61 -385.93 471.95 -385.93 471.27 C-386.59 471.27 -387.25 471.27 -387.93 471.27 C-392.93 465.79 -392.93 465.79 -392.93 463.27 C-393.59 463.27 -394.25 463.27 -394.93 463.27 C-397.93 458.88 -397.93 458.88 -397.93 456.27 C-398.59 456.27 -399.25 456.27 -399.93 456.27 C-401.97 453.36 -402.93 451.87 -402.93 448.27 C-403.59 448.27 -404.25 448.27 -404.93 448.27 C-408.37 441.9 -410.98 435.56 -413.13 428.64 C-413.71 426.34 -413.71 426.34 -414.93 425.27 C-415.07 424.2 -415.22 423.12 -415.37 422.02 C-415.76 418.43 -415.76 418.43 -416.9 415.86 C-420.68 406.38 -420.22 395.77 -420.14 385.74 C-420.12 383.38 -420.11 381.01 -420.12 378.65 C-420.11 377.13 -420.1 375.61 -420.1 374.09 C-420.1 373.39 -420.1 372.7 -420.09 371.98 C-420.06 367.97 -419.65 364.21 -418.93 360.27 C-418.74 358.43 -418.57 356.6 -418.43 354.76 C-418.35 353.75 -418.26 352.75 -418.18 351.71 C-418.01 349.61 -417.85 347.51 -417.68 345.42 C-417.6 344.41 -417.51 343.41 -417.43 342.38 C-417.36 341.47 -417.29 340.56 -417.21 339.63 C-416.93 337.27 -416.93 337.27 -415.93 334.27 C-415.75 332.42 -415.61 330.56 -415.49 328.71 C-414.98 322.13 -414.14 315.73 -411.96 309.48 C-410.55 305.1 -409.84 300.63 -409.07 296.1 C-408.39 292.25 -407.44 288.87 -405.93 285.27 C-405.13 282.23 -404.42 279.17 -403.71 276.11 C-402.93 273.27 -402.93 273.27 -401.96 271.34 C-400.51 268.43 -399.8 265.4 -398.93 262.27 C-393.89 246.65 -387.37 231.84 -379.92 217.23 C-378.96 215.33 -378.01 213.41 -377.07 211.5 C-374.04 205.31 -370.88 199.29 -367.26 193.42 C-366.13 191.59 -365.05 189.71 -363.99 187.83 C-361.71 183.79 -359.18 179.9 -356.67 176 C-355.11 173.55 -353.61 171.07 -352.12 168.58 C-351.4 167.49 -350.67 166.39 -349.93 165.27 C-349.27 165.27 -348.61 165.27 -347.93 165.27 C-347.59 164.24 -347.59 164.24 -347.25 163.19 C-345.6 159.53 -343.36 156.7 -340.87 153.58 C-337.6 149.62 -337.6 149.62 -334.93 145.27 C-334.27 145.27 -333.61 145.27 -332.93 145.27 C-332.62 144.65 -332.31 144.03 -331.99 143.39 C-331.3 142.02 -330.62 140.64 -329.93 139.27 C-329.27 139.27 -328.61 139.27 -327.93 139.27 C-327.72 138.74 -327.51 138.21 -327.3 137.67 C-325.36 134.27 -322.75 131.66 -320.05 128.83 C-318.99 127.71 -317.93 126.59 -316.87 125.46 C-316.37 124.92 -315.86 124.39 -315.34 123.84 C-314.05 122.4 -312.85 120.88 -311.67 119.36 C-310.81 118.32 -310.81 118.32 -309.93 117.27 C-309.27 117.27 -308.61 117.27 -307.93 117.27 C-307.43 115.78 -307.43 115.78 -306.93 114.27 C-306.27 114.27 -305.61 114.27 -304.93 114.27 C-304.93 113.61 -304.93 112.95 -304.93 112.27 C-304.27 112.27 -303.61 112.27 -302.93 112.27 C-302.93 111.61 -302.93 110.95 -302.93 110.27 C-301.53 108.86 -301.53 108.86 -299.55 107.21 C-295.27 103.58 -291.15 99.81 -287.03 95.99 C-284.93 94.27 -284.93 94.27 -282.93 94.27 C-282.93 93.61 -282.93 92.95 -282.93 92.27 C-280.97 90.56 -279 88.97 -276.93 87.39 C-276.3 86.91 -275.68 86.43 -275.03 85.93 C-273 84.37 -270.97 82.82 -268.93 81.27 C-267.6 80.24 -266.26 79.22 -264.93 78.19 C-241.6 60.35 -241.6 60.35 -234.93 59.27 C-234.93 58.61 -234.93 57.95 -234.93 57.27 C-234.09 56.86 -233.24 56.45 -232.37 56.03 C-231.28 55.49 -230.18 54.95 -229.05 54.39 C-227.96 53.86 -226.87 53.33 -225.75 52.78 C-222.89 51.42 -222.89 51.42 -220.93 49.27 C-219.94 49.27 -218.95 49.27 -217.93 49.27 C-217.93 48.61 -217.93 47.95 -217.93 47.27 C-217.42 47.03 -216.9 46.79 -216.38 46.54 C-213.98 45.41 -211.58 44.28 -209.18 43.14 C-208.31 42.73 -207.44 42.32 -206.54 41.9 C-201.8 39.66 -197.1 37.36 -192.43 34.96 C-187.98 32.71 -183.52 30.91 -178.79 29.32 C-176.35 28.43 -174.05 27.43 -171.69 26.34 C-167.04 24.25 -162.31 22.68 -157.43 21.21 C-155.84 20.72 -154.24 20.23 -152.65 19.73 C-151.87 19.49 -151.09 19.25 -150.29 19.01 C-147.15 18.02 -144.03 16.98 -140.91 15.93 C-134.82 13.89 -128.7 12.13 -122.41 10.8 C-120.54 10.4 -118.68 9.97 -116.83 9.51 C-110.93 8.08 -105.24 6.99 -99.19 6.51 C-97.03 6.28 -95.08 5.85 -92.99 5.27 C-88.82 4.12 -84.66 3.81 -80.35 3.51 C-77.79 3.34 -77.79 3.34 -74.93 2.27 C-72.52 2.05 -70.13 1.87 -67.71 1.74 C-66.98 1.7 -66.25 1.66 -65.5 1.61 C-63.07 1.48 -60.64 1.35 -58.21 1.22 C-57.37 1.18 -56.53 1.13 -55.66 1.09 C-37.1 0.13 -18.58 -0.03 0 0 Z M-82.93 87.27 C-84.34 87.4 -85.76 87.5 -87.18 87.58 C-92.87 88.09 -98.09 89.64 -103.53 91.33 C-107 92.29 -110.37 92.78 -113.93 93.27 C-116.03 93.81 -116.03 93.81 -117.93 94.52 C-121.43 95.75 -124.93 96.92 -128.46 98.06 C-134.05 99.89 -139.52 101.83 -144.86 104.32 C-146.98 105.29 -149.13 106.13 -151.3 106.96 C-179.58 118.22 -204.42 134.95 -228.12 153.85 C-229.44 154.88 -230.79 155.87 -232.16 156.82 C-232.74 157.3 -233.33 157.78 -233.93 158.27 C-233.93 158.93 -233.93 159.59 -233.93 160.27 C-234.49 160.5 -235.04 160.73 -235.62 160.97 C-238.53 162.6 -240.55 164.63 -242.91 166.99 C-243.85 167.92 -244.78 168.85 -245.75 169.81 C-246.23 170.3 -246.71 170.78 -247.2 171.28 C-248.68 172.77 -250.17 174.25 -251.66 175.73 C-253.05 177.12 -253.05 177.12 -254.48 178.55 C-255.76 179.83 -255.76 179.83 -257.07 181.15 C-259.15 183.05 -259.15 183.05 -258.93 185.27 C-259.59 185.27 -260.25 185.27 -260.93 185.27 C-262.45 186.94 -263.9 188.69 -265.3 190.46 C-266.08 191.42 -266.85 192.38 -267.64 193.37 C-268.4 194.33 -269.15 195.28 -269.93 196.27 C-271.06 197.62 -271.06 197.62 -272.22 199.01 C-274.13 201.06 -274.13 201.06 -273.93 203.27 C-274.59 203.27 -275.25 203.27 -275.93 203.27 C-278.25 206.49 -278.25 206.49 -278.93 210.27 C-279.59 210.27 -280.25 210.27 -280.93 210.27 C-282.48 212.34 -282.48 212.34 -284.05 215.02 C-286.6 219.16 -289.24 223.2 -291.99 227.21 C-295.17 231.96 -297.81 236.77 -300.29 241.91 C-302.67 246.77 -305.22 251.53 -307.77 256.31 C-312.09 264.18 -312.09 264.18 -315.37 272.52 C-316.44 275.85 -317.62 279.09 -318.93 282.33 C-319.27 283.18 -319.61 284.02 -319.96 284.89 C-320.78 286.89 -321.6 288.89 -322.43 290.89 C-324.42 296.22 -325.62 301.8 -326.96 307.32 C-327.73 310.51 -328.59 313.67 -329.49 316.83 C-335.37 338.21 -336.97 360.02 -337.18 382.08 C-337.2 383.32 -337.22 384.56 -337.24 385.84 C-337.29 399.18 -334.28 407.09 -325.55 416.96 C-316.23 425.17 -307.12 427.72 -294.89 427.65 C-293.69 427.66 -292.48 427.66 -291.24 427.67 C-287.9 427.68 -284.56 427.67 -281.22 427.67 C-277.58 427.66 -273.95 427.67 -270.31 427.68 C-263.94 427.7 -257.57 427.7 -251.2 427.69 C-241.73 427.69 -232.25 427.7 -222.78 427.71 C-204.88 427.74 -186.97 427.74 -169.07 427.74 C-155.24 427.74 -141.41 427.74 -127.59 427.75 C-125.6 427.75 -123.62 427.75 -121.63 427.75 C-120.65 427.75 -119.66 427.75 -118.64 427.75 C-117.66 427.75 -116.67 427.75 -115.65 427.75 C-114.17 427.76 -114.17 427.76 -112.65 427.76 C-84.83 427.77 -57 427.78 -29.18 427.77 C-28.13 427.77 -27.08 427.77 -26 427.77 C-20.68 427.77 -15.36 427.77 -10.04 427.77 C-8.99 427.77 -7.93 427.77 -6.84 427.77 C-4.71 427.77 -2.57 427.77 -0.44 427.77 C32.8 427.76 66.03 427.78 99.26 427.81 C136.59 427.85 173.92 427.87 211.25 427.86 C215.23 427.86 219.21 427.86 223.19 427.86 C224.17 427.86 225.15 427.86 226.16 427.86 C240.96 427.86 255.76 427.87 270.56 427.89 C287.39 427.91 304.22 427.91 321.05 427.89 C330.46 427.88 339.88 427.89 349.3 427.91 C355.59 427.93 361.88 427.92 368.18 427.9 C371.76 427.89 375.35 427.89 378.93 427.91 C382.8 427.93 386.66 427.91 390.53 427.89 C391.63 427.9 392.74 427.92 393.88 427.93 C404.09 427.81 414.51 424.42 422.07 417.27 C429.32 409.12 433.19 400.91 433.2 389.96 C433.21 388.75 433.21 387.53 433.21 386.28 C433.2 384.99 433.2 383.71 433.2 382.39 C433.19 381.09 433.19 379.79 433.19 378.44 C433.61 363.66 433.61 363.66 431.07 349.27 C430.92 347.52 430.8 345.77 430.7 344.02 C429.83 332.85 427.21 321.99 424.07 311.27 C423.68 309.94 423.3 308.6 422.91 307.27 C421.85 303.62 420.77 299.98 419.68 296.34 C419.12 294.42 418.56 292.49 418 290.57 C416.4 285.16 414.77 280.08 412 275.15 C411.07 273.27 411.07 273.27 410.25 270.69 C408.61 265.94 406.43 261.49 404.26 256.96 C403.62 255.61 403.62 255.61 402.97 254.23 C398.68 245.27 393.83 236.73 388.63 228.27 C388.15 227.49 387.67 226.71 387.18 225.9 C382.49 217.82 382.49 217.82 377.07 210.27 C376.41 210.27 375.75 210.27 375.07 210.27 C374.76 209.48 374.45 208.7 374.13 207.89 C373.14 205.35 373.14 205.35 372.07 203.27 C371.41 203.27 370.75 203.27 370.07 203.27 C369.83 202.72 369.6 202.18 369.35 201.62 C367.74 198.67 365.73 196.28 363.57 193.71 C361.26 190.94 359.07 188.27 357.07 185.27 C356.41 185.27 355.75 185.27 355.07 185.27 C354.7 184.41 354.7 184.41 354.32 183.54 C352.86 180.89 351.14 179.08 349.01 176.94 C348.21 176.14 347.41 175.34 346.59 174.52 C345.34 173.28 345.34 173.28 344.07 172.02 C342.82 170.76 342.82 170.76 341.55 169.47 C340.75 168.68 339.95 167.88 339.13 167.07 C338.4 166.34 337.67 165.61 336.92 164.86 C335.22 163.05 335.22 163.05 333.07 163.27 C332.74 162.28 332.41 161.29 332.07 160.27 C331.41 160.27 330.75 160.27 330.07 160.27 C330.07 159.61 330.07 158.95 330.07 158.27 C328.09 156.54 326.1 154.93 324.01 153.33 C323.38 152.84 322.75 152.36 322.1 151.85 C320.09 150.32 318.08 148.79 316.07 147.27 C315.15 146.57 315.15 146.57 314.21 145.85 C304.48 138.49 294.42 131.73 284.07 125.27 C283.06 124.63 282.04 124 281 123.34 C269.22 116.21 256.47 110.49 243.71 105.34 C241.7 104.52 239.7 103.67 237.7 102.79 C233.43 101 229.09 99.55 224.69 98.11 C221.3 97 217.93 95.86 214.57 94.64 C209.38 92.89 203.99 92 198.62 91.01 C195.07 90.27 195.07 90.27 191.94 89.21 C189.15 88.29 186.74 87.92 183.82 87.71 C179.27 87.37 179.27 87.37 177.07 86.27 C154.7 81.89 131.71 82.83 109.02 82.87 C103.28 82.87 97.53 82.87 91.78 82.86 C82.14 82.86 72.5 82.86 62.86 82.88 C51.77 82.89 40.69 82.89 29.61 82.87 C20.02 82.86 10.43 82.86 0.85 82.86 C-4.85 82.87 -10.54 82.87 -16.23 82.86 C-50.35 80.63 -50.35 80.63 -82.93 87.27 Z " fill="#000000" transform="translate(591.929515838623,704.731348991394)"/>
<path d="M0 0 C2.16 0.13 4.32 0.25 6.48 0.37 C17.52 1.01 28.2 2.18 38.86 5.26 C40.23 5.4 41.61 5.52 42.99 5.63 C48.07 6.11 52.68 7.65 57.52 9.21 C60.68 10.2 63.83 11.04 67.05 11.82 C74.85 13.73 82.25 15.84 89.54 19.24 C91.97 20.3 94.41 21.15 96.92 22.01 C103.85 24.47 110.29 27.86 116.82 31.21 C120.07 32.88 123.34 34.5 126.61 36.13 C130.03 37.84 133.44 39.55 136.86 41.26 C136.86 41.92 136.86 42.58 136.86 43.26 C137.68 43.4 137.68 43.4 138.52 43.54 C141.49 44.45 143.7 45.93 146.3 47.63 C149.08 49.45 151.82 51.23 154.71 52.86 C155.42 53.32 156.13 53.78 156.86 54.26 C156.86 54.92 156.86 55.58 156.86 56.26 C157.64 56.56 158.43 56.87 159.24 57.19 C161.86 58.26 161.86 58.26 163.86 59.26 C163.86 59.92 163.86 60.58 163.86 61.26 C164.58 61.5 165.29 61.75 166.03 62.01 C169.17 63.39 171.5 65.1 174.17 67.26 C175.06 67.96 175.94 68.66 176.85 69.38 C177.51 70 178.18 70.62 178.86 71.26 C178.86 71.92 178.86 72.58 178.86 73.26 C179.48 73.56 180.1 73.87 180.74 74.19 C182.11 74.88 183.49 75.57 184.86 76.26 C184.86 76.92 184.86 77.58 184.86 78.26 C185.45 78.52 186.03 78.79 186.64 79.07 C188.86 80.25 190.54 81.54 192.42 83.19 C193 83.7 193.58 84.2 194.18 84.72 C197.56 87.81 197.56 87.81 198.86 89.26 C198.86 89.92 198.86 90.58 198.86 91.26 C199.52 91.26 200.18 91.26 200.86 91.26 C202.27 92.65 202.27 92.65 203.92 94.63 C207.55 98.91 211.32 103.04 215.14 107.15 C216.86 109.26 216.86 109.26 216.86 111.26 C217.52 111.26 218.18 111.26 218.86 111.26 C220.2 112.91 221.46 114.63 222.67 116.38 C224.96 119.62 227.23 122.78 229.86 125.76 C231.86 128.26 231.86 128.26 231.86 131.26 C232.52 131.26 233.18 131.26 233.86 131.26 C235.55 133.52 235.55 133.52 237.42 136.51 C238.04 137.48 238.66 138.45 239.3 139.46 C240.62 141.82 241.4 143.62 241.86 146.26 C242.52 146.26 243.18 146.26 243.86 146.26 C244.25 147.05 244.63 147.85 245.03 148.67 C245.81 150.26 245.81 150.26 246.61 151.88 C247.12 152.92 247.63 153.97 248.16 155.04 C249.79 158.26 249.79 158.26 251.78 161.07 C254.39 165.07 256.36 169.24 258.36 173.57 C258.74 174.37 259.12 175.18 259.51 176 C260.63 178.42 261.75 180.83 262.86 183.26 C263.39 184.4 263.39 184.4 263.93 185.57 C266.16 190.5 268.1 195.46 269.86 200.57 C270.24 201.66 270.24 201.66 270.63 202.78 C272.77 208.92 274.83 215.08 276.86 221.26 C277.21 222.27 277.55 223.29 277.91 224.33 C278.67 226.67 279.3 228.92 279.8 231.32 C280.37 234.01 280.97 236.69 281.62 239.37 C283.04 245.23 284.14 250.89 284.62 256.9 C284.86 259.22 285.29 261.41 285.8 263.69 C288.7 277.64 289.17 291.88 289.07 306.08 C289.05 308.68 289.05 311.28 289.05 313.88 C289.04 315.55 289.04 317.23 289.03 318.9 C289.03 319.67 289.03 320.44 289.03 321.23 C288.99 325.04 288.71 328.54 287.86 332.26 C287.68 333.79 287.53 335.34 287.4 336.88 C287.28 338.18 287.28 338.18 287.16 339.5 C287.08 340.41 287 341.32 286.92 342.26 C285.81 354.29 284.17 365.73 280.92 377.39 C279.86 381.2 278.96 385.03 278.05 388.88 C274.76 402.32 270.47 415.64 264.39 428.08 C262.92 431.13 261.58 434.22 260.25 437.34 C257.64 443.48 254.88 449.27 251.31 454.92 C249.8 457.36 248.45 459.85 247.11 462.38 C244.43 467.33 241.56 472.15 238.61 476.94 C237.96 478.02 237.96 478.02 237.29 479.12 C236.2 480.87 235.04 482.57 233.86 484.26 C233.2 484.26 232.54 484.26 231.86 484.26 C231.61 484.81 231.36 485.36 231.09 485.93 C228.56 490.71 225.07 494.92 221.86 499.26 C221.27 500.08 220.68 500.9 220.07 501.75 C219.55 502.47 219.02 503.2 218.49 503.94 C218.02 504.59 217.56 505.23 217.09 505.89 C216.68 506.34 216.28 506.79 215.86 507.26 C215.2 507.26 214.54 507.26 213.86 507.26 C213.59 507.83 213.32 508.41 213.05 509.01 C211.83 511.31 210.56 513.28 208.86 515.26 C208.2 515.26 207.54 515.26 206.86 515.26 C206.64 515.8 206.43 516.34 206.2 516.9 C204.4 520.07 201.94 522.46 199.36 525.01 C198.86 525.51 198.36 526.02 197.85 526.54 C194.11 530.26 194.11 530.26 191.86 530.26 C191.86 530.92 191.86 531.58 191.86 532.26 C190.49 533.88 190.49 533.88 188.86 535.26 C188.2 535.26 187.54 535.26 186.86 535.26 C186.86 535.92 186.86 536.58 186.86 537.26 C181.38 542.26 181.38 542.26 178.86 542.26 C178.86 542.92 178.86 543.58 178.86 544.26 C177.18 545.76 177.18 545.76 174.99 547.38 C174.27 547.92 173.55 548.46 172.81 549.01 C170.86 550.26 170.86 550.26 168.86 550.26 C168.86 550.92 168.86 551.58 168.86 552.26 C166.62 554.06 164.39 555.73 162.05 557.38 C161.41 557.85 160.76 558.32 160.1 558.8 C155.24 562.26 155.24 562.26 151.86 562.26 C151.86 562.92 151.86 563.58 151.86 564.26 C150.29 565.44 150.29 565.44 148.08 566.76 C147.27 567.25 146.45 567.74 145.61 568.24 C144.28 569.02 144.28 569.02 142.92 569.82 C142.02 570.35 141.12 570.89 140.19 571.44 C129.07 577.97 117.78 584.29 105.86 589.26 C104.81 589.71 103.75 590.17 102.67 590.65 C91.33 595.57 80.08 600.07 68.15 603.35 C65.28 604.14 62.45 604.99 59.61 605.88 C55.67 607.07 51.73 607.96 47.68 608.72 C45.57 609.12 43.46 609.56 41.35 610.01 C34.04 611.56 26.94 612.65 19.47 613.04 C16.75 613.16 16.75 613.16 13.86 614.26 C3.99 615.85 -6.2 615.41 -16.16 615.39 C-19.13 615.38 -22.1 615.39 -25.07 615.39 C-48.7 615.4 -48.7 615.4 -55.14 613.26 C-57.05 613.1 -58.97 612.98 -60.89 612.88 C-71.46 612.13 -81.73 609.73 -91.97 607.07 C-94.35 606.46 -96.73 605.88 -99.12 605.32 C-105.7 603.76 -111.98 602.16 -118.09 599.18 C-120.3 598.18 -122.48 597.53 -124.83 596.88 C-136.53 593.51 -147.39 587.74 -158.2 582.23 C-160.02 581.31 -161.86 580.43 -163.7 579.54 C-170.36 576.32 -176.72 572.82 -183.01 568.94 C-183.72 568.51 -184.43 568.08 -185.16 567.63 C-186.86 566.56 -188.51 565.42 -190.14 564.26 C-190.14 563.6 -190.14 562.94 -190.14 562.26 C-190.68 562.17 -191.21 562.09 -191.76 562.01 C-195.01 560.98 -197.43 559.29 -200.14 557.26 C-200.14 556.6 -200.14 555.94 -200.14 555.26 C-200.92 554.95 -201.71 554.64 -202.51 554.32 C-205.14 553.26 -205.14 553.26 -207.14 552.26 C-207.14 551.6 -207.14 550.94 -207.14 550.26 C-207.96 549.9 -207.96 549.9 -208.79 549.54 C-211.74 547.93 -214.13 545.91 -216.7 543.76 C-219.47 541.44 -222.14 539.26 -225.14 537.26 C-225.14 536.6 -225.14 535.94 -225.14 535.26 C-225.8 535.26 -226.46 535.26 -227.14 535.26 C-227.14 534.6 -227.14 533.94 -227.14 533.26 C-228.13 532.93 -229.12 532.6 -230.14 532.26 C-230.14 531.6 -230.14 530.94 -230.14 530.26 C-230.68 530.04 -231.22 529.82 -231.78 529.6 C-234.96 527.79 -237.35 525.34 -239.89 522.76 C-240.4 522.26 -240.9 521.76 -241.42 521.24 C-245.14 517.51 -245.14 517.51 -245.14 515.26 C-245.8 515.26 -246.46 515.26 -247.14 515.26 C-252.14 509.78 -252.14 509.78 -252.14 507.26 C-252.8 507.26 -253.46 507.26 -254.14 507.26 C-255.65 505.58 -255.65 505.58 -257.26 503.38 C-257.8 502.66 -258.34 501.94 -258.9 501.2 C-260.14 499.26 -260.14 499.26 -260.14 497.26 C-260.8 497.26 -261.46 497.26 -262.14 497.26 C-270.14 488.43 -270.14 488.43 -270.14 484.26 C-270.8 484.26 -271.46 484.26 -272.14 484.26 C-273.23 482.84 -273.23 482.84 -274.42 480.85 C-274.87 480.11 -275.31 479.37 -275.77 478.62 C-276.24 477.82 -276.71 477.02 -277.2 476.19 C-277.69 475.38 -278.18 474.56 -278.68 473.73 C-279.69 472.05 -280.69 470.37 -281.69 468.69 C-283.01 466.47 -284.34 464.27 -285.69 462.07 C-291.31 452.86 -296.28 443.68 -300.18 433.61 C-301.05 431.48 -302.01 429.48 -303.08 427.44 C-307.5 418.8 -310.47 409.53 -313.23 400.26 C-314.02 397.65 -314.87 395.08 -315.76 392.51 C-316.96 388.96 -317.84 385.43 -318.6 381.77 C-319 379.89 -319.44 378.02 -319.89 376.15 C-321.32 370.29 -322.42 364.63 -322.9 358.61 C-323.14 356.29 -323.57 354.1 -324.08 351.82 C-327.01 337.73 -327.45 323.35 -327.35 309.01 C-327.33 306.33 -327.32 303.66 -327.32 300.99 C-327.32 299.27 -327.31 297.55 -327.31 295.83 C-327.31 295.04 -327.31 294.25 -327.3 293.43 C-327.27 289.57 -327 286.01 -326.14 282.26 C-325.96 280.72 -325.81 279.17 -325.67 277.63 C-325.6 276.77 -325.52 275.9 -325.44 275.01 C-325.32 273.65 -325.32 273.65 -325.2 272.26 C-324.1 260.42 -322.59 249.24 -319.15 237.83 C-317.79 233.01 -316.81 228.13 -315.85 223.22 C-315.22 220.58 -314.42 218.62 -313.14 216.26 C-312.67 214.65 -312.21 213.05 -311.76 211.44 C-309.7 204.24 -307.28 197.23 -304.12 190.44 C-303.11 188.2 -302.25 185.93 -301.39 183.63 C-299.11 177.85 -296.13 172.47 -293.17 167.02 C-290.81 162.69 -288.63 158.27 -286.46 153.84 C-285.12 151.22 -283.78 148.7 -282.14 146.26 C-281.48 146.26 -280.82 146.26 -280.14 146.26 C-280 145.44 -280 145.44 -279.85 144.61 C-278.93 141.56 -277.41 139.2 -275.7 136.51 C-275.08 135.52 -274.47 134.54 -273.83 133.52 C-273.27 132.77 -272.71 132.03 -272.14 131.26 C-271.48 131.26 -270.82 131.26 -270.14 131.26 C-270.03 130.68 -269.92 130.1 -269.81 129.5 C-269.06 127 -268.04 125.45 -266.49 123.36 C-265.69 122.3 -265.69 122.3 -264.88 121.22 C-264.33 120.49 -263.77 119.76 -263.2 119.01 C-262.65 118.26 -262.1 117.52 -261.53 116.75 C-261 116.04 -260.47 115.34 -259.92 114.61 C-259.44 113.97 -258.95 113.33 -258.45 112.66 C-258.02 112.2 -257.59 111.73 -257.14 111.26 C-256.48 111.26 -255.82 111.26 -255.14 111.26 C-254.92 110.72 -254.7 110.18 -254.48 109.63 C-252.67 106.42 -250.22 103.91 -247.7 101.26 C-243.88 97.22 -243.88 97.22 -240.42 92.88 C-240 92.34 -239.57 91.81 -239.14 91.26 C-238.48 91.26 -237.82 91.26 -237.14 91.26 C-237.14 90.6 -237.14 89.94 -237.14 89.26 C-235.74 87.85 -235.74 87.85 -233.76 86.19 C-229.48 82.57 -225.36 78.79 -221.24 74.98 C-219.14 73.26 -219.14 73.26 -217.14 73.26 C-217.14 72.6 -217.14 71.94 -217.14 71.26 C-215.05 69.46 -212.96 67.78 -210.76 66.13 C-210.16 65.66 -209.56 65.19 -208.94 64.71 C-204.4 61.26 -204.4 61.26 -202.14 61.26 C-202.14 60.6 -202.14 59.94 -202.14 59.26 C-200.01 57.74 -200.01 57.74 -197.14 56.01 C-193.67 53.87 -190.34 51.72 -187.14 49.19 C-183.33 46.27 -179.29 44.06 -175.05 41.82 C-172.09 40.23 -169.21 38.54 -166.33 36.82 C-157.11 31.42 -147.76 26.61 -137.64 23.15 C-135.31 22.32 -133.12 21.37 -130.89 20.32 C-120.14 15.43 -108.49 12.4 -97.14 9.26 C-96.15 8.97 -95.16 8.68 -94.14 8.38 C-89.12 6.93 -84.37 5.95 -79.17 5.5 C-76.91 5.28 -76.91 5.28 -73.89 4.32 C-63.71 1.43 -53.12 0.83 -42.61 0.25 C-40.44 0.13 -38.28 -0 -36.11 -0.13 C-24 -0.85 -12.11 -0.73 0 0 Z M-73.52 88.29 C-76.86 89.18 -80.21 89.97 -83.58 90.76 C-88.04 91.86 -92.05 93.39 -96.2 95.36 C-98.14 96.26 -98.14 96.26 -101.01 97.19 C-114.52 101.79 -127.38 108.93 -139.4 116.56 C-141.61 117.93 -143.79 119.15 -146.14 120.26 C-146.14 120.92 -146.14 121.58 -146.14 122.26 C-146.92 122.56 -147.71 122.87 -148.51 123.19 C-151.06 124.18 -151.06 124.18 -153.14 125.26 C-153.14 125.92 -153.14 126.58 -153.14 127.26 C-154.13 127.26 -155.12 127.26 -156.14 127.26 C-156.14 127.92 -156.14 128.58 -156.14 129.26 C-156.71 129.52 -157.28 129.79 -157.87 130.07 C-160.22 131.3 -162.26 132.68 -164.39 134.26 C-165.45 135.03 -165.45 135.03 -166.53 135.82 C-167.06 136.29 -167.59 136.77 -168.14 137.26 C-168.14 137.92 -168.14 138.58 -168.14 139.26 C-169.62 139.75 -169.62 139.75 -171.14 140.26 C-171.14 140.92 -171.14 141.58 -171.14 142.26 C-171.68 142.47 -172.22 142.69 -172.78 142.91 C-175.96 144.72 -178.35 147.17 -180.89 149.76 C-181.4 150.25 -181.9 150.75 -182.42 151.27 C-185.27 153.79 -185.27 153.79 -186.14 157.26 C-186.8 157.26 -187.46 157.26 -188.14 157.26 C-190.18 159.43 -190.18 159.43 -192.26 162.13 C-192.99 163.04 -193.71 163.94 -194.46 164.87 C-196.33 167.04 -196.33 167.04 -196.14 169.26 C-196.8 169.26 -197.46 169.26 -198.14 169.26 C-199.96 171.66 -201.66 174.06 -203.33 176.57 C-203.82 177.3 -204.31 178.03 -204.82 178.78 C-215.74 194.95 -215.74 194.95 -224.04 212.53 C-225.28 215.61 -226.7 218.58 -228.14 221.57 C-230.69 227.03 -232.6 232.48 -234.27 238.27 C-235.01 240.8 -235.82 243.27 -236.7 245.76 C-243.16 265 -244.32 285.2 -244.27 305.33 C-244.26 307.75 -244.27 310.17 -244.28 312.6 C-244.28 329.88 -243.06 346.48 -238.08 363.11 C-237.36 365.51 -236.71 367.89 -236.14 370.32 C-234.19 378.26 -232.02 386.1 -228.13 393.32 C-227.03 395.48 -226.18 397.67 -225.33 399.94 C-221.42 409.92 -215.76 419.17 -210.14 428.26 C-209.22 429.77 -209.22 429.77 -208.28 431.32 C-207.66 432.33 -207.03 433.34 -206.39 434.38 C-205.82 435.31 -205.24 436.24 -204.66 437.2 C-203.9 438.22 -203.9 438.22 -203.14 439.26 C-202.48 439.26 -201.82 439.26 -201.14 439.26 C-200.93 439.93 -200.73 440.61 -200.51 441.31 C-198.67 445.26 -196.03 448.14 -193.14 451.38 C-192.05 452.61 -190.97 453.84 -189.89 455.08 C-189.41 455.61 -188.93 456.15 -188.44 456.71 C-187.14 458.26 -187.14 458.26 -185.14 461.26 C-184.48 461.26 -183.82 461.26 -183.14 461.26 C-183.14 461.92 -183.14 462.58 -183.14 463.26 C-182.48 463.26 -181.82 463.26 -181.14 463.26 C-180.89 463.83 -180.64 464.41 -180.39 465.01 C-178.96 467.58 -177.36 469.32 -175.14 471.26 C-174.48 471.26 -173.82 471.26 -173.14 471.26 C-173.14 471.92 -173.14 472.58 -173.14 473.26 C-171.45 474.82 -169.68 476.31 -167.89 477.76 C-166.91 478.55 -165.94 479.34 -164.94 480.16 C-162.69 481.84 -160.69 483.14 -158.14 484.26 C-158.14 484.92 -158.14 485.58 -158.14 486.26 C-155.9 488.06 -153.67 489.73 -151.33 491.38 C-150.68 491.85 -150.04 492.32 -149.38 492.8 C-145.63 495.57 -145.63 495.57 -141.14 496.26 C-141.14 496.92 -141.14 497.58 -141.14 498.26 C-140.47 498.62 -139.81 498.98 -139.12 499.36 C-138.2 499.86 -137.28 500.36 -136.33 500.88 C-134.81 501.7 -134.81 501.7 -133.27 502.54 C-131.31 503.61 -129.36 504.69 -127.42 505.78 C-117.02 511.57 -106.38 516.34 -95.14 520.26 C-93.76 520.77 -92.39 521.29 -91.01 521.82 C-83.16 524.75 -75.53 526.92 -67.26 528.38 C-65.41 528.71 -63.56 529.05 -61.71 529.39 C-60.9 529.53 -60.1 529.67 -59.26 529.82 C-57.14 530.26 -57.14 530.26 -54.14 531.26 C-51.68 531.46 -49.22 531.62 -46.76 531.76 C-39.61 532.15 -39.61 532.15 -36.84 532.76 C-33.61 533.35 -30.55 533.39 -27.26 533.39 C-25.95 533.39 -24.63 533.39 -23.28 533.39 C-22.26 533.39 -22.26 533.39 -21.22 533.39 C-19.15 533.38 -17.07 533.39 -15 533.39 C-13.68 533.39 -12.37 533.39 -11.01 533.39 C-9.82 533.39 -8.62 533.39 -7.38 533.38 C-4.5 533.27 -1.95 532.88 0.86 532.26 C3.15 532.11 5.44 531.98 7.74 531.88 C15.64 531.44 23.13 529.98 30.86 528.26 C31.73 528.08 32.59 527.9 33.49 527.72 C38.77 526.63 43.78 525.05 48.86 523.26 C49.92 522.89 50.99 522.53 52.08 522.16 C59.27 519.68 66.17 516.86 73.04 513.59 C75.14 512.6 77.27 511.69 79.42 510.82 C83.78 508.84 87.8 506.41 91.9 503.97 C95.49 501.89 99.13 500.05 102.86 498.26 C102.86 497.6 102.86 496.94 102.86 496.26 C103.38 496.18 103.9 496.11 104.44 496.03 C107.9 494.92 110.66 492.89 113.61 490.82 C114.21 490.41 114.81 490 115.43 489.58 C116.95 488.53 118.41 487.4 119.86 486.26 C119.86 485.6 119.86 484.94 119.86 484.26 C121.86 483.26 123.86 482.26 125.86 481.26 C125.86 480.6 125.86 479.94 125.86 479.26 C126.42 479.01 126.97 478.76 127.55 478.51 C130.28 477.03 132.54 475.32 134.86 473.26 C134.86 472.6 134.86 471.94 134.86 471.26 C135.44 471.01 136.02 470.76 136.61 470.51 C139.19 469.07 140.92 467.47 142.86 465.26 C142.86 464.6 142.86 463.94 142.86 463.26 C143.52 463.26 144.18 463.26 144.86 463.26 C144.86 462.6 144.86 461.94 144.86 461.26 C145.85 460.93 146.84 460.6 147.86 460.26 C149.36 458.63 150.79 456.93 152.17 455.19 C152.96 454.2 153.75 453.21 154.56 452.19 C155.32 451.22 156.08 450.25 156.86 449.26 C157.81 448.05 157.81 448.05 158.78 446.82 C161.78 443.4 161.78 443.4 162.86 439.26 C163.52 439.26 164.18 439.26 164.86 439.26 C166.41 437.22 166.41 437.22 167.99 434.57 C168.61 433.56 169.23 432.55 169.87 431.51 C170.86 429.9 170.86 429.9 171.86 428.26 C172.83 426.74 172.83 426.74 173.82 425.19 C181.71 412.74 187.89 400.05 192.56 386.07 C193.56 383.08 194.71 380.21 195.99 377.32 C198.55 371.15 199.68 364.55 201.03 358.04 C201.86 354.26 201.86 354.26 202.86 352.26 C203.24 350.35 203.56 348.43 203.86 346.51 C204.03 345.48 204.19 344.45 204.36 343.4 C205.84 332.15 206.02 320.86 205.99 309.53 C205.99 307.19 205.99 304.85 206 302.51 C206.01 285.37 204.74 268.89 199.8 252.4 C199.08 250 198.43 247.63 197.86 245.19 C195.92 237.26 193.74 229.42 189.86 222.2 C188.72 219.98 187.82 217.71 186.92 215.38 C183.47 206.57 178.93 198.4 174.05 190.32 C173.53 189.45 173 188.59 172.47 187.69 C166.71 178.08 166.71 178.08 159.86 169.26 C159.2 169.26 158.54 169.26 157.86 169.26 C157.46 168.4 157.46 168.4 157.05 167.52 C155.82 165.18 154.44 163.13 152.86 161.01 C152.34 160.3 151.83 159.59 151.3 158.86 C150.82 158.33 150.35 157.8 149.86 157.26 C149.2 157.26 148.54 157.26 147.86 157.26 C147.64 156.71 147.43 156.17 147.2 155.61 C145.4 152.44 142.94 150.05 140.36 147.51 C139.86 147 139.36 146.49 138.85 145.97 C136.33 143.13 136.33 143.13 132.86 142.26 C132.86 141.6 132.86 140.94 132.86 140.26 C131.25 138.58 131.25 138.58 129.17 136.88 C128.08 135.95 128.08 135.95 126.97 135.01 C126.27 134.43 125.58 133.85 124.86 133.26 C123.91 132.45 122.96 131.65 121.99 130.82 C120.03 129.06 120.03 129.06 117.86 129.26 C117.86 128.6 117.86 127.94 117.86 127.26 C116.87 127.26 115.88 127.26 114.86 127.26 C114.86 126.6 114.86 125.94 114.86 125.26 C111.64 122.94 111.64 122.94 107.86 122.26 C107.86 121.6 107.86 120.94 107.86 120.26 C105.34 118.4 105.34 118.4 102.11 116.51 C101.53 116.15 100.94 115.8 100.34 115.43 C95.52 112.55 90.56 110.01 85.5 107.56 C83.34 106.49 81.29 105.37 79.24 104.13 C75.67 102.15 72.08 100.66 68.27 99.19 C66.24 98.4 64.24 97.56 62.24 96.69 C53.9 93.14 45.57 90.84 36.78 88.73 C35.14 88.32 33.5 87.88 31.86 87.44 C16.01 83.14 0.02 81.75 -16.35 81.86 C-19.14 81.88 -21.93 81.86 -24.72 81.85 C-41.4 81.83 -57.41 83.96 -73.52 88.29 Z " fill="#000000" transform="translate(659.139404296875,65.74462890625)"/>
</svg>
